<?xml version="1.0" encoding="utf-8"?>
<!-- Generator: Adobe Illustrator 23.0.5, SVG Export Plug-In . SVG Version: 6.00 Build 0)  -->
<svg version="1.1" id="Calque_1" xmlns="http://www.w3.org/2000/svg" xmlns:xlink="http://www.w3.org/1999/xlink" x="0px" y="0px"
	 viewBox="0 0 512 512" style="enable-background:new 0 0 512 512;" xml:space="preserve">
<style type="text/css">
	.st0{fill:url(#SVGID_1_);}
	.st1{fill:url(#SVGID_2_);}
	.st2{fill:url(#SVGID_3_);}
	.st3{clip-path:url(#SVGID_5_);}
	.st4{opacity:0.4608;}
	.st5{fill:#191E38;}
	.st6{opacity:0.4269;}
	.st7{opacity:0.1706;}
	.st8{opacity:0.1195;}
	.st9{opacity:3.346513e-02;}
	.st10{opacity:7.420787e-03;}
	.st11{opacity:0.1144;}
	.st12{opacity:6.543384e-02;}
	.st13{opacity:0.1642;}
	.st14{opacity:0.2054;}
	.st15{opacity:0.2302;}
	.st16{opacity:9.257451e-02;}
	.st17{opacity:0.2162;}
	.st18{opacity:0.192;}
	.st19{opacity:8.728410e-02;}
	.st20{opacity:0.2272;}
	.st21{opacity:0.1002;}
	.st22{opacity:4.425968e-04;}
	.st23{opacity:5.562328e-03;}
	.st24{opacity:0.8799;}
	.st25{opacity:0.6527;}
	.st26{opacity:0.4654;}
	.st27{opacity:0.4553;}
	.st28{opacity:9.448563e-02;}
	.st29{opacity:0.3146;}
	.st30{opacity:7.474595e-02;}
	.st31{opacity:0.1991;}
	.st32{opacity:0.2494;}
	.st33{opacity:0.2223;}
	.st34{opacity:0.1726;}
	.st35{opacity:0.1404;}
	.st36{opacity:9.877136e-03;}
	.st37{opacity:0.1303;}
	.st38{opacity:0.4187;}
	.st39{opacity:0.2861;}
	.st40{opacity:0.2802;}
	.st41{opacity:8.656751e-02;}
	.st42{opacity:0.181;}
	.st43{opacity:0.2041;}
	.st44{opacity:0.2938;}
	.st45{opacity:0.279;}
	.st46{opacity:0.2521;}
	.st47{opacity:0.111;}
	.st48{opacity:6.952296e-02;}
	.st49{opacity:0.1164;}
	.st50{opacity:0.5412;}
	.st51{opacity:0.3185;}
	.st52{opacity:0.1975;}
	.st53{opacity:0.1127;}
	.st54{opacity:0.161;}
	.st55{opacity:0.2991;}
	.st56{opacity:0.1853;}
	.st57{opacity:0.1393;}
	.st58{opacity:0.1609;}
	.st59{opacity:0.2919;}
	.st60{opacity:0.2413;}
	.st61{opacity:0.6994;}
	.st62{opacity:0.1931;}
	.st63{opacity:1.883855e-03;}
	.st64{opacity:0.2387;}
	.st65{opacity:0.1059;}
	.st66{opacity:0.5802;}
	.st67{opacity:4.909929e-02;}
	.st68{opacity:4.583165e-02;}
	.st69{opacity:2.120947e-03;}
	.st70{opacity:9.813196e-03;}
	.st71{opacity:8.522101e-02;}
	.st72{opacity:0.1069;}
	.st73{opacity:0.8018;}
	.st74{opacity:0.1968;}
	.st75{opacity:0.7559;}
	.st76{opacity:0.7578;}
	.st77{opacity:8.991690e-02;}
	.st78{opacity:9.121879e-02;}
	.st79{opacity:0.1245;}
	.st80{opacity:0.1449;}
	.st81{opacity:0.2001;}
	.st82{opacity:0.3287;}
	.st83{opacity:0.5447;}
	.st84{opacity:0.1591;}
	.st85{opacity:0.4135;}
	.st86{opacity:4.465252e-03;}
	.st87{opacity:0.1124;}
	.st88{opacity:6.558179e-02;}
	.st89{opacity:0.198;}
	.st90{opacity:0.3113;}
	.st91{opacity:0.5025;}
	.st92{opacity:0.1574;}
	.st93{opacity:0.2237;}
	.st94{opacity:0.3384;}
	.st95{opacity:0.359;}
	.st96{opacity:0.2093;}
	.st97{opacity:0.3802;}
	.st98{opacity:0.2664;}
	.st99{opacity:0.2294;}
	.st100{opacity:0.1538;}
	.st101{opacity:0.1504;}
	.st102{opacity:0.1848;}
	.st103{opacity:7.375503e-02;}
	.st104{opacity:0.1868;}
	.st105{opacity:0.2171;}
	.st106{opacity:0.8465;}
	.st107{opacity:0.1313;}
	.st108{opacity:0.165;}
	.st109{opacity:7.135014e-02;}
	.st110{opacity:0.1274;}
	.st111{opacity:6.429306e-02;}
	.st112{opacity:0.1331;}
	.st113{opacity:0.1136;}
	.st114{opacity:0.1639;}
	.st115{clip-path:url(#SVGID_7_);}
	.st116{clip-path:url(#SVGID_9_);}
</style>
<g>
	
		<linearGradient id="SVGID_1_" gradientUnits="userSpaceOnUse" x1="16.2363" y1="353.0273" x2="16.2363" y2="158.1953" gradientTransform="matrix(-1 0 0 -1 512 511.2227)">
		<stop  offset="0" style="stop-color:#081C26"/>
		<stop  offset="0.5" style="stop-color:#2278A3"/>
		<stop  offset="1" style="stop-color:#081B26"/>
	</linearGradient>
	<path class="st0" d="M495.8,353c9,0,16.2-7.3,16.2-16.2V174.4c0-9-7.3-16.2-16.2-16.2c-9,0-16.2,7.3-16.2,16.2v162.4
		C479.5,345.8,486.8,353,495.8,353z"/>
	
		<linearGradient id="SVGID_2_" gradientUnits="userSpaceOnUse" x1="81.1797" y1="353.0273" x2="81.1797" y2="158.1953" gradientTransform="matrix(-1 0 0 -1 512 511.2227)">
		<stop  offset="0" style="stop-color:#081C26"/>
		<stop  offset="0.5" style="stop-color:#2278A3"/>
		<stop  offset="1" style="stop-color:#081B26"/>
	</linearGradient>
	<path class="st1" d="M430.8,353c9,0,16.2-7.3,16.2-16.2V174.4c0-9-7.3-16.2-16.2-16.2s-16.2,7.3-16.2,16.2v162.4
		C414.6,345.8,421.9,353,430.8,353z"/>
	
		<linearGradient id="SVGID_3_" gradientUnits="userSpaceOnUse" x1="320.5293" y1="434.2227" x2="320.5293" y2="77" gradientTransform="matrix(-1 0 0 -1 512 511.2227)">
		<stop  offset="0" style="stop-color:#081C26"/>
		<stop  offset="0.5" style="stop-color:#2278A3"/>
		<stop  offset="1" style="stop-color:#081B26"/>
	</linearGradient>
	<polygon class="st2" points="0,255.6 219.8,434.2 219.8,353 382.9,353 382.9,255.6 382.9,158.2 219.8,158.2 219.8,77 	"/>
</g>
<g>
	<g>
		<defs>
			<path id="SVGID_4_" d="M495.8,353c9,0,16.2-7.3,16.2-16.2V174.4c0-9-7.3-16.2-16.2-16.2c-9,0-16.2,7.3-16.2,16.2v162.4
				C479.5,345.8,486.8,353,495.8,353z"/>
		</defs>
		<clipPath id="SVGID_5_">
			<use xlink:href="#SVGID_4_"  style="overflow:visible;"/>
		</clipPath>
		<g class="st3">
			<g>
				<g class="st4">
					<polygon class="st5" points="-8.1,403.9 -5,433.8 -44.3,436.2 -47.4,406.3 					"/>
				</g>
				<g class="st6">
					<polygon class="st5" points="-15.1,385.8 -11.4,417.6 -53.1,420.4 -56.8,388.7 					"/>
				</g>
				<g class="st7">
					<polygon class="st5" points="-1.2,358.9 20.8,388.5 -18.1,405.2 -40.1,375.6 					"/>
				</g>
				<g class="st8">
					<polygon class="st5" points="24.9,383.4 64.9,406.3 34.8,436.8 -5.2,413.9 					"/>
				</g>
				<g class="st9">
					<polygon class="st5" points="24,331.5 112.5,333.1 110.4,400.5 21.9,398.9 					"/>
				</g>
				<g class="st10">
					<polygon class="st5" points="162.5,334.3 157,401.2 69.2,397 74.6,330.1 					"/>
				</g>
				<g class="st11">
					<polygon class="st5" points="187.4,377.8 202.7,439.6 121.4,451.2 106.2,389.3 					"/>
				</g>
				<g class="st12">
					<polygon class="st5" points="206.7,329.5 220.2,373.7 162.1,384 148.6,339.8 					"/>
				</g>
				<g class="st13">
					<polygon class="st5" points="258.4,341.7 245.4,396.8 173,386.9 186,331.8 					"/>
				</g>
				<g class="st14">
					<polygon class="st5" points="177.6,408.7 203.7,464.1 131,484 104.9,428.7 					"/>
				</g>
				<g class="st15">
					<polygon class="st5" points="133.5,410.1 139.7,471.8 58.6,476.6 52.4,414.8 					"/>
				</g>
				<g class="st16">
					<polygon class="st5" points="258.4,353.9 271.3,437.8 161,447.7 148.1,363.7 					"/>
				</g>
				<g class="st17">
					<polygon class="st5" points="289.3,383.9 372.8,426.6 316.8,490.2 233.2,447.5 					"/>
				</g>
				<g class="st18">
					<polygon class="st5" points="435.2,303.2 521.7,417.7 371.4,483.5 284.9,369 					"/>
				</g>
				<g class="st19">
					<polygon class="st5" points="461.9,307.1 507,363.9 432.4,398.2 387.3,341.4 					"/>
				</g>
				<g class="st20">
					<polygon class="st5" points="523.1,348.6 508.2,412.5 424.2,401.2 439.1,337.3 					"/>
				</g>
				<g class="st21">
					<polygon class="st5" points="545.3,404.3 501.9,460.1 428.6,427.1 472,371.3 					"/>
				</g>
				<g class="st22">
					<polygon class="st5" points="525.6,456.4 518.2,515 441.2,509.3 448.7,450.7 					"/>
				</g>
				<g class="st23">
					<polygon class="st5" points="582.6,421 582,479.9 504.7,479.4 505.3,420.6 					"/>
				</g>
				<g class="st24">
					<polygon class="st5" points="650.5,317.6 615.9,370.2 546.8,343.9 581.4,291.3 					"/>
				</g>
				<g class="st25">
					<polygon class="st5" points="585.5,143.6 612,200.3 537.5,220.5 511,163.8 					"/>
				</g>
				<g class="st26">
					<polygon class="st5" points="587.9,80.5 592.6,147.9 504.1,151.5 499.3,84.1 					"/>
				</g>
				<g class="st27">
					<polygon class="st5" points="564.4,65.2 513.9,160.2 389.2,121.8 439.6,26.9 					"/>
				</g>
				<g class="st28">
					<polygon class="st5" points="592.2,179.9 508,284.4 370.7,220.3 455,115.8 					"/>
				</g>
				<g class="st29">
					<polygon class="st5" points="593.2,251.2 570.1,307.4 496.3,289.8 519.4,233.6 					"/>
				</g>
				<g class="st30">
					<polygon class="st5" points="546.4,261.1 559.8,319 483.6,329.2 470.2,271.3 					"/>
				</g>
				<g class="st31">
					<polygon class="st5" points="472.2,222 457.1,276.4 385.6,264.8 400.8,210.4 					"/>
				</g>
				<g class="st32">
					<polygon class="st5" points="460.5,114.6 483.6,230.5 331.2,248.1 308.2,132.2 					"/>
				</g>
				<g class="st33">
					<polygon class="st5" points="286.8,277.1 335.7,283.9 326.8,321.1 277.9,314.3 					"/>
				</g>
				<g class="st34">
					<polygon class="st5" points="326.9,304.9 321.2,348.1 264.5,343.8 270.2,300.6 					"/>
				</g>
				<g class="st35">
					<polygon class="st5" points="430.5,266.1 452.6,322.5 378.5,339.3 356.4,282.9 					"/>
				</g>
				<g class="st36">
					<polygon class="st5" points="393.9,268.7 483.6,406.9 302.1,475.2 212.4,337 					"/>
				</g>
				<g class="st37">
					<polygon class="st5" points="246.8,242 295.5,234.9 304.8,272 256.1,279.1 					"/>
				</g>
				<g class="st38">
					<polygon class="st5" points="287.1,60 296.4,120.6 216.7,127.7 207.4,67.1 					"/>
				</g>
				<g class="st39">
					<polygon class="st5" points="152,152.7 107.7,195.8 51.1,162 95.4,118.9 					"/>
				</g>
				<g class="st40">
					<polygon class="st5" points="44.5,241.4 61.4,306.5 -24,319.4 -41,254.3 					"/>
				</g>
				<g class="st41">
					
						<rect x="-34.4" y="181.1" transform="matrix(4.490548e-11 -1 1 4.490548e-11 -229.0745 246.6179)" class="st5" width="86.4" height="113.4"/>
				</g>
				<g class="st42">
					
						<rect x="-54.2" y="163.3" transform="matrix(4.490459e-11 -1 1 4.490459e-11 -229.1122 194.8989)" class="st5" width="74.2" height="97.4"/>
				</g>
				<g class="st43">
					<polygon class="st5" points="7.5,310.1 24.8,363.5 -45.4,376.7 -62.7,323.2 					"/>
				</g>
				<g class="st44">
					<polygon class="st5" points="145.3,184.9 129.6,286.6 -4,274.7 11.7,173 					"/>
				</g>
				<g class="st45">
					<polygon class="st5" points="193.2,239.6 145.6,258.4 120.9,222.1 168.5,203.4 					"/>
				</g>
				<g class="st46">
					<polygon class="st5" points="253.3,186.7 262,233.6 200.4,240.3 191.7,193.3 					"/>
				</g>
				<g class="st47">
					<polygon class="st5" points="271.2,101.3 279.4,159.8 202.6,166 194.4,107.5 					"/>
				</g>
				<g class="st48">
					<polygon class="st5" points="140.2,277.6 128.2,328.6 61.2,319.5 73.2,268.5 					"/>
				</g>
				<g class="st49">
					
						<rect x="-15.2" y="141.2" transform="matrix(4.492235e-11 -1 1 4.492235e-11 -171.6382 238.4464)" class="st5" width="97.2" height="127.7"/>
				</g>
				<g class="st50">
					
						<rect x="-30.4" y="93.6" transform="matrix(4.490548e-11 -1 1 4.490548e-11 -130.7513 113.1262)" class="st5" width="43.2" height="56.7"/>
				</g>
				<g class="st51">
					<polygon class="st5" points="211.8,132.5 204.6,185.6 134.9,180.1 142,127 					"/>
				</g>
				<g class="st52">
					<polygon class="st5" points="365.9,60.4 383.2,147.4 268.9,160.5 251.6,73.5 					"/>
				</g>
				<g class="st53">
					<polygon class="st5" points="472.8,69 469.8,170.7 336.2,168.4 339.3,66.7 					"/>
				</g>
				<g class="st54">
					<polygon class="st5" points="318.6,162 336.2,199 287.7,212.4 270.1,175.5 					"/>
				</g>
				<g class="st55">
					<polygon class="st5" points="200.2,278.6 158.9,332.7 87.8,301.2 129.1,247.1 					"/>
				</g>
				<g class="st56">
					<polygon class="st5" points="253.2,303 252.4,328.2 219.2,327.6 220,302.4 					"/>
				</g>
				<g class="st57">
					<polygon class="st5" points="270.7,254.1 315.9,249.1 322.6,283.5 277.4,288.5 					"/>
				</g>
				<g class="st58">
					<polygon class="st5" points="272.5,197.2 320.1,218.4 292.3,254.6 244.7,233.5 					"/>
				</g>
				<g class="st59">
					<polygon class="st5" points="230.3,280.7 237.8,315 192.8,320.8 185.3,286.5 					"/>
				</g>
				<g class="st60">
					<polygon class="st5" points="255.8,231 250.2,290 172.7,285.8 178.2,226.7 					"/>
				</g>
			</g>
			<g>
				<g class="st61">
					<polygon class="st5" points="-5.1,307.2 2,347.6 -51.1,353 -58.2,312.6 					"/>
				</g>
				<g class="st62">
					<polygon class="st5" points="27.6,395.7 61.9,453.4 -13.9,479.6 -48.3,421.8 					"/>
				</g>
				<g class="st63">
					<polygon class="st5" points="124.8,470.9 157.3,503.2 114.9,527.9 82.4,495.6 					"/>
				</g>
				<g class="st64">
					<polygon class="st5" points="351.8,394.9 250,393.2 252.2,315.6 354.1,317.3 					"/>
				</g>
				<g class="st65">
					<polygon class="st5" points="386.9,319.7 408.6,369.8 342.8,386.3 321.1,336.2 					"/>
				</g>
				<g class="st66">
					<polygon class="st5" points="463.4,446.9 404.7,470.8 373.2,426.1 431.9,402.2 					"/>
				</g>
				<g class="st67">
					<polygon class="st5" points="317.7,440.1 376.5,478.3 326.3,523.1 267.5,484.9 					"/>
				</g>
				<g class="st68">
					<polygon class="st5" points="295.5,432.6 272.6,489.4 198,472 220.9,415.2 					"/>
				</g>
				<g class="st69">
					<polygon class="st5" points="244.4,336.7 106.1,300.7 153.4,195.4 291.7,231.4 					"/>
				</g>
				<g class="st70">
					<polygon class="st5" points="326,349.7 224.3,325.9 255.7,248.4 357.4,272.3 					"/>
				</g>
				<g class="st47">
					<polygon class="st5" points="70.2,429.1 167.5,410.5 192,484.6 94.7,503.2 					"/>
				</g>
				<g class="st71">
					<polygon class="st5" points="182.9,307.1 129.6,301.1 137.4,260.6 190.7,266.5 					"/>
				</g>
				<g class="st72">
					<polygon class="st5" points="382,380.4 337.8,423.3 281.5,389.7 325.6,346.8 					"/>
				</g>
				<g class="st73">
					<polygon class="st5" points="536.8,420.2 475.3,465.7 415.6,418.9 477,373.4 					"/>
				</g>
				<g class="st74">
					<polygon class="st5" points="611.1,316.7 586.9,356.1 535.1,337.7 559.3,298.2 					"/>
				</g>
				<g class="st75">
					<polygon class="st5" points="617.5,198.3 586.9,236.8 536.3,213.5 566.9,175 					"/>
				</g>
				<g class="st76">
					<polygon class="st5" points="429.6,106 361.1,126.3 334.4,74.1 402.9,53.8 					"/>
				</g>
				<g class="st77">
					<polygon class="st5" points="215.4,189.9 164.1,227.5 114.7,188.5 165.9,150.9 					"/>
				</g>
				<g class="st78">
					<polygon class="st5" points="155,128.2 112,184.7 37.8,151.9 80.9,95.5 					"/>
				</g>
				<g class="st79">
					<polygon class="st5" points="98.7,179.8 44.3,215.3 -2.4,173.8 52,138.3 					"/>
				</g>
				<g class="st80">
					<polygon class="st5" points="376.7,228.4 478.6,276.9 414.8,354.5 312.9,305.9 					"/>
				</g>
				<g class="st81">
					<polygon class="st5" points="471.6,119.7 484.3,184.8 398.7,194.5 386,129.4 					"/>
				</g>
				<g class="st82">
					<polygon class="st5" points="554.7,340.9 446.8,339 449.3,256.9 557.2,258.8 					"/>
				</g>
				<g class="st83">
					<polygon class="st5" points="539.7,286.6 451.1,282.1 456.9,214.7 545.5,219.1 					"/>
				</g>
				<g class="st84">
					<polygon class="st5" points="575.4,169.4 553.9,219 488.8,202.6 510.4,153 					"/>
				</g>
				<g class="st85">
					<polygon class="st5" points="419.5,155.7 407.9,198.6 351.6,189.7 363.2,146.9 					"/>
				</g>
				<g class="st86">
					<polygon class="st5" points="295.4,254.5 220.6,266.9 204.2,210 279.1,197.5 					"/>
				</g>
				<g class="st87">
					<polygon class="st5" points="382.3,148.6 349,234.1 236.6,208.9 269.9,123.3 					"/>
				</g>
				<g class="st88">
					<polygon class="st5" points="352.1,140.5 283.2,208.3 194.1,155.8 263.1,88 					"/>
				</g>
				<g class="st89">
					<polygon class="st5" points="369.1,104.6 285.7,178 189.3,114.5 272.7,41.1 					"/>
				</g>
				<g class="st90">
					<polygon class="st5" points="267.8,121.4 143.2,190.6 52.3,95.8 176.9,26.5 					"/>
				</g>
				<g class="st91">
					<polygon class="st5" points="18.6,177.2 -23,226.8 -88.1,195.1 -46.6,145.5 					"/>
				</g>
				<g class="st92">
					<polygon class="st5" points="119.4,154.4 48,197.6 -8.6,143.2 62.7,100.1 					"/>
				</g>
				<g class="st93">
					<polygon class="st5" points="298.5,42.1 233.4,86.7 174.8,37.2 239.8,-7.4 					"/>
				</g>
				<g class="st94">
					<polygon class="st5" points="464.8,111.1 415.5,144.3 371.9,106.8 421.2,73.6 					"/>
				</g>
				<g class="st95">
					<polygon class="st5" points="571,98 519.3,126.1 482.4,86.8 534,58.7 					"/>
				</g>
				<g class="st96">
					<polygon class="st5" points="661,132.9 623,159.8 587.8,130.8 625.8,104 					"/>
				</g>
				<g class="st97">
					<polygon class="st5" points="586.4,162 531.5,182.9 504.1,141.1 559,120.2 					"/>
				</g>
				<g class="st98">
					<polygon class="st5" points="490.2,363.3 441.4,435.2 346.9,398.1 395.7,326.1 					"/>
				</g>
				<g class="st99">
					<polygon class="st5" points="388.6,249.6 407.3,308.6 329.9,322.8 311.2,263.8 					"/>
				</g>
				<g class="st100">
					<polygon class="st5" points="408.9,210 435.7,267.4 360.3,287.9 333.5,230.5 					"/>
				</g>
				<g class="st101">
					<polygon class="st5" points="386.9,215.7 374.8,265.6 309.3,256.3 321.4,206.5 					"/>
				</g>
				<g class="st102">
					<polygon class="st5" points="460.8,167.1 515,222.5 442.3,263.7 388.1,208.4 					"/>
				</g>
				<g class="st103">
					<polygon class="st5" points="494.3,115.5 544.2,191.7 444.1,229.7 394.2,153.5 					"/>
				</g>
				<g class="st104">
					<polygon class="st5" points="156.3,348.2 268.1,396.4 204.8,481.4 93.1,433.3 					"/>
				</g>
				<g class="st105">
					<polygon class="st5" points="37.9,237.1 38.6,297.5 -40.8,298.1 -41.5,237.7 					"/>
				</g>
				<g class="st106">
					<polygon class="st5" points="-13.3,362.9 -6.9,397.3 -52.1,402.2 -58.5,367.8 					"/>
				</g>
				<g class="st49">
					<polygon class="st5" points="-15.2,382.1 100.2,366.8 120.3,454.7 4.9,470 					"/>
				</g>
				<g class="st107">
					<polygon class="st5" points="204.8,307.6 161.7,400.5 39.6,367.7 82.7,274.8 					"/>
				</g>
				<g class="st108">
					<polygon class="st5" points="155.1,247.7 152.5,344.8 24.9,342.8 27.5,245.7 					"/>
				</g>
				<g class="st109">
					<polygon class="st5" points="-9,299.9 108.3,320.7 81,410 -36.3,389.2 					"/>
				</g>
				<g class="st110">
					<polygon class="st5" points="26.4,262 106.4,322.3 27.2,383.2 -52.8,322.9 					"/>
				</g>
				<g class="st111">
					<polygon class="st5" points="157.4,168.1 122.4,217.3 57.7,190.6 92.7,141.4 					"/>
				</g>
				<g class="st112">
					<polygon class="st5" points="218.4,232 155.5,241.4 143.3,193.5 206.2,184.1 					"/>
				</g>
				<g class="st113">
					<polygon class="st5" points="255,232.1 168.4,237.3 161.5,171.4 248.1,166.2 					"/>
				</g>
				<g class="st114">
					<polygon class="st5" points="200.3,254.7 129.2,267.8 112.1,213.6 183.2,200.6 					"/>
				</g>
			</g>
		</g>
	</g>
	<g>
		<defs>
			<path id="SVGID_6_" d="M430.8,353c9,0,16.2-7.3,16.2-16.2V174.4c0-9-7.3-16.2-16.2-16.2s-16.2,7.3-16.2,16.2v162.4
				C414.6,345.8,421.9,353,430.8,353z"/>
		</defs>
		<clipPath id="SVGID_7_">
			<use xlink:href="#SVGID_6_"  style="overflow:visible;"/>
		</clipPath>
		<g class="st115">
			<g>
				<g class="st4">
					<polygon class="st5" points="-8.1,403.9 -5,433.8 -44.3,436.2 -47.4,406.3 					"/>
				</g>
				<g class="st6">
					<polygon class="st5" points="-15.1,385.8 -11.4,417.6 -53.1,420.4 -56.8,388.7 					"/>
				</g>
				<g class="st7">
					<polygon class="st5" points="-1.2,358.9 20.8,388.5 -18.1,405.2 -40.1,375.6 					"/>
				</g>
				<g class="st8">
					<polygon class="st5" points="24.9,383.4 64.9,406.3 34.8,436.8 -5.2,413.9 					"/>
				</g>
				<g class="st9">
					<polygon class="st5" points="24,331.5 112.5,333.1 110.4,400.5 21.9,398.9 					"/>
				</g>
				<g class="st10">
					<polygon class="st5" points="162.5,334.3 157,401.2 69.2,397 74.6,330.1 					"/>
				</g>
				<g class="st11">
					<polygon class="st5" points="187.4,377.8 202.7,439.6 121.4,451.2 106.2,389.3 					"/>
				</g>
				<g class="st12">
					<polygon class="st5" points="206.7,329.5 220.2,373.7 162.1,384 148.6,339.8 					"/>
				</g>
				<g class="st13">
					<polygon class="st5" points="258.4,341.7 245.4,396.8 173,386.9 186,331.8 					"/>
				</g>
				<g class="st14">
					<polygon class="st5" points="177.6,408.7 203.7,464.1 131,484 104.9,428.7 					"/>
				</g>
				<g class="st15">
					<polygon class="st5" points="133.5,410.1 139.7,471.8 58.6,476.6 52.4,414.8 					"/>
				</g>
				<g class="st16">
					<polygon class="st5" points="258.4,353.9 271.3,437.8 161,447.7 148.1,363.7 					"/>
				</g>
				<g class="st17">
					<polygon class="st5" points="289.3,383.9 372.8,426.6 316.8,490.2 233.2,447.5 					"/>
				</g>
				<g class="st18">
					<polygon class="st5" points="435.2,303.2 521.7,417.7 371.4,483.5 284.9,369 					"/>
				</g>
				<g class="st19">
					<polygon class="st5" points="461.9,307.1 507,363.9 432.4,398.2 387.3,341.4 					"/>
				</g>
				<g class="st20">
					<polygon class="st5" points="523.1,348.6 508.2,412.5 424.2,401.2 439.1,337.3 					"/>
				</g>
				<g class="st21">
					<polygon class="st5" points="545.3,404.3 501.9,460.1 428.6,427.1 472,371.3 					"/>
				</g>
				<g class="st22">
					<polygon class="st5" points="525.6,456.4 518.2,515 441.2,509.3 448.7,450.7 					"/>
				</g>
				<g class="st23">
					<polygon class="st5" points="582.6,421 582,479.9 504.7,479.4 505.3,420.6 					"/>
				</g>
				<g class="st24">
					<polygon class="st5" points="650.5,317.6 615.9,370.2 546.8,343.9 581.4,291.3 					"/>
				</g>
				<g class="st25">
					<polygon class="st5" points="585.5,143.6 612,200.3 537.5,220.5 511,163.8 					"/>
				</g>
				<g class="st26">
					<polygon class="st5" points="587.9,80.5 592.6,147.9 504.1,151.5 499.3,84.1 					"/>
				</g>
				<g class="st27">
					<polygon class="st5" points="564.4,65.2 513.9,160.2 389.2,121.8 439.6,26.9 					"/>
				</g>
				<g class="st28">
					<polygon class="st5" points="592.2,179.9 508,284.4 370.7,220.3 455,115.8 					"/>
				</g>
				<g class="st29">
					<polygon class="st5" points="593.2,251.2 570.1,307.4 496.3,289.8 519.4,233.6 					"/>
				</g>
				<g class="st30">
					<polygon class="st5" points="546.4,261.1 559.8,319 483.6,329.2 470.2,271.3 					"/>
				</g>
				<g class="st31">
					<polygon class="st5" points="472.2,222 457.1,276.4 385.6,264.8 400.8,210.4 					"/>
				</g>
				<g class="st32">
					<polygon class="st5" points="460.5,114.6 483.6,230.5 331.2,248.1 308.2,132.2 					"/>
				</g>
				<g class="st33">
					<polygon class="st5" points="286.8,277.1 335.7,283.9 326.8,321.1 277.9,314.3 					"/>
				</g>
				<g class="st34">
					<polygon class="st5" points="326.9,304.9 321.2,348.1 264.5,343.8 270.2,300.6 					"/>
				</g>
				<g class="st35">
					<polygon class="st5" points="430.5,266.1 452.6,322.5 378.5,339.3 356.4,282.9 					"/>
				</g>
				<g class="st36">
					<polygon class="st5" points="393.9,268.7 483.6,406.9 302.1,475.2 212.4,337 					"/>
				</g>
				<g class="st37">
					<polygon class="st5" points="246.8,242 295.5,234.9 304.8,272 256.1,279.1 					"/>
				</g>
				<g class="st38">
					<polygon class="st5" points="287.1,60 296.4,120.6 216.7,127.7 207.4,67.1 					"/>
				</g>
				<g class="st39">
					<polygon class="st5" points="152,152.7 107.7,195.8 51.1,162 95.4,118.9 					"/>
				</g>
				<g class="st40">
					<polygon class="st5" points="44.5,241.4 61.4,306.5 -24,319.4 -41,254.3 					"/>
				</g>
				<g class="st41">
					
						<rect x="-34.4" y="181.1" transform="matrix(4.490548e-11 -1 1 4.490548e-11 -229.0745 246.6179)" class="st5" width="86.4" height="113.4"/>
				</g>
				<g class="st42">
					
						<rect x="-54.2" y="163.3" transform="matrix(4.490459e-11 -1 1 4.490459e-11 -229.1122 194.8989)" class="st5" width="74.2" height="97.4"/>
				</g>
				<g class="st43">
					<polygon class="st5" points="7.5,310.1 24.8,363.5 -45.4,376.7 -62.7,323.2 					"/>
				</g>
				<g class="st44">
					<polygon class="st5" points="145.3,184.9 129.6,286.6 -4,274.7 11.7,173 					"/>
				</g>
				<g class="st45">
					<polygon class="st5" points="193.2,239.6 145.6,258.4 120.9,222.1 168.5,203.4 					"/>
				</g>
				<g class="st46">
					<polygon class="st5" points="253.3,186.7 262,233.6 200.4,240.3 191.7,193.3 					"/>
				</g>
				<g class="st47">
					<polygon class="st5" points="271.2,101.3 279.4,159.8 202.6,166 194.4,107.5 					"/>
				</g>
				<g class="st48">
					<polygon class="st5" points="140.2,277.6 128.2,328.6 61.2,319.5 73.2,268.5 					"/>
				</g>
				<g class="st49">
					
						<rect x="-15.2" y="141.2" transform="matrix(4.492235e-11 -1 1 4.492235e-11 -171.6382 238.4464)" class="st5" width="97.2" height="127.7"/>
				</g>
				<g class="st50">
					
						<rect x="-30.4" y="93.6" transform="matrix(4.490548e-11 -1 1 4.490548e-11 -130.7513 113.1262)" class="st5" width="43.2" height="56.7"/>
				</g>
				<g class="st51">
					<polygon class="st5" points="211.8,132.5 204.6,185.6 134.9,180.1 142,127 					"/>
				</g>
				<g class="st52">
					<polygon class="st5" points="365.9,60.4 383.2,147.4 268.9,160.5 251.6,73.5 					"/>
				</g>
				<g class="st53">
					<polygon class="st5" points="472.8,69 469.8,170.7 336.2,168.4 339.3,66.7 					"/>
				</g>
				<g class="st54">
					<polygon class="st5" points="318.6,162 336.2,199 287.7,212.4 270.1,175.5 					"/>
				</g>
				<g class="st55">
					<polygon class="st5" points="200.2,278.6 158.9,332.7 87.8,301.2 129.1,247.1 					"/>
				</g>
				<g class="st56">
					<polygon class="st5" points="253.2,303 252.4,328.2 219.2,327.6 220,302.4 					"/>
				</g>
				<g class="st57">
					<polygon class="st5" points="270.7,254.1 315.9,249.1 322.6,283.5 277.4,288.5 					"/>
				</g>
				<g class="st58">
					<polygon class="st5" points="272.5,197.2 320.1,218.4 292.3,254.6 244.7,233.5 					"/>
				</g>
				<g class="st59">
					<polygon class="st5" points="230.3,280.7 237.8,315 192.8,320.8 185.3,286.5 					"/>
				</g>
				<g class="st60">
					<polygon class="st5" points="255.8,231 250.2,290 172.7,285.8 178.2,226.7 					"/>
				</g>
			</g>
			<g>
				<g class="st61">
					<polygon class="st5" points="-5.1,307.2 2,347.6 -51.1,353 -58.2,312.6 					"/>
				</g>
				<g class="st62">
					<polygon class="st5" points="27.6,395.7 61.9,453.4 -13.9,479.6 -48.3,421.8 					"/>
				</g>
				<g class="st63">
					<polygon class="st5" points="124.8,470.9 157.3,503.2 114.9,527.9 82.4,495.6 					"/>
				</g>
				<g class="st64">
					<polygon class="st5" points="351.8,394.9 250,393.2 252.2,315.6 354.1,317.3 					"/>
				</g>
				<g class="st65">
					<polygon class="st5" points="386.9,319.7 408.6,369.8 342.8,386.3 321.1,336.2 					"/>
				</g>
				<g class="st66">
					<polygon class="st5" points="463.4,446.9 404.7,470.8 373.2,426.1 431.9,402.2 					"/>
				</g>
				<g class="st67">
					<polygon class="st5" points="317.7,440.1 376.5,478.3 326.3,523.1 267.5,484.9 					"/>
				</g>
				<g class="st68">
					<polygon class="st5" points="295.5,432.6 272.6,489.4 198,472 220.9,415.2 					"/>
				</g>
				<g class="st69">
					<polygon class="st5" points="244.4,336.7 106.1,300.7 153.4,195.4 291.7,231.4 					"/>
				</g>
				<g class="st70">
					<polygon class="st5" points="326,349.7 224.3,325.9 255.7,248.4 357.4,272.3 					"/>
				</g>
				<g class="st47">
					<polygon class="st5" points="70.2,429.1 167.5,410.5 192,484.6 94.7,503.2 					"/>
				</g>
				<g class="st71">
					<polygon class="st5" points="182.9,307.1 129.6,301.1 137.4,260.6 190.7,266.5 					"/>
				</g>
				<g class="st72">
					<polygon class="st5" points="382,380.4 337.8,423.3 281.5,389.7 325.6,346.8 					"/>
				</g>
				<g class="st73">
					<polygon class="st5" points="536.8,420.2 475.3,465.7 415.6,418.9 477,373.4 					"/>
				</g>
				<g class="st74">
					<polygon class="st5" points="611.1,316.7 586.9,356.1 535.1,337.7 559.3,298.2 					"/>
				</g>
				<g class="st75">
					<polygon class="st5" points="617.5,198.3 586.9,236.8 536.3,213.5 566.9,175 					"/>
				</g>
				<g class="st76">
					<polygon class="st5" points="429.6,106 361.1,126.3 334.4,74.1 402.9,53.8 					"/>
				</g>
				<g class="st77">
					<polygon class="st5" points="215.4,189.9 164.1,227.5 114.7,188.5 165.9,150.9 					"/>
				</g>
				<g class="st78">
					<polygon class="st5" points="155,128.2 112,184.7 37.8,151.9 80.9,95.5 					"/>
				</g>
				<g class="st79">
					<polygon class="st5" points="98.7,179.8 44.3,215.3 -2.4,173.8 52,138.3 					"/>
				</g>
				<g class="st80">
					<polygon class="st5" points="376.7,228.4 478.6,276.9 414.8,354.5 312.9,305.9 					"/>
				</g>
				<g class="st81">
					<polygon class="st5" points="471.6,119.7 484.3,184.8 398.7,194.5 386,129.4 					"/>
				</g>
				<g class="st82">
					<polygon class="st5" points="554.7,340.9 446.8,339 449.3,256.9 557.2,258.8 					"/>
				</g>
				<g class="st83">
					<polygon class="st5" points="539.7,286.6 451.1,282.1 456.9,214.7 545.5,219.1 					"/>
				</g>
				<g class="st84">
					<polygon class="st5" points="575.4,169.4 553.9,219 488.8,202.6 510.4,153 					"/>
				</g>
				<g class="st85">
					<polygon class="st5" points="419.5,155.7 407.9,198.6 351.6,189.7 363.2,146.9 					"/>
				</g>
				<g class="st86">
					<polygon class="st5" points="295.4,254.5 220.6,266.9 204.2,210 279.1,197.5 					"/>
				</g>
				<g class="st87">
					<polygon class="st5" points="382.3,148.6 349,234.1 236.6,208.9 269.9,123.3 					"/>
				</g>
				<g class="st88">
					<polygon class="st5" points="352.1,140.5 283.2,208.3 194.1,155.8 263.1,88 					"/>
				</g>
				<g class="st89">
					<polygon class="st5" points="369.1,104.6 285.7,178 189.3,114.5 272.7,41.1 					"/>
				</g>
				<g class="st90">
					<polygon class="st5" points="267.8,121.4 143.2,190.6 52.3,95.8 176.9,26.5 					"/>
				</g>
				<g class="st91">
					<polygon class="st5" points="18.6,177.2 -23,226.8 -88.1,195.1 -46.6,145.5 					"/>
				</g>
				<g class="st92">
					<polygon class="st5" points="119.4,154.4 48,197.6 -8.6,143.2 62.7,100.1 					"/>
				</g>
				<g class="st93">
					<polygon class="st5" points="298.5,42.1 233.4,86.7 174.8,37.2 239.8,-7.4 					"/>
				</g>
				<g class="st94">
					<polygon class="st5" points="464.8,111.1 415.5,144.3 371.9,106.8 421.2,73.6 					"/>
				</g>
				<g class="st95">
					<polygon class="st5" points="571,98 519.3,126.1 482.4,86.8 534,58.7 					"/>
				</g>
				<g class="st96">
					<polygon class="st5" points="661,132.9 623,159.8 587.8,130.8 625.8,104 					"/>
				</g>
				<g class="st97">
					<polygon class="st5" points="586.4,162 531.5,182.9 504.1,141.1 559,120.2 					"/>
				</g>
				<g class="st98">
					<polygon class="st5" points="490.2,363.3 441.4,435.2 346.9,398.1 395.7,326.1 					"/>
				</g>
				<g class="st99">
					<polygon class="st5" points="388.6,249.6 407.3,308.6 329.9,322.8 311.2,263.8 					"/>
				</g>
				<g class="st100">
					<polygon class="st5" points="408.9,210 435.7,267.4 360.3,287.9 333.5,230.5 					"/>
				</g>
				<g class="st101">
					<polygon class="st5" points="386.9,215.7 374.8,265.6 309.3,256.3 321.4,206.5 					"/>
				</g>
				<g class="st102">
					<polygon class="st5" points="460.8,167.1 515,222.5 442.3,263.7 388.1,208.4 					"/>
				</g>
				<g class="st103">
					<polygon class="st5" points="494.3,115.5 544.2,191.7 444.1,229.7 394.2,153.5 					"/>
				</g>
				<g class="st104">
					<polygon class="st5" points="156.3,348.2 268.1,396.4 204.8,481.4 93.1,433.3 					"/>
				</g>
				<g class="st105">
					<polygon class="st5" points="37.9,237.1 38.6,297.5 -40.8,298.1 -41.5,237.7 					"/>
				</g>
				<g class="st106">
					<polygon class="st5" points="-13.3,362.9 -6.9,397.3 -52.1,402.2 -58.5,367.8 					"/>
				</g>
				<g class="st49">
					<polygon class="st5" points="-15.2,382.1 100.2,366.8 120.3,454.7 4.9,470 					"/>
				</g>
				<g class="st107">
					<polygon class="st5" points="204.8,307.6 161.7,400.5 39.6,367.7 82.7,274.8 					"/>
				</g>
				<g class="st108">
					<polygon class="st5" points="155.1,247.7 152.5,344.8 24.9,342.8 27.5,245.7 					"/>
				</g>
				<g class="st109">
					<polygon class="st5" points="-9,299.9 108.3,320.7 81,410 -36.3,389.2 					"/>
				</g>
				<g class="st110">
					<polygon class="st5" points="26.4,262 106.4,322.3 27.2,383.2 -52.8,322.9 					"/>
				</g>
				<g class="st111">
					<polygon class="st5" points="157.4,168.1 122.4,217.3 57.7,190.6 92.7,141.4 					"/>
				</g>
				<g class="st112">
					<polygon class="st5" points="218.4,232 155.5,241.4 143.3,193.5 206.2,184.1 					"/>
				</g>
				<g class="st113">
					<polygon class="st5" points="255,232.1 168.4,237.3 161.5,171.4 248.1,166.2 					"/>
				</g>
				<g class="st114">
					<polygon class="st5" points="200.3,254.7 129.2,267.8 112.1,213.6 183.2,200.6 					"/>
				</g>
			</g>
		</g>
	</g>
	<g>
		<defs>
			<polygon id="SVGID_8_" points="0,255.6 219.8,434.2 219.8,353 382.9,353 382.9,255.6 382.9,158.2 219.8,158.2 219.8,77 			"/>
		</defs>
		<clipPath id="SVGID_9_">
			<use xlink:href="#SVGID_8_"  style="overflow:visible;"/>
		</clipPath>
		<g class="st116">
			<g>
				<g>
					
						<rect x="-14.3" y="636" transform="matrix(4.492057e-11 -1 1 4.492057e-11 -659.5463 689.7338)" class="st5" width="58.8" height="77.3"/>
				</g>
				<g class="st4">
					<polygon class="st5" points="-8.1,403.9 -5,433.8 -44.3,436.2 -47.4,406.3 					"/>
				</g>
				<g class="st6">
					<polygon class="st5" points="-15.1,385.8 -11.4,417.6 -53.1,420.4 -56.8,388.7 					"/>
				</g>
				<g class="st7">
					<polygon class="st5" points="-1.2,358.9 20.8,388.5 -18.1,405.2 -40.1,375.6 					"/>
				</g>
				<g class="st8">
					<polygon class="st5" points="24.9,383.4 64.9,406.3 34.8,436.8 -5.2,413.9 					"/>
				</g>
				<g class="st9">
					<polygon class="st5" points="24,331.5 112.5,333.1 110.4,400.5 21.9,398.9 					"/>
				</g>
				<g class="st10">
					<polygon class="st5" points="162.5,334.3 157,401.2 69.2,397 74.6,330.1 					"/>
				</g>
				<g class="st11">
					<polygon class="st5" points="187.4,377.8 202.7,439.6 121.4,451.2 106.2,389.3 					"/>
				</g>
				<g class="st12">
					<polygon class="st5" points="206.7,329.5 220.2,373.7 162.1,384 148.6,339.8 					"/>
				</g>
				<g class="st13">
					<polygon class="st5" points="258.4,341.7 245.4,396.8 173,386.9 186,331.8 					"/>
				</g>
				<g class="st14">
					<polygon class="st5" points="177.6,408.7 203.7,464.1 131,484 104.9,428.7 					"/>
				</g>
				<g class="st15">
					<polygon class="st5" points="133.5,410.1 139.7,471.8 58.6,476.6 52.4,414.8 					"/>
				</g>
				<g class="st16">
					<polygon class="st5" points="258.4,353.9 271.3,437.8 161,447.7 148.1,363.7 					"/>
				</g>
				<g class="st17">
					<polygon class="st5" points="289.3,383.9 372.8,426.6 316.8,490.2 233.2,447.5 					"/>
				</g>
				<g class="st18">
					<polygon class="st5" points="435.2,303.2 521.7,417.7 371.4,483.5 284.9,369 					"/>
				</g>
				<g class="st19">
					<polygon class="st5" points="461.9,307.1 507,363.9 432.4,398.2 387.3,341.4 					"/>
				</g>
				<g class="st20">
					<polygon class="st5" points="523.1,348.6 508.2,412.5 424.2,401.2 439.1,337.3 					"/>
				</g>
				<g class="st21">
					<polygon class="st5" points="545.3,404.3 501.9,460.1 428.6,427.1 472,371.3 					"/>
				</g>
				<g class="st22">
					<polygon class="st5" points="525.6,456.4 518.2,515 441.2,509.3 448.7,450.7 					"/>
				</g>
				<g class="st23">
					<polygon class="st5" points="582.6,421 582,479.9 504.7,479.4 505.3,420.6 					"/>
				</g>
				<g class="st24">
					<polygon class="st5" points="650.5,317.6 615.9,370.2 546.8,343.9 581.4,291.3 					"/>
				</g>
				<g class="st25">
					<polygon class="st5" points="585.5,143.6 612,200.3 537.5,220.5 511,163.8 					"/>
				</g>
				<g class="st26">
					<polygon class="st5" points="587.9,80.5 592.6,147.9 504.1,151.5 499.3,84.1 					"/>
				</g>
				<g class="st27">
					<polygon class="st5" points="564.4,65.2 513.9,160.2 389.2,121.8 439.6,26.9 					"/>
				</g>
				<g class="st28">
					<polygon class="st5" points="592.2,179.9 508,284.4 370.7,220.3 455,115.8 					"/>
				</g>
				<g class="st29">
					<polygon class="st5" points="593.2,251.2 570.1,307.4 496.3,289.8 519.4,233.6 					"/>
				</g>
				<g class="st30">
					<polygon class="st5" points="546.4,261.1 559.8,319 483.6,329.2 470.2,271.3 					"/>
				</g>
				<g class="st31">
					<polygon class="st5" points="472.2,222 457.1,276.4 385.6,264.8 400.8,210.4 					"/>
				</g>
				<g class="st32">
					<polygon class="st5" points="460.5,114.6 483.6,230.5 331.2,248.1 308.2,132.2 					"/>
				</g>
				<g class="st33">
					<polygon class="st5" points="286.8,277.1 335.7,283.9 326.8,321.1 277.9,314.3 					"/>
				</g>
				<g class="st34">
					<polygon class="st5" points="326.9,304.9 321.2,348.1 264.5,343.8 270.2,300.6 					"/>
				</g>
				<g class="st35">
					<polygon class="st5" points="430.5,266.1 452.6,322.5 378.5,339.3 356.4,282.9 					"/>
				</g>
				<g class="st36">
					<polygon class="st5" points="393.9,268.7 483.6,406.9 302.1,475.2 212.4,337 					"/>
				</g>
				<g class="st37">
					<polygon class="st5" points="246.8,242 295.5,234.9 304.8,272 256.1,279.1 					"/>
				</g>
				<g class="st38">
					<polygon class="st5" points="287.1,60 296.4,120.6 216.7,127.7 207.4,67.1 					"/>
				</g>
				<g class="st39">
					<polygon class="st5" points="152,152.7 107.7,195.8 51.1,162 95.4,118.9 					"/>
				</g>
				<g class="st40">
					<polygon class="st5" points="44.5,241.4 61.4,306.5 -24,319.4 -41,254.3 					"/>
				</g>
				<g class="st41">
					
						<rect x="-34.4" y="181.1" transform="matrix(4.490548e-11 -1 1 4.490548e-11 -229.0745 246.6179)" class="st5" width="86.4" height="113.4"/>
				</g>
				<g class="st42">
					
						<rect x="-54.2" y="163.3" transform="matrix(4.490459e-11 -1 1 4.490459e-11 -229.1122 194.8989)" class="st5" width="74.2" height="97.4"/>
				</g>
				<g class="st43">
					<polygon class="st5" points="7.5,310.1 24.8,363.5 -45.4,376.7 -62.7,323.2 					"/>
				</g>
				<g class="st44">
					<polygon class="st5" points="145.3,184.9 129.6,286.6 -4,274.7 11.7,173 					"/>
				</g>
				<g class="st45">
					<polygon class="st5" points="193.2,239.6 145.6,258.4 120.9,222.1 168.5,203.4 					"/>
				</g>
				<g class="st46">
					<polygon class="st5" points="253.3,186.7 262,233.6 200.4,240.3 191.7,193.3 					"/>
				</g>
				<g class="st47">
					<polygon class="st5" points="271.2,101.3 279.4,159.8 202.6,166 194.4,107.5 					"/>
				</g>
				<g class="st48">
					<polygon class="st5" points="140.2,277.6 128.2,328.6 61.2,319.5 73.2,268.5 					"/>
				</g>
				<g class="st49">
					
						<rect x="-15.2" y="141.2" transform="matrix(4.492235e-11 -1 1 4.492235e-11 -171.6382 238.4464)" class="st5" width="97.2" height="127.7"/>
				</g>
				<g class="st50">
					
						<rect x="-30.4" y="93.6" transform="matrix(4.490548e-11 -1 1 4.490548e-11 -130.7513 113.1262)" class="st5" width="43.2" height="56.7"/>
				</g>
				<g class="st51">
					<polygon class="st5" points="211.8,132.5 204.6,185.6 134.9,180.1 142,127 					"/>
				</g>
				<g class="st52">
					<polygon class="st5" points="365.9,60.4 383.2,147.4 268.9,160.5 251.6,73.5 					"/>
				</g>
				<g class="st53">
					<polygon class="st5" points="472.8,69 469.8,170.7 336.2,168.4 339.3,66.7 					"/>
				</g>
				<g class="st54">
					<polygon class="st5" points="318.6,162 336.2,199 287.7,212.4 270.1,175.5 					"/>
				</g>
				<g class="st55">
					<polygon class="st5" points="200.2,278.6 158.9,332.7 87.8,301.2 129.1,247.1 					"/>
				</g>
				<g class="st56">
					<polygon class="st5" points="253.2,303 252.4,328.2 219.2,327.6 220,302.4 					"/>
				</g>
				<g class="st57">
					<polygon class="st5" points="270.7,254.1 315.9,249.1 322.6,283.5 277.4,288.5 					"/>
				</g>
				<g class="st58">
					<polygon class="st5" points="272.5,197.2 320.1,218.4 292.3,254.6 244.7,233.5 					"/>
				</g>
				<g class="st59">
					<polygon class="st5" points="230.3,280.7 237.8,315 192.8,320.8 185.3,286.5 					"/>
				</g>
				<g class="st60">
					<polygon class="st5" points="255.8,231 250.2,290 172.7,285.8 178.2,226.7 					"/>
				</g>
			</g>
			<g>
				<g class="st61">
					<polygon class="st5" points="-5.1,307.2 2,347.6 -51.1,353 -58.2,312.6 					"/>
				</g>
				<g class="st62">
					<polygon class="st5" points="27.6,395.7 61.9,453.4 -13.9,479.6 -48.3,421.8 					"/>
				</g>
				<g class="st63">
					<polygon class="st5" points="124.8,470.9 157.3,503.2 114.9,527.9 82.4,495.6 					"/>
				</g>
				<g class="st64">
					<polygon class="st5" points="351.8,394.9 250,393.2 252.2,315.6 354.1,317.3 					"/>
				</g>
				<g class="st65">
					<polygon class="st5" points="386.9,319.7 408.6,369.8 342.8,386.3 321.1,336.2 					"/>
				</g>
				<g class="st66">
					<polygon class="st5" points="463.4,446.9 404.7,470.8 373.2,426.1 431.9,402.2 					"/>
				</g>
				<g class="st67">
					<polygon class="st5" points="317.7,440.1 376.5,478.3 326.3,523.1 267.5,484.9 					"/>
				</g>
				<g class="st68">
					<polygon class="st5" points="295.5,432.6 272.6,489.4 198,472 220.9,415.2 					"/>
				</g>
				<g class="st69">
					<polygon class="st5" points="244.4,336.7 106.1,300.7 153.4,195.4 291.7,231.4 					"/>
				</g>
				<g class="st70">
					<polygon class="st5" points="326,349.7 224.3,325.9 255.7,248.4 357.4,272.3 					"/>
				</g>
				<g class="st47">
					<polygon class="st5" points="70.2,429.1 167.5,410.5 192,484.6 94.7,503.2 					"/>
				</g>
				<g class="st71">
					<polygon class="st5" points="182.9,307.1 129.6,301.1 137.4,260.6 190.7,266.5 					"/>
				</g>
				<g class="st72">
					<polygon class="st5" points="382,380.4 337.8,423.3 281.5,389.7 325.6,346.8 					"/>
				</g>
				<g class="st73">
					<polygon class="st5" points="536.8,420.2 475.3,465.7 415.6,418.9 477,373.4 					"/>
				</g>
				<g class="st74">
					<polygon class="st5" points="611.1,316.7 586.9,356.1 535.1,337.7 559.3,298.2 					"/>
				</g>
				<g class="st75">
					<polygon class="st5" points="617.5,198.3 586.9,236.8 536.3,213.5 566.9,175 					"/>
				</g>
				<g class="st76">
					<polygon class="st5" points="429.6,106 361.1,126.3 334.4,74.1 402.9,53.8 					"/>
				</g>
				<g class="st77">
					<polygon class="st5" points="215.4,189.9 164.1,227.5 114.7,188.5 165.9,150.9 					"/>
				</g>
				<g class="st78">
					<polygon class="st5" points="155,128.2 112,184.7 37.8,151.9 80.9,95.5 					"/>
				</g>
				<g class="st79">
					<polygon class="st5" points="98.7,179.8 44.3,215.3 -2.4,173.8 52,138.3 					"/>
				</g>
				<g class="st80">
					<polygon class="st5" points="376.7,228.4 478.6,276.9 414.8,354.5 312.9,305.9 					"/>
				</g>
				<g class="st81">
					<polygon class="st5" points="471.6,119.7 484.3,184.8 398.7,194.5 386,129.4 					"/>
				</g>
				<g class="st82">
					<polygon class="st5" points="554.7,340.9 446.8,339 449.3,256.9 557.2,258.8 					"/>
				</g>
				<g class="st83">
					<polygon class="st5" points="539.7,286.6 451.1,282.1 456.9,214.7 545.5,219.1 					"/>
				</g>
				<g class="st84">
					<polygon class="st5" points="575.4,169.4 553.9,219 488.8,202.6 510.4,153 					"/>
				</g>
				<g class="st85">
					<polygon class="st5" points="419.5,155.7 407.9,198.6 351.6,189.7 363.2,146.9 					"/>
				</g>
				<g class="st86">
					<polygon class="st5" points="295.4,254.5 220.6,266.9 204.2,210 279.1,197.5 					"/>
				</g>
				<g class="st87">
					<polygon class="st5" points="382.3,148.6 349,234.1 236.6,208.9 269.9,123.3 					"/>
				</g>
				<g class="st88">
					<polygon class="st5" points="352.1,140.5 283.2,208.3 194.1,155.8 263.1,88 					"/>
				</g>
				<g class="st89">
					<polygon class="st5" points="369.1,104.6 285.7,178 189.3,114.5 272.7,41.1 					"/>
				</g>
				<g class="st90">
					<polygon class="st5" points="267.8,121.4 143.2,190.6 52.3,95.8 176.9,26.5 					"/>
				</g>
				<g class="st91">
					<polygon class="st5" points="18.6,177.2 -23,226.8 -88.1,195.1 -46.6,145.5 					"/>
				</g>
				<g class="st92">
					<polygon class="st5" points="119.4,154.4 48,197.6 -8.6,143.2 62.7,100.1 					"/>
				</g>
				<g class="st93">
					<polygon class="st5" points="298.5,42.1 233.4,86.7 174.8,37.2 239.8,-7.4 					"/>
				</g>
				<g class="st94">
					<polygon class="st5" points="464.8,111.1 415.5,144.3 371.9,106.8 421.2,73.6 					"/>
				</g>
				<g class="st95">
					<polygon class="st5" points="571,98 519.3,126.1 482.4,86.8 534,58.7 					"/>
				</g>
				<g class="st96">
					<polygon class="st5" points="661,132.9 623,159.8 587.8,130.8 625.8,104 					"/>
				</g>
				<g class="st97">
					<polygon class="st5" points="586.4,162 531.5,182.9 504.1,141.1 559,120.2 					"/>
				</g>
				<g class="st98">
					<polygon class="st5" points="490.2,363.3 441.4,435.2 346.9,398.1 395.7,326.1 					"/>
				</g>
				<g class="st99">
					<polygon class="st5" points="388.6,249.6 407.3,308.6 329.9,322.8 311.2,263.8 					"/>
				</g>
				<g class="st100">
					<polygon class="st5" points="408.9,210 435.7,267.4 360.3,287.9 333.5,230.5 					"/>
				</g>
				<g class="st101">
					<polygon class="st5" points="386.9,215.7 374.8,265.6 309.3,256.3 321.4,206.5 					"/>
				</g>
				<g class="st102">
					<polygon class="st5" points="460.8,167.1 515,222.5 442.3,263.7 388.1,208.4 					"/>
				</g>
				<g class="st103">
					<polygon class="st5" points="494.3,115.5 544.2,191.7 444.1,229.7 394.2,153.5 					"/>
				</g>
				<g class="st104">
					<polygon class="st5" points="156.3,348.2 268.1,396.4 204.8,481.4 93.1,433.3 					"/>
				</g>
				<g class="st105">
					<polygon class="st5" points="37.9,237.1 38.6,297.5 -40.8,298.1 -41.5,237.7 					"/>
				</g>
				<g class="st106">
					<polygon class="st5" points="-13.3,362.9 -6.9,397.3 -52.1,402.2 -58.5,367.8 					"/>
				</g>
				<g class="st49">
					<polygon class="st5" points="-15.2,382.1 100.2,366.8 120.3,454.7 4.9,470 					"/>
				</g>
				<g class="st107">
					<polygon class="st5" points="204.8,307.6 161.7,400.5 39.6,367.7 82.7,274.8 					"/>
				</g>
				<g class="st108">
					<polygon class="st5" points="155.1,247.7 152.5,344.8 24.9,342.8 27.5,245.7 					"/>
				</g>
				<g class="st109">
					<polygon class="st5" points="-9,299.9 108.3,320.7 81,410 -36.3,389.2 					"/>
				</g>
				<g class="st110">
					<polygon class="st5" points="26.4,262 106.4,322.3 27.2,383.2 -52.8,322.9 					"/>
				</g>
				<g class="st111">
					<polygon class="st5" points="157.4,168.1 122.4,217.3 57.7,190.6 92.7,141.4 					"/>
				</g>
				<g class="st112">
					<polygon class="st5" points="218.4,232 155.5,241.4 143.3,193.5 206.2,184.1 					"/>
				</g>
				<g class="st113">
					<polygon class="st5" points="255,232.1 168.4,237.3 161.5,171.4 248.1,166.2 					"/>
				</g>
				<g class="st114">
					<polygon class="st5" points="200.3,254.7 129.2,267.8 112.1,213.6 183.2,200.6 					"/>
				</g>
			</g>
		</g>
	</g>
</g>
</svg>
