<?xml version="1.0" encoding="utf-8"?>
<!-- Generator: Adobe Illustrator 23.0.5, SVG Export Plug-In . SVG Version: 6.00 Build 0)  -->
<svg version="1.1" id="Calque_1" xmlns="http://www.w3.org/2000/svg" xmlns:xlink="http://www.w3.org/1999/xlink" x="0px" y="0px"
	 viewBox="0 0 400 200" style="enable-background:new 0 0 400 200;" xml:space="preserve">
<style type="text/css">
	.st0{clip-path:url(#SVGID_2_);}
	.st1{fill-rule:evenodd;clip-rule:evenodd;}
	.st2{fill:#FFFFFF;}
	.st3{clip-path:url(#SVGID_4_);}
</style>
<g>
	<g>
		<g>
			<g>
				<path d="M100.16,84.14c0.7-0.01,1.41-0.31,2.11-0.9c0.7-0.58,1.3-1.28,1.79-2.09c0.49-0.81,0.88-1.64,1.19-2.49
					c0.31-0.85,0.46-1.57,0.46-2.16c0-0.69-0.21-1.03-0.63-1.03h-0.02c-1.14,0-2.48,1.34-4.02,4.02c-1.53,2.65-2.75,5.64-3.66,8.97
					c-0.52,1.9-0.79,3.41-0.79,4.52c0,1.12,0.28,1.69,0.83,1.69c0.58,0,1.15-0.24,1.7-0.72c0.55-0.48,1.01-1.06,1.38-1.74
					c0.37-0.68,0.7-1.37,0.99-2.06c0.28-0.69,0.49-1.27,0.63-1.75l0.2-0.72c1.14,0.05,1.71,0.57,1.71,1.57
					c0,0.6-0.21,1.29-0.62,2.07c-0.41,0.78-0.93,1.51-1.56,2.2c-0.63,0.69-1.36,1.27-2.19,1.75c-0.83,0.48-1.62,0.72-2.37,0.72
					h-0.02c-1.17-0.02-2.03-0.43-2.58-1.24c-0.55-0.81-0.83-1.91-0.83-3.3c0-1.03,0.15-2.19,0.45-3.46c0.3-1.27,0.71-2.54,1.23-3.79
					c0.52-1.25,1.13-2.48,1.84-3.68c0.71-1.2,1.46-2.25,2.26-3.16c0.79-0.91,1.64-1.64,2.53-2.2c0.89-0.56,1.76-0.84,2.6-0.84
					c1.92,0,2.97,1.04,3.15,3.12c0,0.08,0,0.16,0,0.27c0,0.52-0.06,1.2-0.18,2.02c-0.12,0.82-0.3,1.7-0.53,2.62
					c-0.23,0.92-0.56,1.72-0.98,2.39c-0.42,0.67-0.88,1.04-1.39,1.1c-0.3,0.03-0.6,0.05-0.9,0.05c-0.88,0-1.67-0.13-2.37-0.4
					C100.85,85.22,100.39,84.77,100.16,84.14z"/>
				<path d="M109.71,88.26c-0.21,0.73-0.31,1.39-0.31,1.96c0,1.05,0.34,1.57,1.03,1.57c0.36,0,0.72-0.09,1.09-0.27
					c0.37-0.18,0.68-0.39,0.94-0.62c0.26-0.23,0.53-0.53,0.81-0.9c0.28-0.37,0.48-0.66,0.61-0.87c0.13-0.21,0.28-0.47,0.46-0.79
					c0.3,0.17,0.45,0.46,0.45,0.88c0,0.27-0.08,0.54-0.22,0.81c-0.37,0.66-0.96,1.29-1.76,1.88c-0.8,0.59-1.69,0.89-2.66,0.89
					c-0.91,0-1.68-0.28-2.3-0.84c-0.62-0.56-0.93-1.31-0.93-2.24c0-0.45,0.09-0.93,0.27-1.44c0.6-1.77,1.42-3.21,2.45-4.34
					c1.03-1.12,2.24-1.69,3.62-1.69c0.85,0,1.44,0.16,1.76,0.48c0.32,0.32,0.48,0.75,0.48,1.27c0,0.64-0.21,1.38-0.62,2.21
					c-0.41,0.83-0.93,1.55-1.54,2.16c-0.61,0.61-1.18,0.91-1.69,0.91C110.97,89.29,110.33,88.95,109.71,88.26z M109.85,87.83
					c0.01,0,0.03,0,0.04,0c0.63,0,1.32-0.26,2.08-0.78c0.76-0.52,1.38-1.11,1.88-1.76c0.49-0.66,0.74-1.19,0.74-1.6
					c0-0.36-0.22-0.54-0.65-0.54h-0.02c-0.79,0.02-1.57,0.49-2.32,1.42C110.85,85.5,110.27,86.59,109.85,87.83z"/>
				<path d="M123.61,82.21c0.64,0,1.1,0.12,1.36,0.36c0.26,0.24,0.39,0.52,0.39,0.83c0,0.15-0.02,0.28-0.07,0.4
					c-0.15,0.33-0.39,0.84-0.72,1.54s-0.62,1.31-0.87,1.83c-0.25,0.52-0.5,1.08-0.75,1.66c-0.26,0.58-0.45,1.08-0.6,1.48
					c-0.14,0.4-0.21,0.7-0.21,0.88h0.02c0.05,0,0.15-0.05,0.31-0.15c0.16-0.1,0.31-0.2,0.45-0.3l0.2-0.16
					c0.07,0.06,0.07,0.26,0,0.61c-0.03,0.15-0.17,0.36-0.42,0.63c-0.25,0.27-0.48,0.49-0.71,0.67l-0.34,0.29
					c-0.46-0.03-0.87-0.25-1.23-0.65c-0.35-0.4-0.52-0.86-0.51-1.37c0.12-0.4,0.33-0.95,0.62-1.64c0.29-0.69,0.68-1.57,1.16-2.65
					c0.48-1.08,0.9-2.08,1.26-2.99c-0.34,0.45-0.77,1.03-1.28,1.73c-0.51,0.7-1.25,1.83-2.21,3.37c-0.97,1.54-1.57,2.71-1.81,3.51
					c-0.06,0-0.13,0-0.21-0.01c-0.08-0.01-0.24-0.05-0.46-0.12c-0.22-0.07-0.42-0.17-0.6-0.29c-0.17-0.12-0.33-0.3-0.46-0.55
					c-0.13-0.25-0.2-0.54-0.2-0.89c0-0.12,0.01-0.25,0.02-0.38c0.09-0.64,0.4-1.6,0.92-2.88c0.52-1.27,1.03-2.38,1.53-3.33
					l0.72-1.44c0.06,0,0.13,0.01,0.22,0.02c0.09,0.02,0.25,0.05,0.49,0.09c0.24,0.04,0.45,0.1,0.62,0.17
					c0.17,0.07,0.33,0.17,0.47,0.3c0.14,0.13,0.21,0.28,0.19,0.45c-0.24,0.34-0.64,1.16-1.21,2.45c-0.57,1.29-1.06,2.45-1.46,3.48
					c0.09-0.19,0.22-0.45,0.38-0.75c0.16-0.31,0.48-0.86,0.96-1.66c0.47-0.8,0.92-1.51,1.35-2.12c0.43-0.61,0.89-1.17,1.39-1.67
					C122.84,82.46,123.26,82.21,123.61,82.21z"/>
				<path d="M129.63,79.92c0.45,0,0.84,0.05,1.17,0.15c0.33,0.1,0.49,0.28,0.47,0.55c-0.11,0.21-0.23,0.48-0.38,0.82
					c-0.15,0.34-0.26,0.6-0.34,0.78l0.76-0.02h0.02c0.1,0,0.21,0.11,0.33,0.34c0.11,0.22,0.16,0.46,0.15,0.7h-1.71
					c-0.11,0.24-0.3,0.64-0.58,1.19c-1.42,2.86-2.24,4.87-2.45,6.02c-0.05,0.27-0.07,0.52-0.07,0.74h0.02
					c0.05,0,0.15-0.05,0.31-0.15c0.16-0.1,0.39-0.25,0.67-0.46c0.06,0.08,0.05,0.28-0.02,0.63c-0.03,0.15-0.17,0.36-0.42,0.63
					c-0.25,0.27-0.48,0.49-0.71,0.67l-0.34,0.29c-0.45-0.03-0.85-0.24-1.2-0.64c-0.35-0.4-0.53-0.84-0.53-1.34
					c0-0.6,0.19-1.4,0.58-2.42c0.39-1.01,1.13-2.73,2.23-5.16c-0.06,0-0.15,0-0.28,0c-0.13,0-0.24,0-0.35,0l-0.16-0.02
					c-0.15-0.04-0.26-0.13-0.31-0.25c-0.06-0.12-0.09-0.26-0.09-0.43c0-0.06,0.01-0.17,0.02-0.34h1.69c0.36-0.84,0.7-1.6,1.01-2.27
					C129.27,79.93,129.44,79.92,129.63,79.92z"/>
				<path d="M132.87,82.21c0.06,0.02,0.13,0.03,0.22,0.04c0.09,0.02,0.25,0.05,0.47,0.1c0.22,0.05,0.42,0.12,0.6,0.19
					c0.17,0.08,0.33,0.17,0.48,0.28c0.15,0.11,0.22,0.24,0.22,0.37c0,0.05-0.02,0.1-0.04,0.16c-1.11,2.4-2.02,4.47-2.74,6.2
					l1.57-2.63c1.99-3.12,3.39-4.68,4.2-4.7c0.63,0,1.08,0.12,1.34,0.37c0.26,0.25,0.39,0.53,0.39,0.84c0,0.15-0.02,0.29-0.07,0.43
					c-0.05,0.12-0.23,0.51-0.55,1.18c-0.32,0.67-0.63,1.31-0.93,1.93c-0.3,0.62-0.45,0.96-0.45,1.02h0.02
					c0.04,0,0.15-0.05,0.31-0.15c0.16-0.1,0.32-0.2,0.47-0.3l0.2-0.16c0.06,0.06,0.05,0.26-0.02,0.61
					c-0.03,0.15-0.17,0.36-0.42,0.63c-0.25,0.27-0.48,0.5-0.71,0.7l-0.34,0.29c-0.49-0.03-0.93-0.19-1.3-0.49
					c-0.37-0.3-0.56-0.68-0.56-1.15c0-0.1,0.04-0.27,0.11-0.49c0.07-0.22,0.17-0.47,0.28-0.74c0.11-0.27,0.24-0.56,0.37-0.87
					c0.13-0.31,0.27-0.6,0.42-0.89c0.14-0.28,0.27-0.54,0.38-0.78c0.11-0.23,0.24-0.49,0.39-0.78c-0.4,0.54-0.91,1.23-1.53,2.06
					c-0.61,0.83-1.47,2.09-2.56,3.77c-1.09,1.68-1.72,2.83-1.87,3.46c-0.06,0-0.14-0.01-0.24-0.02c-0.1-0.02-0.27-0.06-0.51-0.13
					c-0.24-0.08-0.45-0.16-0.64-0.26c-0.19-0.1-0.36-0.25-0.51-0.45c-0.15-0.2-0.22-0.43-0.22-0.69c0-0.22,0.05-0.46,0.16-0.72
					L132.87,82.21z"/>
				<path d="M144.99,82.69c0.37,0.28,0.62,0.55,0.75,0.82l0.2,0.43h-0.02c-0.57,0-1.12,0.23-1.66,0.69c-0.54,0.46-0.99,1-1.34,1.64
					c-0.35,0.64-0.64,1.28-0.85,1.92c-0.22,0.64-0.33,1.18-0.33,1.6c0,0.39,0.09,0.59,0.27,0.61c0.12-0.01,0.58-0.7,1.39-2.05
					c0.81-1.35,1.64-2.7,2.48-4.05c0.85-1.35,1.37-2.02,1.58-2.02c0.21,0,0.47,0.09,0.78,0.26c0.31,0.17,0.56,0.35,0.75,0.53
					l0.29,0.27c-0.48,0.96-0.82,1.63-1.01,2.02c-0.2,0.39-0.5,1.03-0.91,1.92c-0.41,0.89-0.7,1.63-0.88,2.23
					c-0.17,0.59-0.26,1.08-0.26,1.45c0,0.08,0,0.14,0,0.2c0,0.02,0.01,0.02,0.02,0.02c0.04,0,0.15-0.05,0.31-0.15
					c0.16-0.1,0.31-0.2,0.45-0.3l0.2-0.16c0.07,0.08,0.07,0.28,0,0.63c-0.03,0.15-0.17,0.36-0.42,0.63
					c-0.25,0.27-0.48,0.49-0.71,0.67l-0.34,0.29c-1.12,0-1.69-0.6-1.69-1.8c0-0.64,0.13-1.36,0.4-2.15
					c0.27-0.79,0.56-1.48,0.88-2.08c-1.99,3.55-3.06,5.33-3.21,5.33c-0.88,0-1.53-0.23-1.93-0.7c-0.4-0.46-0.61-1.09-0.61-1.89
					c0-0.93,0.24-1.97,0.72-3.14c0.48-1.16,1.05-2.14,1.7-2.92c0.65-0.79,1.23-1.18,1.72-1.18h0.02
					C144.22,82.28,144.63,82.42,144.99,82.69z"/>
				<path d="M154.2,77.22c0.06,0.02,0.13,0.03,0.22,0.04c0.09,0.02,0.25,0.06,0.48,0.13c0.23,0.08,0.43,0.16,0.61,0.25
					c0.17,0.09,0.33,0.21,0.47,0.35c0.14,0.14,0.21,0.3,0.19,0.46c-0.18,0.39-0.57,1.21-1.17,2.47c-3.07,6.4-4.61,9.91-4.61,10.52
					h0.02c0.1,0,0.43-0.2,0.99-0.61c0.07,0.08,0.07,0.28,0,0.63c-0.03,0.15-0.17,0.36-0.42,0.63c-0.25,0.27-0.49,0.49-0.73,0.67
					l-0.34,0.29c-0.46-0.03-0.87-0.25-1.23-0.65c-0.35-0.4-0.52-0.86-0.51-1.37c-0.01-0.75,0.67-2.64,2.06-5.66
					C151.64,82.35,152.96,79.63,154.2,77.22z"/>
				<path d="M156.4,88.26c-0.21,0.73-0.31,1.39-0.31,1.96c0,1.05,0.34,1.57,1.03,1.57c0.36,0,0.72-0.09,1.09-0.27
					c0.37-0.18,0.68-0.39,0.94-0.62c0.26-0.23,0.53-0.53,0.81-0.9c0.28-0.37,0.48-0.66,0.61-0.87c0.13-0.21,0.28-0.47,0.46-0.79
					c0.3,0.17,0.45,0.46,0.45,0.88c0,0.27-0.08,0.54-0.22,0.81c-0.37,0.66-0.96,1.29-1.76,1.88c-0.8,0.59-1.69,0.89-2.66,0.89
					c-0.91,0-1.68-0.28-2.3-0.84c-0.62-0.56-0.93-1.31-0.93-2.24c0-0.45,0.09-0.93,0.27-1.44c0.6-1.77,1.42-3.21,2.45-4.34
					c1.03-1.12,2.24-1.69,3.62-1.69c0.85,0,1.44,0.16,1.76,0.48c0.32,0.32,0.48,0.75,0.48,1.27c0,0.64-0.21,1.38-0.62,2.21
					c-0.41,0.83-0.93,1.55-1.54,2.16c-0.61,0.61-1.18,0.91-1.69,0.91C157.66,89.29,157.02,88.95,156.4,88.26z M156.54,87.83
					c0.01,0,0.03,0,0.04,0c0.63,0,1.32-0.26,2.08-0.78c0.76-0.52,1.38-1.11,1.88-1.76c0.49-0.66,0.74-1.19,0.74-1.6
					c0-0.36-0.22-0.54-0.65-0.54h-0.02c-0.79,0.02-1.57,0.49-2.32,1.42C157.54,85.5,156.96,86.59,156.54,87.83z"/>
			</g>
			<g>
				<path d="M181.71,74.37c1.32,0,1.98,0.73,1.98,2.2c0,0.78-0.19,1.77-0.57,2.97c-0.38,1.2-0.84,2.38-1.37,3.53
					c-0.53,1.15-1.06,2.25-1.6,3.29c-0.53,1.04-0.97,1.9-1.32,2.56c-0.34,0.67-0.49,1.02-0.45,1.07c0.61-0.79,1.77-2.38,3.46-4.77
					c1.69-2.38,3.11-4.29,4.25-5.72c1.14-1.43,1.88-2.15,2.23-2.15c0.07,0,0.18,0,0.3,0.01c0.13,0.01,0.35,0.03,0.67,0.08
					c0.32,0.04,0.61,0.1,0.85,0.18c0.25,0.08,0.47,0.2,0.67,0.37c0.2,0.17,0.3,0.38,0.3,0.62c-1.69,2.55-3.67,6.65-5.93,12.3
					c0.51-0.78,1.18-1.86,2.02-3.25c0.84-1.39,1.58-2.58,2.21-3.59c0.64-1,1.36-2.09,2.18-3.25c0.82-1.16,1.67-2.21,2.55-3.14
					c0.88-0.93,1.79-1.72,2.72-2.36c0.06,0,0.14,0,0.25,0.01c0.1,0.01,0.29,0.03,0.56,0.08c0.27,0.04,0.51,0.1,0.71,0.18
					c0.2,0.08,0.39,0.2,0.55,0.37c0.16,0.17,0.25,0.38,0.25,0.62c-0.05,0.09-0.3,0.57-0.76,1.43c-0.46,0.86-0.78,1.45-0.96,1.78
					c-0.17,0.32-0.49,0.93-0.94,1.83c-0.46,0.9-0.8,1.59-1.02,2.08c-0.22,0.49-0.52,1.15-0.9,2c-0.37,0.85-0.66,1.56-0.87,2.15
					c-0.2,0.58-0.41,1.23-0.63,1.93c-0.22,0.7-0.37,1.35-0.47,1.94c-0.1,0.59-0.15,1.14-0.15,1.65c0,1.21,0.3,2.12,0.9,2.72
					c-0.48,0.12-1.01,0.18-1.6,0.18c-1.59,0-2.58-0.51-2.99-1.53c-0.05-0.15-0.07-0.33-0.07-0.54c0-0.7,0.25-1.79,0.75-3.25
					c0.5-1.46,1.06-2.88,1.66-4.27c0.61-1.39,1.31-2.9,2.11-4.54c0.8-1.64,1.36-2.76,1.67-3.37c0.31-0.61,0.56-1.08,0.74-1.43
					c-0.28,0.37-0.66,0.87-1.14,1.49c-0.47,0.62-1.31,1.77-2.52,3.45s-2.27,3.22-3.2,4.63c-0.93,1.41-1.78,2.84-2.54,4.28
					c-0.76,1.45-1.15,2.49-1.17,3.14c0.01,0.21-0.39,0.31-1.21,0.31c-0.64,0-1.25-0.1-1.81-0.29c-0.56-0.2-0.88-0.49-0.96-0.88
					c0.06-0.82,0.57-2.33,1.53-4.51c0.96-2.18,1.9-4.15,2.83-5.92l1.39-2.65c-0.26,0.31-0.6,0.74-1.02,1.27
					c-0.43,0.53-1.2,1.53-2.33,2.99c-1.12,1.46-2.14,2.81-3.05,4.06c-0.91,1.24-1.78,2.54-2.63,3.89c-0.85,1.35-1.38,2.37-1.61,3.06
					c-0.05,0.33-0.35,0.49-0.92,0.49c-0.43,0-0.86-0.1-1.27-0.3c-0.41-0.2-0.62-0.44-0.62-0.71c0-2.55,1.59-6.73,4.77-12.54
					c0.33-0.61,0.82-1.49,1.46-2.63c1.35-2.43,2.04-3.81,2.07-4.14c0-0.09-0.04-0.13-0.11-0.13c-0.02,0-0.03,0-0.04,0
					c-0.66,0-1.41,0.23-2.24,0.7c-0.83,0.46-1.61,1.06-2.34,1.79c-0.73,0.73-1.34,1.6-1.83,2.63c-0.49,1.03-0.74,2.04-0.74,3.05
					c0,0.34,0.03,0.68,0.09,1.01c-0.18,0.02-0.4,0.02-0.65,0.02c-0.37,0-0.74-0.01-1.09-0.04c-0.35-0.03-0.74-0.09-1.16-0.17
					c-0.42-0.08-0.76-0.21-1.03-0.39c-0.27-0.18-0.41-0.4-0.43-0.67c0-0.06,0-0.12-0.01-0.18c-0.01-0.06-0.01-0.12-0.01-0.18
					c0-1.09,0.36-2.19,1.09-3.29c0.73-1.1,1.64-2.06,2.75-2.87c1.11-0.81,2.36-1.47,3.74-1.98
					C179.13,74.62,180.45,74.37,181.71,74.37z"/>
				<path d="M201.19,82.69c0.37,0.28,0.62,0.55,0.75,0.82l0.2,0.43h-0.02c-0.57,0-1.12,0.23-1.66,0.69c-0.54,0.46-0.99,1-1.34,1.64
					c-0.35,0.64-0.64,1.28-0.85,1.92c-0.22,0.64-0.33,1.18-0.33,1.6c0,0.39,0.09,0.59,0.27,0.61c0.12-0.01,0.58-0.7,1.39-2.05
					c0.81-1.35,1.64-2.7,2.48-4.05c0.85-1.35,1.37-2.02,1.58-2.02c0.21,0,0.47,0.09,0.78,0.26c0.31,0.17,0.56,0.35,0.75,0.53
					l0.29,0.27c-0.48,0.96-0.82,1.63-1.01,2.02c-0.2,0.39-0.5,1.03-0.91,1.92c-0.41,0.89-0.7,1.63-0.88,2.23
					c-0.17,0.59-0.26,1.08-0.26,1.45c0,0.08,0,0.14,0,0.2c0,0.02,0.01,0.02,0.02,0.02c0.04,0,0.15-0.05,0.31-0.15
					c0.16-0.1,0.31-0.2,0.45-0.3l0.2-0.16c0.07,0.08,0.07,0.28,0,0.63c-0.03,0.15-0.17,0.36-0.42,0.63
					c-0.25,0.27-0.48,0.49-0.71,0.67l-0.34,0.29c-1.12,0-1.69-0.6-1.69-1.8c0-0.64,0.13-1.36,0.4-2.15
					c0.27-0.79,0.56-1.48,0.88-2.08c-1.99,3.55-3.06,5.33-3.21,5.33c-0.88,0-1.53-0.23-1.93-0.7c-0.4-0.46-0.61-1.09-0.61-1.89
					c0-0.93,0.24-1.97,0.72-3.14c0.48-1.16,1.05-2.14,1.7-2.92c0.65-0.79,1.23-1.18,1.72-1.18h0.02
					C200.42,82.28,200.82,82.42,201.19,82.69z"/>
				<path d="M207.92,82.21c0.06,0.02,0.13,0.03,0.22,0.04c0.09,0.02,0.25,0.05,0.47,0.1c0.22,0.05,0.42,0.12,0.6,0.19
					c0.17,0.08,0.33,0.17,0.48,0.28s0.22,0.24,0.22,0.37c0,0.05-0.02,0.1-0.04,0.16c-1.11,2.4-2.02,4.47-2.74,6.2l1.57-2.63
					c1.99-3.12,3.39-4.68,4.2-4.7c0.63,0,1.07,0.12,1.34,0.37c0.26,0.25,0.39,0.53,0.39,0.84c0,0.15-0.02,0.29-0.07,0.43
					c-0.04,0.12-0.23,0.51-0.55,1.18c-0.32,0.67-0.63,1.31-0.93,1.93s-0.45,0.96-0.45,1.02h0.02c0.04,0,0.15-0.05,0.31-0.15
					c0.16-0.1,0.32-0.2,0.47-0.3l0.2-0.16c0.06,0.06,0.05,0.26-0.02,0.61c-0.03,0.15-0.17,0.36-0.42,0.63
					c-0.25,0.27-0.48,0.5-0.71,0.7l-0.34,0.29c-0.49-0.03-0.93-0.19-1.3-0.49c-0.37-0.3-0.56-0.68-0.56-1.15
					c0-0.1,0.04-0.27,0.11-0.49c0.07-0.22,0.17-0.47,0.28-0.74c0.11-0.27,0.24-0.56,0.37-0.87c0.13-0.31,0.27-0.6,0.42-0.89
					c0.14-0.28,0.27-0.54,0.38-0.78c0.11-0.23,0.24-0.49,0.39-0.78c-0.4,0.54-0.91,1.23-1.53,2.06c-0.61,0.83-1.47,2.09-2.56,3.77
					c-1.09,1.68-1.72,2.83-1.87,3.46c-0.06,0-0.14-0.01-0.24-0.02c-0.1-0.02-0.27-0.06-0.51-0.13c-0.24-0.08-0.45-0.16-0.64-0.26
					c-0.19-0.1-0.36-0.25-0.51-0.45c-0.15-0.2-0.22-0.43-0.22-0.69c0-0.22,0.05-0.46,0.16-0.72L207.92,82.21z"/>
				<path d="M218.04,82.28c0.9,0,1.51,0.42,1.84,1.26l0.74-1.26c0.7,0.43,1.06,0.73,1.06,0.88c0,0.1-0.39,0.55-1.17,1.34
					c-0.78,0.79-1.2,1.18-1.26,1.18c-0.03,0-0.08-0.03-0.14-0.09c-0.06-0.06-0.11-0.13-0.16-0.2l-0.07-0.09l0.5-0.85
					c-0.99,0.51-1.48,1.19-1.48,2.05c0,0.42,0.2,1.17,0.61,2.25c0.84-0.37,1.72-0.82,2.65-1.35c0.01,0.02,0.03,0.04,0.03,0.08
					c0.01,0.04,0.02,0.1,0.03,0.19c0.02,0.09,0,0.16-0.04,0.2c-0.81,0.61-1.63,1.12-2.45,1.53c0.37,1.05,0.56,1.81,0.56,2.29
					c0,0.36-0.09,0.64-0.28,0.83s-0.49,0.29-0.91,0.29c-0.55,0-1.08-0.11-1.58-0.31c-0.5-0.21-0.93-0.49-1.27-0.83
					c-0.34-0.34-0.62-0.66-0.83-0.93c-0.21-0.28-0.4-0.57-0.56-0.87c0.08,0,0.15,0,0.22,0c0.91,0,2.01-0.22,3.28-0.67
					c-0.08-0.22-0.4-0.98-0.99-2.27c-0.34-0.78-0.52-1.35-0.52-1.71c0-0.7,0.19-1.37,0.58-1.99
					C216.83,82.59,217.36,82.28,218.04,82.28z M217.5,89.9c-0.67,0.24-1.48,0.43-2.43,0.56c0.33,0.22,0.79,0.34,1.39,0.34
					c0.05,0,0.1,0,0.16,0C217.24,90.78,217.53,90.48,217.5,89.9z"/>
				<path d="M224.09,88.26c-0.21,0.73-0.31,1.39-0.31,1.96c0,1.05,0.34,1.57,1.03,1.57c0.36,0,0.72-0.09,1.09-0.27
					c0.37-0.18,0.68-0.39,0.94-0.62c0.26-0.23,0.53-0.53,0.81-0.9c0.28-0.37,0.48-0.66,0.61-0.87c0.13-0.21,0.28-0.47,0.46-0.79
					c0.3,0.17,0.45,0.46,0.45,0.88c0,0.27-0.08,0.54-0.22,0.81c-0.37,0.66-0.96,1.29-1.76,1.88c-0.8,0.59-1.69,0.89-2.66,0.89
					c-0.91,0-1.68-0.28-2.3-0.84c-0.62-0.56-0.93-1.31-0.93-2.24c0-0.45,0.09-0.93,0.27-1.44c0.6-1.77,1.42-3.21,2.45-4.34
					c1.03-1.12,2.24-1.69,3.62-1.69c0.85,0,1.44,0.16,1.77,0.48c0.32,0.32,0.48,0.75,0.48,1.27c0,0.64-0.21,1.38-0.62,2.21
					s-0.93,1.55-1.54,2.16c-0.61,0.61-1.18,0.91-1.69,0.91C225.34,89.29,224.7,88.95,224.09,88.26z M224.22,87.83
					c0.02,0,0.03,0,0.05,0c0.63,0,1.32-0.26,2.08-0.78s1.38-1.11,1.88-1.76c0.49-0.66,0.74-1.19,0.74-1.6
					c0-0.36-0.22-0.54-0.65-0.54h-0.02c-0.79,0.02-1.57,0.49-2.31,1.42C225.22,85.5,224.64,86.59,224.22,87.83z"/>
				<path d="M233.3,82.28c0.06,0,0.14,0,0.22,0.01c0.09,0.01,0.25,0.03,0.49,0.08c0.24,0.05,0.45,0.1,0.64,0.16
					c0.19,0.06,0.36,0.15,0.52,0.28c0.16,0.13,0.24,0.27,0.26,0.44c-1.53,2.77-2.5,4.74-2.92,5.91c-0.28,0.82-0.43,1.5-0.43,2.02
					h0.02c0.05,0,0.15-0.05,0.32-0.15c0.16-0.1,0.32-0.2,0.47-0.3l0.2-0.16c0.06,0.08,0.05,0.28-0.02,0.63
					c-0.03,0.15-0.17,0.36-0.42,0.63c-0.25,0.27-0.48,0.49-0.71,0.67l-0.34,0.29c-0.45-0.03-0.85-0.24-1.2-0.64
					c-0.35-0.4-0.53-0.84-0.53-1.34c0-0.16,0.02-0.36,0.07-0.57c0.05-0.22,0.12-0.47,0.21-0.76c0.1-0.29,0.19-0.57,0.28-0.84
					c0.09-0.27,0.22-0.6,0.39-1c0.17-0.4,0.32-0.74,0.44-1.02c0.12-0.28,0.29-0.66,0.51-1.12c0.22-0.46,0.39-0.82,0.51-1.08
					c0.12-0.25,0.3-0.63,0.53-1.11C233.05,82.81,233.21,82.47,233.3,82.28z M235.3,78.64c0.06,0,0.13,0.01,0.22,0.03
					c0.09,0.02,0.25,0.06,0.48,0.12c0.23,0.06,0.43,0.13,0.61,0.21c0.17,0.08,0.33,0.2,0.48,0.35c0.15,0.15,0.23,0.31,0.25,0.47
					c-0.1,0.11-0.24,0.24-0.42,0.42c-0.17,0.17-0.4,0.45-0.67,0.82c-0.28,0.37-0.42,0.67-0.42,0.88c0,0.03,0.01,0.06,0.02,0.09
					c-0.04,0-0.09,0-0.14,0c-0.31,0-0.67-0.1-1.07-0.3c-0.4-0.2-0.62-0.44-0.66-0.71c0-0.04,0-0.1,0-0.16
					c0-0.31,0.11-0.66,0.33-1.02c0.22-0.37,0.43-0.66,0.64-0.89L235.3,78.64z"/>
				<path d="M240.45,77.22c0.06,0.02,0.14,0.03,0.22,0.04c0.09,0.02,0.25,0.06,0.48,0.13c0.23,0.08,0.43,0.16,0.61,0.25
					c0.17,0.09,0.33,0.21,0.47,0.35c0.14,0.14,0.21,0.3,0.19,0.46c-0.18,0.39-0.57,1.21-1.17,2.47c-3.07,6.4-4.61,9.91-4.61,10.52
					h0.02c0.1,0,0.43-0.2,0.99-0.61c0.07,0.08,0.07,0.28,0,0.63c-0.03,0.15-0.17,0.36-0.42,0.63c-0.25,0.27-0.49,0.49-0.73,0.67
					l-0.34,0.29c-0.46-0.03-0.87-0.25-1.23-0.65c-0.35-0.4-0.52-0.86-0.51-1.37c-0.01-0.75,0.67-2.64,2.06-5.66
					C237.89,82.35,239.21,79.63,240.45,77.22z"/>
				<path d="M245.37,77.22c0.06,0.02,0.14,0.03,0.22,0.04c0.09,0.02,0.25,0.06,0.48,0.13c0.23,0.08,0.43,0.16,0.61,0.25
					c0.17,0.09,0.33,0.21,0.47,0.35c0.14,0.14,0.21,0.3,0.19,0.46c-0.18,0.39-0.57,1.21-1.17,2.47c-3.07,6.4-4.61,9.91-4.61,10.52
					h0.02c0.1,0,0.43-0.2,0.99-0.61c0.07,0.08,0.07,0.28,0,0.63c-0.03,0.15-0.17,0.36-0.42,0.63c-0.25,0.27-0.49,0.49-0.73,0.67
					l-0.34,0.29c-0.46-0.03-0.87-0.25-1.23-0.65c-0.35-0.4-0.52-0.86-0.51-1.37c-0.01-0.75,0.67-2.64,2.06-5.66
					C242.81,82.35,244.13,79.63,245.37,77.22z"/>
				<path d="M247.58,88.26c-0.21,0.73-0.31,1.39-0.31,1.96c0,1.05,0.34,1.57,1.03,1.57c0.36,0,0.72-0.09,1.09-0.27
					c0.37-0.18,0.68-0.39,0.94-0.62c0.26-0.23,0.53-0.53,0.81-0.9c0.28-0.37,0.48-0.66,0.61-0.87c0.13-0.21,0.28-0.47,0.46-0.79
					c0.3,0.17,0.45,0.46,0.45,0.88c0,0.27-0.08,0.54-0.22,0.81c-0.37,0.66-0.96,1.29-1.76,1.88c-0.8,0.59-1.69,0.89-2.66,0.89
					c-0.91,0-1.68-0.28-2.3-0.84c-0.62-0.56-0.93-1.31-0.93-2.24c0-0.45,0.09-0.93,0.27-1.44c0.6-1.77,1.42-3.21,2.45-4.34
					c1.03-1.12,2.24-1.69,3.62-1.69c0.85,0,1.44,0.16,1.77,0.48c0.32,0.32,0.48,0.75,0.48,1.27c0,0.64-0.21,1.38-0.62,2.21
					s-0.93,1.55-1.54,2.16c-0.61,0.61-1.18,0.91-1.69,0.91C248.83,89.29,248.19,88.95,247.58,88.26z M247.71,87.83
					c0.02,0,0.03,0,0.05,0c0.63,0,1.32-0.26,2.08-0.78s1.38-1.11,1.88-1.76c0.49-0.66,0.74-1.19,0.74-1.6
					c0-0.36-0.22-0.54-0.65-0.54h-0.02c-0.79,0.02-1.57,0.49-2.31,1.42C248.71,85.5,248.13,86.59,247.71,87.83z"/>
			</g>
		</g>
		<g>
			<path d="M227.01,109.59c1.03-0.33,2.08-0.9,3.14-1.7c1.06-0.8,1.98-1.65,2.74-2.54c0.76-0.89,1.38-1.75,1.87-2.58
				c0.49-0.83,0.73-1.46,0.73-1.9c0-0.33-0.15-0.5-0.44-0.5h-0.03c-1.31,0-3.47,1.47-6.49,4.42c-2.2,2.15-3.84,4.01-4.92,5.6
				c-0.35,0.52-0.52,0.88-0.52,1.07c0,0.21,0.27,0.39,0.82,0.54c0.55,0.15,1.21,0.3,1.99,0.45c0.78,0.15,1.55,0.34,2.33,0.58
				c0.78,0.24,1.44,0.62,1.99,1.15c0.55,0.53,0.82,1.17,0.82,1.92c0,1.15-0.61,2.32-1.83,3.51c-1.22,1.19-2.7,2.16-4.45,2.91
				c-1.75,0.75-3.38,1.13-4.89,1.13c-1.43,0-2.44-0.24-3.02-0.72c-0.59-0.48-0.88-1.3-0.88-2.45c0-0.07,0-0.13,0-0.18
				c0.07,0.09,0.17,0.2,0.29,0.33c0.12,0.13,0.38,0.3,0.79,0.51c0.4,0.21,0.82,0.31,1.26,0.31c0.02,0,0.04,0,0.05,0
				c0.31,0,0.84-0.12,1.57-0.35c0.73-0.24,1.56-0.57,2.47-1s1.79-0.9,2.63-1.43c0.84-0.52,1.54-1.12,2.12-1.78
				c0.58-0.66,0.86-1.31,0.86-1.94c0-0.63-0.58-1.08-1.73-1.36c-0.3-0.07-0.79-0.17-1.49-0.29c-1.85-0.31-3.11-0.69-3.77-1.13
				c-0.8-0.56-1.2-1.33-1.2-2.3c0-0.45,0.53-1.29,1.58-2.51c1.06-1.22,2.29-2.46,3.69-3.72c1.41-1.26,2.85-2.37,4.35-3.35
				c1.49-0.98,2.61-1.47,3.36-1.47c1.45,0,2.57,0.33,3.35,0.98s1.18,1.44,1.18,2.34c0,0.05,0,0.11,0,0.16
				c-0.04,0.59-0.45,1.68-1.24,3.26c-0.79,1.58-1.72,3.08-2.79,4.5c-1.06,1.42-1.92,2.13-2.57,2.13h-0.03
				c-0.63-0.02-1.25-0.24-1.86-0.68c-0.61-0.44-1.06-0.87-1.36-1.31L227.01,109.59z"/>
			<path d="M237.3,108.05c0.07,0,0.16,0,0.26,0.01c0.11,0.01,0.3,0.04,0.58,0.09c0.28,0.05,0.53,0.11,0.75,0.18
				c0.22,0.07,0.42,0.18,0.6,0.33s0.28,0.32,0.3,0.51c-1.78,3.23-2.91,5.52-3.4,6.88c-0.33,0.96-0.5,1.75-0.5,2.36h0.03
				c0.05,0,0.17-0.06,0.37-0.17c0.19-0.11,0.37-0.23,0.55-0.35l0.23-0.18c0.07,0.09,0.06,0.33-0.03,0.73
				c-0.03,0.18-0.2,0.42-0.48,0.73c-0.29,0.31-0.56,0.58-0.82,0.79l-0.39,0.34c-0.52-0.04-0.99-0.28-1.4-0.75
				c-0.41-0.46-0.61-0.98-0.61-1.56c0-0.19,0.03-0.41,0.08-0.67c0.05-0.25,0.14-0.55,0.25-0.89c0.11-0.34,0.22-0.67,0.33-0.98
				c0.1-0.31,0.26-0.7,0.46-1.16c0.2-0.46,0.37-0.86,0.51-1.19c0.14-0.33,0.34-0.77,0.59-1.31c0.25-0.54,0.45-0.96,0.59-1.26
				c0.14-0.3,0.34-0.73,0.61-1.3C237,108.67,237.19,108.27,237.3,108.05z M239.63,103.81c0.07,0,0.16,0.01,0.26,0.04
				c0.1,0.03,0.29,0.07,0.56,0.14c0.27,0.07,0.51,0.15,0.71,0.25c0.2,0.1,0.39,0.23,0.56,0.41c0.17,0.18,0.27,0.36,0.29,0.55
				c-0.12,0.12-0.28,0.28-0.48,0.48c-0.2,0.2-0.46,0.52-0.78,0.96c-0.32,0.44-0.48,0.78-0.48,1.02c0,0.04,0.01,0.07,0.03,0.1
				c-0.05,0-0.1,0-0.16,0c-0.37,0-0.78-0.12-1.24-0.35c-0.46-0.24-0.72-0.51-0.77-0.82c0-0.05,0-0.11,0-0.18
				c0-0.37,0.13-0.76,0.38-1.19c0.25-0.43,0.5-0.77,0.75-1.03L239.63,103.81z"/>
			<path d="M244.76,105.3c0.52,0,0.98,0.06,1.36,0.17c0.38,0.11,0.57,0.33,0.55,0.64c-0.12,0.24-0.27,0.56-0.45,0.96
				c-0.17,0.39-0.31,0.69-0.39,0.9l0.89-0.03h0.03c0.12,0,0.25,0.13,0.38,0.39c0.13,0.26,0.19,0.53,0.17,0.81h-1.99
				c-0.12,0.28-0.35,0.74-0.68,1.39c-1.66,3.33-2.61,5.67-2.85,7.02c-0.05,0.31-0.08,0.6-0.08,0.86h0.03c0.05,0,0.17-0.06,0.37-0.17
				c0.19-0.11,0.45-0.29,0.78-0.54c0.07,0.09,0.06,0.33-0.03,0.73c-0.04,0.18-0.2,0.42-0.48,0.73c-0.29,0.31-0.56,0.58-0.82,0.79
				l-0.39,0.34c-0.52-0.04-0.99-0.28-1.4-0.75c-0.41-0.46-0.61-0.98-0.61-1.56c0-0.7,0.23-1.64,0.68-2.81
				c0.45-1.18,1.32-3.18,2.59-6.01c-0.07,0-0.18,0-0.33,0s-0.28,0-0.41,0l-0.18-0.03c-0.17-0.05-0.3-0.15-0.37-0.29
				c-0.07-0.14-0.1-0.3-0.1-0.5c0-0.07,0.01-0.2,0.03-0.39H243c0.42-0.98,0.81-1.86,1.18-2.64
				C244.34,105.31,244.53,105.3,244.76,105.3z"/>
			<path d="M248.24,115.01c-0.24,0.86-0.37,1.61-0.37,2.28c0,1.22,0.4,1.83,1.2,1.83c0.42,0,0.84-0.11,1.27-0.31
				c0.43-0.21,0.79-0.45,1.1-0.72c0.31-0.27,0.62-0.62,0.94-1.05c0.32-0.43,0.56-0.76,0.71-1.01c0.15-0.24,0.33-0.55,0.54-0.92
				c0.35,0.19,0.52,0.53,0.52,1.02c0,0.31-0.09,0.63-0.26,0.94c-0.44,0.77-1.12,1.5-2.05,2.19c-0.93,0.69-1.97,1.03-3.1,1.03
				c-1.06,0-1.96-0.33-2.68-0.98c-0.72-0.65-1.09-1.52-1.09-2.6c0-0.52,0.11-1.08,0.31-1.68c0.7-2.06,1.65-3.74,2.85-5.05
				c1.2-1.31,2.61-1.96,4.21-1.96c1,0,1.68,0.19,2.06,0.56c0.37,0.38,0.56,0.87,0.56,1.48c0,0.75-0.24,1.61-0.72,2.58
				c-0.48,0.97-1.08,1.81-1.79,2.51c-0.72,0.71-1.37,1.06-1.96,1.06C249.7,116.21,248.95,115.81,248.24,115.01z M248.39,114.51
				c0.02,0,0.04,0,0.05,0c0.73,0,1.54-0.3,2.42-0.9c0.88-0.6,1.61-1.29,2.19-2.05c0.58-0.77,0.86-1.39,0.86-1.86
				c0-0.42-0.25-0.63-0.76-0.63h-0.03c-0.93,0.02-1.82,0.57-2.7,1.65C249.56,111.8,248.88,113.06,248.39,114.51z"/>
			<path d="M286.14,98.83c0.92,0,2.02,0.19,3.28,0.58c1.27,0.38,1.91,0.89,1.92,1.52c-1.24,2.79-2.36,6.1-3.36,9.92
				c-1,3.82-1.5,6.99-1.5,9.5c0,2.81,0.69,4.22,2.07,4.24c-0.58,0.21-1.22,0.31-1.94,0.31c-1.4,0-2.4-0.52-3.01-1.57
				c-0.28-0.45-0.42-1.21-0.42-2.28c0-1.45,0.38-4.2,1.15-8.25c-0.98,0.04-2,0.08-3.06,0.13c-0.4,0.51-1.03,1.33-1.88,2.46
				c-2.39,3.14-4.21,5.31-5.47,6.52c-1.87,1.78-3.51,2.68-4.92,2.7c-0.04,0-0.07,0-0.11,0c-0.65-0.02-1.25-0.16-1.81-0.42
				c-0.56-0.26-1-0.58-1.34-0.94c-0.33-0.37-0.61-0.73-0.85-1.09c-0.24-0.36-0.4-0.66-0.48-0.9l-0.16-0.37
				c0.37,0.07,0.74,0.1,1.13,0.1c1.26,0,2.59-0.36,3.99-1.07c1.41-0.72,2.69-1.59,3.85-2.62c1.16-1.03,2.3-2.2,3.42-3.51
				c-2.09,0.3-3.4,0.57-3.93,0.81c-0.44-0.07-0.88-0.31-1.32-0.73c-0.44-0.42-0.78-0.82-1.01-1.2l-0.31-0.58
				c2.06-0.58,4.78-0.86,8.17-0.86c0.14,0,0.28,0,0.42,0C282.63,105.8,285.13,101.66,286.14,98.83z M286.64,104.33
				c-1.75,3.35-3.09,5.65-4.03,6.91c0.58,0.05,1.22,0.13,1.94,0.24c0.16-1.03,0.41-2.14,0.76-3.32c0.35-1.19,0.66-2.12,0.94-2.8
				L286.64,104.33z"/>
			<path d="M296.11,102.16c0.07,0.02,0.16,0.04,0.26,0.05c0.1,0.02,0.29,0.07,0.56,0.16c0.27,0.09,0.51,0.18,0.71,0.29
				c0.2,0.11,0.38,0.24,0.55,0.41c0.17,0.17,0.24,0.34,0.22,0.54c-0.21,0.45-0.66,1.41-1.36,2.88c-3.58,7.45-5.37,11.54-5.37,12.25
				h0.03c0.12,0,0.51-0.24,1.15-0.71c0.09,0.09,0.09,0.33,0,0.73c-0.04,0.18-0.2,0.42-0.48,0.73c-0.29,0.31-0.57,0.58-0.85,0.79
				l-0.39,0.34c-0.54-0.04-1.02-0.29-1.43-0.76c-0.41-0.47-0.61-1-0.59-1.6c-0.02-0.87,0.78-3.07,2.4-6.6
				C293.13,108.13,294.66,104.97,296.11,102.16z"/>
			<path d="M299.04,107.97c0.17,0.02,0.4,0.04,0.67,0.07c0.27,0.03,0.62,0.14,1.06,0.34c0.44,0.2,0.65,0.46,0.63,0.77
				c-1.68,3.26-3.39,7.25-5.16,11.96c0.77-1.92,1.62-3.84,2.57-5.76c0.94-1.92,1.9-3.62,2.87-5.09c0.97-1.47,1.71-2.21,2.21-2.21
				c0.02,0,0.04,0,0.05,0c0.91,0,1.57,0.25,2,0.76c0.43,0.51,0.64,1.2,0.64,2.07c0,1.19-0.33,2.53-0.98,4.02
				c-0.65,1.49-1.46,2.77-2.42,3.82c-0.96,1.06-1.83,1.58-2.62,1.58c-0.45-0.02-0.93-0.2-1.41-0.54c-0.49-0.34-0.8-0.78-0.94-1.32
				c0.19,0.05,0.38,0.08,0.58,0.08c0.72,0,1.4-0.34,2.04-1.01c0.65-0.67,1.17-1.48,1.58-2.42c0.41-0.94,0.74-1.87,0.98-2.79
				c0.24-0.92,0.37-1.65,0.37-2.21c0-0.47-0.09-0.7-0.26-0.68c-0.4-0.02-1.26,1.16-2.57,3.52c-1.31,2.36-2.54,4.83-3.7,7.41
				c-1.16,2.57-1.78,4.18-1.85,4.83c-0.05,0-0.11,0-0.18,0c-0.77,0-1.42-0.19-1.95-0.56c-0.53-0.38-0.8-0.96-0.8-1.74L299.04,107.97
				z"/>
			<path d="M312.92,102.42c0.07,0,0.16,0,0.27,0.01c0.11,0.01,0.31,0.04,0.6,0.08c0.29,0.04,0.54,0.1,0.76,0.17
				c0.22,0.07,0.41,0.18,0.59,0.31c0.17,0.14,0.25,0.31,0.24,0.5c-0.91,1.61-2.73,5.6-5.47,11.99c0.12-0.21,0.29-0.48,0.5-0.82
				c0.21-0.34,0.61-0.94,1.19-1.81c0.59-0.86,1.14-1.63,1.66-2.3c0.52-0.67,1.09-1.28,1.7-1.82c0.61-0.54,1.12-0.81,1.52-0.81
				c1.17,0,1.75,0.38,1.75,1.13c0,0.19-0.04,0.43-0.13,0.71c-0.26,0.63-0.74,1.55-1.43,2.76c-0.69,1.21-1.24,2.3-1.65,3.27
				c-0.41,0.97-0.62,1.84-0.62,2.63h0.03c0.05,0,0.17-0.06,0.37-0.17c0.19-0.11,0.37-0.23,0.52-0.35l0.24-0.18
				c0.09,0.09,0.09,0.33,0,0.73c-0.04,0.18-0.2,0.42-0.48,0.73c-0.29,0.31-0.56,0.58-0.82,0.79l-0.39,0.34
				c-0.54-0.04-1.02-0.29-1.44-0.77c-0.42-0.48-0.62-1.01-0.6-1.58c0.14-0.56,0.39-1.25,0.75-2.08c0.36-0.83,0.82-1.88,1.4-3.14
				c0.58-1.27,1.07-2.4,1.49-3.42c-0.17,0.23-0.41,0.54-0.69,0.93c-0.29,0.39-0.81,1.1-1.56,2.13c-0.75,1.03-1.41,1.96-1.98,2.8
				c-0.57,0.84-1.08,1.67-1.54,2.49c-0.46,0.82-0.69,1.37-0.69,1.65h-0.03c-0.14,0-0.3-0.02-0.47-0.05
				c-0.17-0.03-0.41-0.11-0.72-0.22c-0.31-0.11-0.56-0.32-0.76-0.61c-0.2-0.3-0.3-0.67-0.3-1.13c0-0.14,0.01-0.29,0.03-0.44
				c0.11-0.75,0.67-2.33,1.7-4.74c1.03-2.41,2.03-4.62,3.01-6.65L312.92,102.42z"/>
			<path d="M324.55,108.53c0.43,0.32,0.72,0.64,0.88,0.96l0.24,0.5h-0.03c-0.66,0-1.31,0.27-1.94,0.8
				c-0.63,0.53-1.15,1.17-1.56,1.91c-0.41,0.74-0.74,1.49-1,2.24c-0.25,0.75-0.38,1.37-0.38,1.86c0,0.45,0.1,0.69,0.31,0.71
				c0.14-0.02,0.68-0.81,1.62-2.38c0.94-1.57,1.91-3.14,2.89-4.71c0.99-1.57,1.6-2.36,1.85-2.36c0.24,0,0.55,0.1,0.9,0.3
				c0.36,0.2,0.65,0.41,0.88,0.62l0.34,0.31c-0.56,1.12-0.95,1.9-1.18,2.36c-0.23,0.45-0.58,1.2-1.06,2.24
				c-0.48,1.04-0.82,1.9-1.02,2.59c-0.2,0.69-0.3,1.25-0.3,1.69c0,0.09,0,0.17,0,0.24c0,0.02,0.01,0.03,0.03,0.03
				c0.05,0,0.17-0.06,0.37-0.17c0.19-0.11,0.37-0.23,0.52-0.35l0.24-0.18c0.09,0.09,0.09,0.33,0,0.73c-0.04,0.18-0.2,0.42-0.48,0.73
				c-0.29,0.31-0.56,0.58-0.82,0.79l-0.39,0.34c-1.31,0-1.96-0.7-1.96-2.09c0-0.75,0.16-1.58,0.47-2.5
				c0.31-0.92,0.65-1.72,1.02-2.42c-2.32,4.14-3.57,6.2-3.74,6.2c-1.03,0-1.78-0.27-2.25-0.81c-0.47-0.54-0.71-1.27-0.71-2.2
				c0-1.08,0.28-2.3,0.84-3.65c0.56-1.35,1.22-2.49,1.98-3.4c0.76-0.92,1.43-1.37,2-1.37h0.03
				C323.65,108.05,324.12,108.21,324.55,108.53z"/>
		</g>
		<g>
			<g>
				<path d="M200.5,156.86c-14.27-2.38-17.58,0.32-25.89-0.53c-11.35-1.16-7.48-15.24-1.08-16.05c3.07-0.38,2.75-1.91,2.39-2.88
					c0.2-0.2,0.36-0.43,0.67-0.44c1.77-0.07,6.14,4.49,7.48-0.39c0.16-0.58-0.34-1.17-0.14-1.76c0.69-1.36,2.18-1.06,4.05-2.21
					c1.07-0.65,0.76-2.24,0.51-3.04c4.9-2.24,0.02-7.66-2.53-9.77c-10.49-8.7-25.79-5.36-37.08,2.85
					c-13.65,9.93-20.37,30.39-38.32,27.67c-0.08-0.01-0.12,0.11-0.04,0.13c12.1,3.36,20.84-7.08,27.78-15.31
					c4.02-4.77,8.09-9.29,13.35-12.73c10.23-6.68,23.54-9.32,33.04-1.63c1.85,1.5,6.64,5.75,3.35,7.78
					c-2.49-4.21-8.26-5.63-13.11-6.1c-0.06-0.01-0.07,0.1-0.01,0.11c11.27,1.97,15.36,8.97,11.12,9.76
					c-1.23,0.23-2.15,0.43-2.53,1.65c-0.62-0.98-1.57-1.84-2.34-2.36c-0.06-0.04-0.13,0.04-0.09,0.09c0.93,1.42,3.41,4.28,1.4,5.82
					c-1.63,1.25-5.51-3.49-7.37-1.4c-0.59-0.81-1.44-1.47-2.31-1.87c-0.11-0.05-0.22,0.08-0.13,0.17c0.29,0.3,4.81,4.4,0.73,4.64
					c-0.63,0.04-2.34-0.88-2.34-0.89c-1.22-0.4-2.66,1.1-3.9,1.08c-3.68-0.08-5.78-2.49-5.78-2.49c-0.29,0.38-0.02,1.26,0.07,1.85
					c-3.98,0.78-8.44-3.44-10.81-1.57c0.8-0.08,2,0.52,2.81,0.68c-8.95,2.36-5.57,16.86,0.22,21.01c5.63,4.04,15.3,6.41,29.9,1.56
					c5.18-1.72,10.12-3.9,15.47-2.93C200.78,157.86,201.16,156.98,200.5,156.86z M169.02,139.82c-5.31,4-5.69,11.62-0.72,15.67
					C162.21,152.46,162.61,142.71,169.02,139.82z M163.01,139.82c-4.06,4.97-2.44,12.49,2.61,15.77c1.88,1.25,3.33,1.67,5.04,2.19
					C159.35,156.61,157.37,144.69,163.01,139.82z M153.85,139.54c-4.52,7.68-2.47,16.97,7.26,20.39c1.98,0.64,2.42,0.68,3.47,0.93
					C150.96,159.89,147.56,147.42,153.85,139.54z M157.85,139.82c-4.5,6.4-2.11,17.48,11.63,19.31c1.42,0.14,1.26,0.23,5.2,0.37
					C155.01,161.15,151.99,146.3,157.85,139.82z"/>
				<path d="M153.4,124.8c5.2-4.33,12.86-6.27,19.78-5.85c2.41,0.15,4.45,0.25,6.49,1.7c0.27,0.19,0.63-0.16,0.46-0.43
					c-1.1-1.82-3.42-2.08-5.36-2.2c-7.93-0.48-15.77,0.98-21.41,6.74C153.32,124.79,153.36,124.83,153.4,124.8z"/>
			</g>
			<g>
				<defs>
					<path id="SVGID_1_" d="M161.15,116.31l16.59-19.99l24.35,3.46l13.84,24.09l8.46,23.06l-30.5,4.48l-9.61-10.38l0.38-5.89
						l1.63-2.02l2.63-3.14l1.25-3.36c0,0-1.38-4.14-4.2-6.53c-2.82-2.39-7.44-4.9-11.76-5.16S161.15,116.31,161.15,116.31z"/>
				</defs>
				<clipPath id="SVGID_2_">
					<use xlink:href="#SVGID_1_"  style="overflow:visible;"/>
				</clipPath>
				<g class="st0">
					<path d="M216.37,140.71c-11.11,3.3-16.14-5.57-15.12-9.13c0.88,2.58,4.77,3.51,6.94,2.84c6.96-2.16,5.22-15.63-3.61-18.47
						c2.11-6.19-1.61-13.75-10.76-16.15c-12.65-3.31-23.27,6.37-30.33,15.65c-7.56,9.95-12.55,21.77-27.04,25.7l0.01,0.06
						c13.96-0.67,22.53-17.96,29.48-26.58c4.6-5.7,10.34-11.07,17.54-13.1c6.83-1.93,16.81-0.06,19.67,7.26
						c2.31,5.91-1.23,13.07-7.22,12.28c-4.48-0.59-6.24-4.77-3.51-6.54c2.39-1.54,4.51-0.27,4.16,1.12
						c-0.17,0.67-1.36,0.51-1.65,0.35c-0.5-0.28-0.84-0.03-0.37,0.28c4.03,2.63,6.44-6-5.79-4.15
						c-15.73,2.38-23.55,31.14-0.14,43.13c0.17,0.09,0.33-0.13,0.2-0.26c-2.52-2.43-5.66-5.43-7.47-8.19
						c-4.16-6.34-2.51-14.73,2.59-20.27c1.92-2.09,4.4-3.63,7.4-4.38c5.56-1.39,10.25,2.67,8.89,7.33c-0.8,2.73-5.04,6.16-7.53,1.84
						c-2-3.47,2.99-4.6,3.82-3.39c0.95,1.37-0.56,2.17-1.94,1.61c1.63,2.18,4.47-0.27,3.12-2.31c-1.19-1.8-6.85-1.56-8.66,3.03
						c-2.53,6.44,4.29,18.87,22.47,16.77c0.35-0.04,0.37-0.57,0-0.56c-2.84,0.06-5.67-1.69-7.86-3.77
						c4.46,1.74,10.29,0.37,14.02-1.63C218.38,140.79,218.63,140.04,216.37,140.71z M198.26,122.13c2.47-0.51,4.6-2.12,5.76-4.9
						c3.43,1.17,5.76,4.65,6.68,8.03c0.8,2.93-0.17,7.15-3.43,8.12c-1.69,0.5-4.37-0.65-4.99-2.33c-0.5-1.33,0.41-2.85,1.47-3.59
						c1.46-1.02,3.4-0.16,3.83,1.49c0.3,1.15-2,1.55-2.18-0.1c-0.58,1.35,0.41,2.28,1.77,2.1c1.9-0.26,2.01-2.75,1.08-3.88
						c-2.01-2.43-5.6-1.61-6.6,1.1C201.75,125.75,200.31,123.49,198.26,122.13z"/>
					<g>
						<path d="M200.82,108.35c0.99,2.91,1.7,6.15,0.05,8.74c-1.02,1.6-2.8,1.71-4.49,1.64c-0.14-0.01-0.23,0.19-0.12,0.29
							c2.16,1.81,5.09-0.75,5.83-2.82C203.38,112.58,200.5,107.39,200.82,108.35L200.82,108.35z"/>
					</g>
					<g>
						<path d="M200.43,111.03c0.5,1.54,0.7,3.86-0.44,5.11c-0.43,0.47-1.08,0.36-1.53,0.74c-0.08,0.07-0.04,0.2,0.03,0.25
							c1.48,1.02,3.99-2.27,2-6.13C200.47,110.98,200.42,111,200.43,111.03L200.43,111.03z"/>
					</g>
					<g>
						<path d="M206.01,119.51c2.92,3.54,3.04,5.89,3.49,7.77c0.04,0.15,0.23,0.1,0.25-0.03c0.27-2.66-1.59-6.24-3.69-7.8
							C206.02,119.43,205.98,119.48,206.01,119.51L206.01,119.51z"/>
					</g>
					<g>
						<path d="M205.6,121.69c2.19,2.93,1.46,2.73,2.21,3.83c0.07,0.1,0.23,0.07,0.23-0.06c0.03-0.69-0.42-1.39-0.75-1.96
							C206.52,122.19,205.38,121.39,205.6,121.69L205.6,121.69z"/>
					</g>
					<g>
						<path d="M189.12,124.68c2.71-1.73,5.59-1.55,7.88-0.25c0.86,0.49,1.24,1.32,1.91,1.98c0.41,0.41,0.21-2.56-4.22-3.36
							c-1.77-0.32-4.45,0.09-5.59,1.6C189.09,124.67,189.11,124.69,189.12,124.68L189.12,124.68z"/>
					</g>
					<g>
						<path d="M188.25,127.29c1.84-1.97,5.12-3.24,7.89-1.89c0.1,0.05,0.27-0.12,0.16-0.21c-2.53-2.24-6.79,0.12-8.13,2.04
							C188.14,127.27,188.22,127.33,188.25,127.29L188.25,127.29z"/>
					</g>
					<g>
						<path d="M189.09,140.7c1.82,3.49,4.54,5.1,8.21,6.41c1.06,0.38,2.33,0.93,3.47,0.82c0.17-0.02,0.24-0.23,0.09-0.33
							c-1.15-0.77-8.09-1.65-11.71-6.93C189.12,140.63,189.07,140.66,189.09,140.7L189.09,140.7z"/>
					</g>
					<g>
						<path d="M185.6,136.01c-0.51,4.11,2.62,7.74,5.84,10.34c0.93,0.75,2.1,1.84,3.31,2.06c0.12,0.02,0.28-0.11,0.18-0.24
							c-0.86-1.12-9.32-5.54-9.27-12.16C185.66,135.97,185.61,135.97,185.6,136.01L185.6,136.01z"/>
					</g>
					<g>
						<path d="M170.94,131.91c-1.87,11.1,7.34,22.47,13.12,25.13c0.15,0.07,0.3-0.1,0.18-0.23c-3.18-3.49-13.79-10.37-13.19-24.88
							C171.06,131.86,170.96,131.85,170.94,131.91L170.94,131.91z"/>
					</g>
					<g>
						<path d="M169.07,140.09c-0.68,7.05,5.76,15.32,8.34,16.32c0.17,0.06,0.33-0.16,0.23-0.3c-0.68-0.97-1.67-1.73-2.45-2.62
							c-2.59-2.93-5.91-8.44-6.05-13.4C169.14,140.04,169.07,140.04,169.07,140.09L169.07,140.09z"/>
					</g>
					<g>
						<path d="M185.53,103.07c-6.49-0.41-18.68,10.14-19.75,14.58c-0.04,0.17,0.17,0.25,0.27,0.12
							c8.17-10.83,13.83-13.05,19.5-14.52C185.65,103.22,185.63,103.08,185.53,103.07L185.53,103.07z"/>
					</g>
					<g>
						<path d="M180.5,106.65c-3.32,1.71-9.7,6.25-10.54,9.81c-0.03,0.14,0.14,0.25,0.24,0.14c1.41-1.45,2.22-4.34,10.4-9.76
							C180.72,106.76,180.62,106.59,180.5,106.65L180.5,106.65z"/>
					</g>
				</g>
			</g>
		</g>
		<g>
			<path d="M246.85,141.38c-0.1,0-0.2,0-0.29,0c-1.04,0-1.84-0.13-2.38-0.4c-0.54-0.27-0.82-0.76-0.82-1.49
				c0-1.24,0.67-2.63,2.02-4.16c1.35-1.54,2.97-2.85,4.87-3.93c1.9-1.08,3.61-1.62,5.11-1.62c0.02,0,0.05,0,0.07,0
				c0.73,0,1.36,0.12,1.89,0.35c0.53,0.23,0.95,0.51,1.25,0.83c0.3,0.33,0.54,0.75,0.71,1.26c0.17,0.51,0.28,0.99,0.33,1.44
				c0.05,0.45,0.07,0.95,0.07,1.51c0,0.66-0.56,1.69-1.69,3.09c-1.13,1.41-2.38,2.79-3.77,4.16s-2.98,2.86-4.78,4.47
				c-1.81,1.61-3.07,2.72-3.78,3.33s-1.28,1.08-1.69,1.42c0.82-0.51,2.1-0.76,3.82-0.76c1.21,0,2.37,0.13,3.48,0.4
				c1.1,0.27,2.04,0.69,2.82,1.27c0.78,0.58,1.14,1.27,1.09,2.07c-2.33-0.85-4.42-1.27-6.26-1.27c-3.01,0-5.52,1.12-7.53,3.35
				l-3.09-1.75c0.51-1.5,1.08-2.26,1.71-2.26c0.29-0.9,1.09-2.09,2.38-3.58s2.76-3.01,4.4-4.56c1.64-1.55,3.25-3.1,4.84-4.64
				c1.59-1.54,2.93-2.98,4.02-4.31c1.09-1.34,1.64-2.35,1.64-3.05c0-0.36-0.13-0.66-0.4-0.87c-0.32-0.27-0.74-0.4-1.27-0.4
				c-1.04,0-2.26,0.46-3.66,1.38c-1.39,0.92-2.61,2.11-3.64,3.58s-1.55,2.88-1.55,4.24C246.77,140.78,246.8,141.08,246.85,141.38z"
				/>
			<path d="M273.4,131.55c0.63,1.07,0.94,2.44,0.94,4.11c0,1.46-0.2,2.98-0.62,4.59c-0.29,1.14-0.77,2.47-1.44,4
				c-0.67,1.53-1.48,3.11-2.44,4.75c-0.96,1.64-2.08,3.01-3.37,4.13c-1.28,1.11-2.56,1.67-3.82,1.67c-1.48,0-2.58-0.57-3.31-1.71
				c-0.73-1.14-1.09-2.67-1.09-4.58c0-1.84,0.32-3.84,0.96-6c0.64-2.16,1.49-4.16,2.55-6.02c1.05-1.86,2.33-3.41,3.84-4.66
				c1.5-1.25,3.03-1.87,4.59-1.87h0.07C271.73,129.95,272.77,130.49,273.4,131.55z M271.84,132.28c-0.56,0-1.8,1.14-3.71,3.42
				c-1.92,2.28-3.43,4.64-4.55,7.09c-0.7,1.57-1.26,3.14-1.67,4.69c-0.41,1.55-0.62,2.85-0.62,3.89c0,1.36,0.33,2.04,0.98,2.04
				c1.16,0,2.44-0.79,3.84-2.38c1.39-1.59,2.81-3.73,4.24-6.42c0.82-1.55,1.45-3.2,1.89-4.95c0.44-1.75,0.65-3.3,0.65-4.66
				C272.89,133.24,272.54,132.33,271.84,132.28z"/>
			<path d="M279.73,141.38c-0.1,0-0.2,0-0.29,0c-1.04,0-1.84-0.13-2.38-0.4c-0.54-0.27-0.82-0.76-0.82-1.49
				c0-1.24,0.67-2.63,2.02-4.16c1.35-1.54,2.97-2.85,4.87-3.93c1.9-1.08,3.61-1.62,5.11-1.62c0.02,0,0.05,0,0.07,0
				c0.73,0,1.36,0.12,1.89,0.35c0.53,0.23,0.95,0.51,1.25,0.83c0.3,0.33,0.54,0.75,0.71,1.26s0.28,0.99,0.33,1.44
				c0.05,0.45,0.07,0.95,0.07,1.51c0,0.66-0.56,1.69-1.69,3.09s-2.38,2.79-3.77,4.16s-2.98,2.86-4.78,4.47
				c-1.81,1.61-3.07,2.72-3.78,3.33c-0.72,0.61-1.28,1.08-1.69,1.42c0.82-0.51,2.1-0.76,3.82-0.76c1.21,0,2.37,0.13,3.48,0.4
				c1.1,0.27,2.04,0.69,2.82,1.27c0.78,0.58,1.14,1.27,1.09,2.07c-2.33-0.85-4.42-1.27-6.26-1.27c-3.01,0-5.52,1.12-7.53,3.35
				l-3.09-1.75c0.51-1.5,1.08-2.26,1.71-2.26c0.29-0.9,1.09-2.09,2.38-3.58s2.76-3.01,4.4-4.56c1.64-1.55,3.25-3.1,4.84-4.64
				c1.59-1.54,2.93-2.98,4.02-4.31c1.09-1.34,1.64-2.35,1.64-3.05c0-0.36-0.13-0.66-0.4-0.87c-0.32-0.27-0.74-0.4-1.27-0.4
				c-1.04,0-2.26,0.46-3.66,1.38c-1.39,0.92-2.61,2.11-3.64,3.58c-1.03,1.47-1.55,2.88-1.55,4.24
				C279.66,140.78,279.68,141.08,279.73,141.38z"/>
			<path d="M306.28,131.55c0.63,1.07,0.94,2.44,0.94,4.11c0,1.46-0.2,2.98-0.62,4.59c-0.29,1.14-0.77,2.47-1.44,4
				c-0.67,1.53-1.48,3.11-2.44,4.75c-0.96,1.64-2.08,3.01-3.37,4.13c-1.28,1.11-2.56,1.67-3.82,1.67c-1.48,0-2.58-0.57-3.31-1.71
				c-0.73-1.14-1.09-2.67-1.09-4.58c0-1.84,0.32-3.84,0.96-6c0.64-2.16,1.49-4.16,2.55-6.02c1.05-1.86,2.33-3.41,3.84-4.66
				s3.03-1.87,4.59-1.87h0.07C304.61,129.95,305.65,130.49,306.28,131.55z M304.72,132.28c-0.56,0-1.8,1.14-3.71,3.42
				c-1.92,2.28-3.43,4.64-4.55,7.09c-0.7,1.57-1.26,3.14-1.67,4.69c-0.41,1.55-0.62,2.85-0.62,3.89c0,1.36,0.33,2.04,0.98,2.04
				c1.16,0,2.44-0.79,3.84-2.38c1.39-1.59,2.81-3.73,4.24-6.42c0.82-1.55,1.45-3.2,1.89-4.95c0.44-1.75,0.65-3.3,0.65-4.66
				C305.77,133.24,305.42,132.33,304.72,132.28z"/>
		</g>
		<g>
			<g>
				<path class="st1" d="M96.73,42.09c0.62-0.13,1.3-0.07,1.99,0.03c0.69,0.1,1.39,0.24,2.06,0.25c-0.64,0.15-1.33,0.1-2.02,0
					S97.38,42.12,96.73,42.09z"/>
				<path class="st1" d="M84.14,52.21c0,0.54-0.23,0.76-0.53,0.83c-0.3,0.07-0.67,0-0.94-0.06c0.03-0.36,0.25-0.61,0.54-0.74
					C83.51,52.12,83.86,52.11,84.14,52.21z"/>
			</g>
		</g>
		<path d="M127.29,37.52c-0.89-0.04-1.86,0.01-2.79-0.05c-1.94-0.12-3.77-0.26-5.59-0.36c-1.82-0.1-3.62-0.15-5.5-0.09
			c-1.1,0.04-2.12,0.2-3.12,0.41c-1,0.21-1.99,0.46-3.02,0.66c-1.1,0.22-2.29,0.35-3.54,0.46c-1.25,0.11-2.56,0.2-3.89,0.31
			c-1.22,0.11-2.62,0.28-3.81,0.58c-1.19,0.3-2.19,0.72-2.59,1.31c-0.67,0.98-0.56,2.22-0.38,3.5c0.18,1.28,0.44,2.61,0.09,3.77
			c-0.13,0.43-0.42,0.97-0.8,1.44c-0.38,0.48-0.84,0.9-1.33,1.1c-1.49,0.62-3.61,0.31-5.58,0.18c-1.96-0.14-3.77-0.1-4.63,1.21
			c-0.02,0.81-0.51,1.11-1,1.4c-0.49,0.3-0.99,0.59-1.02,1.38c0.56,0.04,1.49,0.03,2.26,0.19c0.78,0.16,1.41,0.47,1.39,1.15
			c-1.7-0.14-3.38-0.24-4.99-0.23c-1.61,0.01-3.15,0.13-4.57,0.44c-0.73,0.56-1.24,1.74-1.61,3.07c-0.36,1.32-0.57,2.78-0.7,3.89
			c-0.32,2.78,0.01,5.66,0.66,8.27c0.65,2.6,1.61,5.07,2.56,6.55c0.21,0.33,0.78,0.95,1.05,1.15c0.27,0.2,0.74,0.14,0.93,0.01
			c0.64-0.47,1.11-1.73,1.12-2.96c0.01-1.24-0.17-2.61-0.02-3.8c0.1-0.79,0.4-1.5,0.65-2.2c0.25-0.71,0.45-1.41,0.36-2.18
			c0.89-1.81,2.66-2.68,4.64-3.3c1.98-0.63,4.19-1.02,5.95-1.88c1.62,1.31,3.96,2.02,6.54,2.4c2.57,0.38,5.38,0.44,7.92,0.45
			c0.29,0.3,0.84,0.5,1.47,0.68c0.63,0.18,1.34,0.33,1.94,0.54c0.33,0.11,0.58,0.28,0.83,0.4c0.25,0.12,0.5,0.2,0.82,0.14
			c0.52-0.09,0.96-0.51,1.2-1.09c0.24-0.58,0.28-1.33,0.01-2.08c-0.61-0.33-1.36-0.67-2.14-1.07c-0.78-0.39-1.59-0.84-2.3-1.38
			c-0.41-0.31-0.98-0.86-1.46-1.46c-0.48-0.6-0.87-1.24-0.92-1.74c-0.04-0.39,0.09-0.91,0.26-1.47c0.17-0.55,0.37-1.13,0.46-1.61
			c0.11-0.58,0.18-1.23,0.25-1.84c0.07-0.61,0.14-1.18,0.25-1.6c0.25-0.93,0.68-1.89,1.18-2.77c0.49-0.88,1.05-1.67,1.53-2.26
			c1.69-2.06,4.45-3.04,7.34-3.84c2.89-0.8,5.9-1.4,8.09-2.71c1.02-0.16,2.05-0.39,3.04-0.66c0.99-0.27,1.96-0.58,2.87-0.89
			c0.33-0.11,0.74-0.14,1.1-0.23c0.36-0.09,0.69-0.26,0.84-0.65C128.99,37.71,128.18,37.56,127.29,37.52z M76.57,71.39
			c-0.16,0.31-0.34,0.64-0.4,1.04c-0.15,1,0.1,2.28,0.16,3.45c0.07,1.17-0.04,2.22-0.89,2.73c-0.49-1.14-0.93-2.32-1.35-3.52
			c-0.42-1.2-0.82-2.42-1.23-3.63c-0.15,1.17,0.14,2.34,0.51,3.43c0.37,1.09,0.83,2.1,1.03,2.96c-1.53-2.1-2.64-5.79-2.97-9.71
			c-0.33-3.92,0.1-8.08,1.66-11.12c1.5-0.18,3.06-0.3,4.68-0.34c1.63-0.04,3.33,0,5.12,0.13c0.3,0.89,0.68,1.71,1.15,2.44
			c0.47,0.74,1.02,1.39,1.66,1.97c-0.51,0.22-1.12,0.32-1.75,0.4c-0.63,0.08-1.28,0.15-1.86,0.29c-0.25-0.02-0.34-0.18-0.43-0.35
			c-0.09-0.17-0.16-0.35-0.38-0.4c-0.08,0.2,0.03,0.36,0.11,0.5c0.09,0.14,0.15,0.25-0.03,0.34c-0.42,0.17-0.62,0.03-0.8-0.18
			c-0.17-0.21-0.32-0.49-0.6-0.6c-0.05,0.25,0.05,0.38,0.14,0.5c0.1,0.12,0.2,0.24,0.18,0.47c-0.62,0.28-1.41,0.38-2.14,0.55
			s-1.38,0.41-1.75,0.97c-0.04-0.13-0.1-0.25-0.14-0.38c-0.04-0.13-0.08-0.28-0.06-0.46c-0.19,0.14-0.17,0.33-0.12,0.55
			c0.05,0.21,0.13,0.44,0.08,0.65c-0.16,0.11-0.33,0.23-0.51,0.32c-0.18,0.1-0.37,0.18-0.59,0.23c0.06-0.2,0.02-0.32-0.03-0.43
			c-0.02-0.05-0.04-0.1-0.05-0.16c-0.01,0.71-0.27,1.2-0.57,1.69c-0.34,0.54-0.73,1.06-0.89,1.83c-0.16-0.03-0.22-0.3-0.27-0.46
			c-0.05-0.16-0.09-0.21-0.2,0.2c-0.3-0.2-0.53-0.47-0.73-0.76c-0.21-0.29-0.4-0.59-0.64-0.85c-0.27,0.41-0.15,0.89,0.15,1.31
			c0.3,0.42,0.77,0.76,1.2,0.9c0.2,1.64,0.42,3.25,0.75,4.76s0.77,2.93,1.4,4.16c-0.1-1.34-0.48-2.67-0.83-4.09
			c-0.34-1.41-0.65-2.91-0.62-4.57c0.34,0.79,0.52,1.74,0.71,2.68c0.19,0.94,0.38,1.87,0.75,2.64c0.12-1.21-0.34-2.57-0.62-3.89
			c-0.28-1.32-0.38-2.6,0.45-3.64c0.38,0.68,0.64,1.48,0.9,2.27c0.26,0.79,0.53,1.57,0.95,2.22C76.87,70.78,76.73,71.08,76.57,71.39
			z M76.98,69.96c-0.05-0.71-0.75-1.91-1.18-3s-0.58-2.09,0.44-2.4c0.33,0.85,0.73,1.63,0.94,2.49S77.41,68.83,76.98,69.96z
			 M79.3,65.25c-0.65,0.62-1.17,1.39-1.74,2.1c-0.12-0.52-0.3-0.99-0.48-1.45c-0.18-0.47-0.36-0.93-0.48-1.45
			c0.5-0.45,1.17-0.72,1.88-0.95c0.71-0.23,1.46-0.41,2.13-0.68c0.3,0.12,0.44,0.4,0.59,0.66c0.15,0.26,0.32,0.51,0.67,0.59
			C80.74,64.16,79.95,64.63,79.3,65.25z M82.02,63.63c-0.32-0.29-0.6-0.7-0.81-0.91c0.54-0.27,0.82-0.05,1.06,0.26
			c0.24,0.31,0.43,0.7,0.81,0.77C82.7,64.07,82.34,63.92,82.02,63.63z M85.41,63.05c-0.63,0.23-1.28,0.44-1.86,0.73
			c-0.23-0.11-0.38-0.3-0.52-0.49c-0.14-0.19-0.29-0.39-0.51-0.5c0.84-0.02,1.67-0.43,2.46-0.7c0.79-0.27,1.54-0.39,2.22,0.17
			C86.67,62.58,86.05,62.82,85.41,63.05z M107.16,66.75c0,0-4.29-1.63-4.5-1.84c-0.21-0.21,0.39-0.12,0.39-0.12s4.36,1.64,4.57,1.82
			C107.83,66.79,107.16,66.75,107.16,66.75z M115.46,38.04c0.66,0.02,1.34,0.1,1.84,0.21c-1.17,0.78-2.57,1.24-4,1.67
			c-1.43,0.43-2.91,0.82-4.24,1.46c-0.55,0.26-1.05,0.66-1.54,1.04c-0.5,0.37-0.99,0.72-1.52,0.87c-1.22,0.34-2.54,0.3-3.88,0.13
			c-1.34-0.16-2.7-0.44-3.99-0.57c0.53,0.7,1.66,0.99,2.94,1.1c1.28,0.11,2.71,0.03,3.82,0c-0.67,0.78-1.08,1.65-1.42,2.6
			c-0.34,0.95-0.59,1.97-0.96,3.04c-0.7-0.39-1.35-0.82-1.97-1.28c-0.62-0.46-1.19-0.96-1.74-1.49c0.29,0.82,0.84,1.41,1.48,1.9
			c0.65,0.49,1.4,0.89,2.09,1.35c-0.07,0.07-0.11,0.17-0.13,0.3c-0.02,0.12-0.02,0.27-0.02,0.42c-0.73-0.51-1.55-1.19-2.38-1.91
			s-1.68-1.46-2.47-2.11c0.28,0.54,0.65,1,1.06,1.42s0.87,0.8,1.34,1.19c0.41,0.34,0.97,0.65,1.42,1.05
			c0.45,0.41,0.78,0.91,0.74,1.66c-0.51-0.01-1.04-0.25-1.61-0.5c-0.56-0.25-1.16-0.52-1.81-0.59c0.2,0.35,0.73,0.64,1.36,0.9
			s1.35,0.47,1.92,0.67c-0.07,0.28-0.12,0.58-0.17,0.87c-0.06,0.29-0.13,0.56-0.25,0.79c-0.58-0.4-1.13-0.84-1.72-1.22
			c-0.6-0.39-1.24-0.73-2.01-0.96c0.07,0.53,0.91,0.95,1.75,1.41c0.84,0.46,1.67,0.94,1.71,1.59c0.03,0.41-0.21,0.71-0.55,0.98
			c-0.33,0.26-0.75,0.49-1.08,0.75c-0.6-0.21-1.07-0.54-1.56-0.85c-0.5-0.31-1.02-0.59-1.72-0.71c0.63,0.62,1.32,1.1,2.04,1.58
			c0.71,0.48,1.44,0.96,2.14,1.57c0.33,0.29,0.67,0.6,0.99,0.91c0.33,0.31,0.65,0.63,0.96,0.96c0.3,0.31,0.57,0.67,0.84,1.02
			c0.27,0.35,0.55,0.69,0.87,0.96c0.65,0.54,1.41,0.94,2.18,1.32c0.77,0.38,1.56,0.75,2.26,1.25c-0.08,0.14-0.1,0.34-0.13,0.54
			c-0.02,0.2-0.05,0.4-0.15,0.52c-0.93-0.29-1.78-0.65-2.65-1c-0.87-0.35-1.75-0.68-2.75-0.91c-0.16-0.04-0.33-0.02-0.48,0.04
			s-0.29,0.16-0.38,0.3c-0.05,0.07-0.1,0.14-0.14,0.22c-0.05,0.08-0.09,0.16-0.12,0.25c-1.3,0.08-2.61,0.17-3.92,0.15
			c-1.3-0.01-2.59-0.13-3.83-0.47c0.56-0.31,1.28-0.44,1.95-0.62c0.68-0.18,1.31-0.41,1.69-0.9c-0.6-0.01-1.08,0.12-1.54,0.27
			c-0.46,0.15-0.88,0.3-1.35,0.33c-3.41,0.21-5.93-0.88-7.84-2.57s-3.22-3.98-4.23-6.15c-0.14-0.04-0.28-0.09-0.43-0.12
			c-0.15-0.03-0.32-0.05-0.52-0.03c0.24-0.13,0.5-0.27,0.79-0.33c0.28-0.07,0.59-0.07,0.9,0.04c-0.18-0.58-0.66-0.57-1.28-0.45
			c-0.61,0.12-1.36,0.35-2.06,0.2c0.27-0.28,0.56-0.36,0.9-0.37c0.35,0,0.75,0.07,1.26,0.1c-0.05-0.21-0.23-0.29-0.46-0.32
			s-0.5-0.04-0.72-0.08c0.59-2.19,2.8-2.11,5.16-1.83c2.36,0.29,4.86,0.78,6.05-0.59c-0.26,0.34-0.59,1.04-0.67,1.72
			c-0.07,0.68,0.12,1.35,0.89,1.63c0.06-0.22-0.04-0.45-0.16-0.69C92.13,53.4,92,53.15,92,52.89c-0.01-0.77,0.49-1.46,1.03-2.19
			c0.55-0.73,1.14-1.48,1.3-2.38c0.23-1.22,0.05-2.18-0.15-3.17c-0.2-0.99-0.67-2.64-0.3-3.42c0.33-0.68,1.53-1.14,2.66-1.46
			c1.12-0.31,2.45-0.49,3.88-0.67c1.11-0.14,2.18-0.24,3.22-0.31c1.04-0.07,2.04-0.12,3.01-0.16c1.19-0.04,2.35-0.32,3.5-0.57
			C111.29,38.33,114.8,38.02,115.46,38.04z M113.32,38.29c-0.49,0.04-0.96,0.21-1.39,0.37c-0.52,0.19-0.96,0.45-1.25,0.88
			c0.07,0.24,0.24,0.34,0.46,0.36c0.22,0.02,0.48-0.02,0.72-0.07c-0.01-0.11-0.06-0.18-0.14-0.22c-0.08-0.04-0.19-0.05-0.33-0.04
			c0.24-0.3,0.88-0.5,1.42-0.7c0.49-0.17,1.07-0.4,0.91-0.57C113.67,38.23,113.43,38.28,113.32,38.29z M101.71,55.35
			c0.09,0.09,0.18,0.18,0.33,0.21c0,0.52-0.12,0.91-0.25,1.28c-0.13,0.37-0.28,0.73-0.33,1.2c-0.19-0.15-0.4-0.28-0.62-0.41
			c-0.22-0.12-0.45-0.24-0.66-0.36c0.19-0.35,0.47-0.61,0.71-0.91c0.24-0.3,0.43-0.65,0.45-1.19
			C101.52,55.18,101.61,55.26,101.71,55.35z M102.52,53.84c-0.11,0.34-0.21,0.68-0.22,1.13c-0.16-0.05-0.27-0.14-0.37-0.23
			c-0.1-0.1-0.2-0.2-0.33-0.27c0.12-0.29,0.22-0.6,0.32-0.9c0.1-0.3,0.21-0.6,0.35-0.87c0.08,0,0.16,0.01,0.24,0.01
			c0.08,0,0.16,0.01,0.24,0.01C102.74,53.16,102.63,53.5,102.52,53.84z M103.2,51.65c-0.1,0.37-0.25,0.68-0.56,0.82
			c0-0.06-0.03-0.08-0.08-0.1c-0.05-0.01-0.11-0.02-0.15-0.03c0.13-0.26,0.17-0.6,0.23-0.96s0.13-0.73,0.33-1.05
			c0.05,0.05,0.12,0.08,0.2,0.11c0.08,0.02,0.17,0.03,0.28,0.03C103.35,50.86,103.3,51.28,103.2,51.65z M105.8,46.5
			c-0.33,0.36-0.66,0.73-0.93,1.16c-0.17-0.06-0.13-0.13-0.06-0.23c0.07-0.1,0.16-0.22,0.09-0.37c-0.39,0.36-0.58,0.95-0.77,1.53
			c-0.19,0.58-0.38,1.17-0.79,1.51c0-0.06-0.03-0.08-0.08-0.1c-0.05-0.01-0.11-0.02-0.15-0.03c0.35-0.97,0.77-1.86,1.23-2.71
			c0.46-0.85,0.96-1.65,1.48-2.44c0.27-0.02,0.4,0.09,0.51,0.22c0.11,0.12,0.21,0.26,0.42,0.3C106.47,45.78,106.13,46.14,105.8,46.5
			z M107.45,45c-0.04,0.03-0.08,0.08-0.1,0.15c-0.23-0.05-0.39-0.18-0.54-0.3c-0.15-0.13-0.3-0.26-0.51-0.33
			c0.15-0.31,0.47-0.36,0.76-0.26c0.28,0.1,0.53,0.36,0.54,0.67C107.55,44.94,107.49,44.96,107.45,45z M108.52,44.23
			c-0.17,0.09-0.36,0.15-0.54,0.22c-0.04-0.13-0.14-0.21-0.26-0.28c-0.11-0.07-0.24-0.13-0.32-0.22c0.1-0.46,0.33-0.48,0.62-0.38
			s0.62,0.32,0.94,0.32C108.84,44.04,108.69,44.15,108.52,44.23z M109.91,43.55c-0.54,0.05-1.08-0.06-1.64-0.4
			c0.35-0.41,0.9-0.52,1.5-0.49c0.59,0.03,1.23,0.21,1.73,0.38C110.97,43.3,110.44,43.5,109.91,43.55z M112.02,42.7
			c-0.37-0.13-0.76-0.32-1.21-0.29c0.32-0.32,0.72-0.34,1.13-0.24c0.41,0.1,0.81,0.31,1.13,0.45
			C112.73,42.91,112.39,42.84,112.02,42.7z M114.99,42.22c-0.75,0.08-1.52,0.03-2.25-0.21c0.72-0.24,1.43-0.53,2.15-0.65
			c0.72-0.12,1.44-0.08,2.17,0.34C116.45,41.95,115.73,42.15,114.99,42.22z M119.02,41.07c-0.76,0.24-1.65,0.3-2.67,0.01
			c0.71-0.22,1.4-0.6,2.15-0.87c0.74-0.28,1.53-0.45,2.44-0.26C120.42,40.41,119.79,40.83,119.02,41.07z M120.03,38.62
			c-0.64-0.02-1.3-0.04-1.9,0.03c0.14,0.1,0.32,0.17,0.5,0.22c0.19,0.06,0.38,0.11,0.56,0.18c-1.31,0.82-2.84,1.4-4.48,1.86
			c-1.64,0.46-3.4,0.79-5.19,1.09c1.29-0.8,2.94-1.21,4.54-1.67c1.6-0.46,3.14-0.99,4.2-2.04c0.68-0.08,1.45-0.04,2.23-0.01
			c0.77,0.03,1.54,0.05,2.19-0.05c0.12,0.1,0,0.17-0.2,0.22c-0.2,0.05-0.47,0.08-0.65,0.11C121.29,38.65,120.67,38.63,120.03,38.62z
			 M122.69,39.49c-0.45,0.02-0.89-0.03-1.24-0.23c0.35-0.06,0.8-0.14,1.25-0.16c0.45-0.02,0.9,0,1.26,0.14
			C123.58,39.36,123.13,39.47,122.69,39.49z M125.52,38.83c-0.07,0.09-0.14,0.18-0.13,0.35c-0.14-0.08-0.33-0.11-0.5-0.17
			c-0.16-0.06-0.3-0.15-0.32-0.34c0.24,0.03,0.39-0.03,0.54-0.1c0.15-0.06,0.3-0.13,0.54-0.1
			C125.66,38.65,125.59,38.74,125.52,38.83z"/>
	</g>
	<g>
		<g>
			<g>
				<path class="st2" d="M100.16,84.14c0.7-0.01,1.41-0.31,2.11-0.9c0.7-0.58,1.3-1.28,1.79-2.09c0.49-0.81,0.88-1.64,1.19-2.49
					c0.31-0.85,0.46-1.57,0.46-2.16c0-0.69-0.21-1.03-0.63-1.03h-0.02c-1.14,0-2.48,1.34-4.02,4.02c-1.53,2.65-2.75,5.64-3.66,8.97
					c-0.52,1.9-0.79,3.41-0.79,4.52c0,1.12,0.28,1.69,0.83,1.69c0.58,0,1.15-0.24,1.7-0.72c0.55-0.48,1.01-1.06,1.38-1.74
					c0.37-0.68,0.7-1.37,0.99-2.06c0.28-0.69,0.49-1.27,0.63-1.75l0.2-0.72c1.14,0.05,1.71,0.57,1.71,1.57
					c0,0.6-0.21,1.29-0.62,2.07c-0.41,0.78-0.93,1.51-1.56,2.2c-0.63,0.69-1.36,1.27-2.19,1.75c-0.83,0.48-1.62,0.72-2.37,0.72
					h-0.02c-1.17-0.02-2.03-0.43-2.58-1.24c-0.55-0.81-0.83-1.91-0.83-3.3c0-1.03,0.15-2.19,0.45-3.46c0.3-1.27,0.71-2.54,1.23-3.79
					c0.52-1.25,1.13-2.48,1.84-3.68c0.71-1.2,1.46-2.25,2.26-3.16c0.79-0.91,1.64-1.64,2.53-2.2c0.89-0.56,1.76-0.84,2.6-0.84
					c1.92,0,2.97,1.04,3.15,3.12c0,0.08,0,0.16,0,0.27c0,0.52-0.06,1.2-0.18,2.02c-0.12,0.82-0.3,1.7-0.53,2.62
					c-0.23,0.92-0.56,1.72-0.98,2.39c-0.42,0.67-0.88,1.04-1.39,1.1c-0.3,0.03-0.6,0.05-0.9,0.05c-0.88,0-1.67-0.13-2.37-0.4
					C100.85,85.22,100.39,84.77,100.16,84.14z"/>
				<path class="st2" d="M109.71,88.26c-0.21,0.73-0.31,1.39-0.31,1.96c0,1.05,0.34,1.57,1.03,1.57c0.36,0,0.72-0.09,1.09-0.27
					c0.37-0.18,0.68-0.39,0.94-0.62c0.26-0.23,0.53-0.53,0.81-0.9c0.28-0.37,0.48-0.66,0.61-0.87c0.13-0.21,0.28-0.47,0.46-0.79
					c0.3,0.17,0.45,0.46,0.45,0.88c0,0.27-0.08,0.54-0.22,0.81c-0.37,0.66-0.96,1.29-1.76,1.88c-0.8,0.59-1.69,0.89-2.66,0.89
					c-0.91,0-1.68-0.28-2.3-0.84c-0.62-0.56-0.93-1.31-0.93-2.24c0-0.45,0.09-0.93,0.27-1.44c0.6-1.77,1.42-3.21,2.45-4.34
					c1.03-1.12,2.24-1.69,3.62-1.69c0.85,0,1.44,0.16,1.76,0.48c0.32,0.32,0.48,0.75,0.48,1.27c0,0.64-0.21,1.38-0.62,2.21
					c-0.41,0.83-0.93,1.55-1.54,2.16c-0.61,0.61-1.18,0.91-1.69,0.91C110.97,89.29,110.33,88.95,109.71,88.26z M109.85,87.83
					c0.01,0,0.03,0,0.04,0c0.63,0,1.32-0.26,2.08-0.78c0.76-0.52,1.38-1.11,1.88-1.76c0.49-0.66,0.74-1.19,0.74-1.6
					c0-0.36-0.22-0.54-0.65-0.54h-0.02c-0.79,0.02-1.57,0.49-2.32,1.42C110.85,85.5,110.27,86.59,109.85,87.83z"/>
				<path class="st2" d="M123.61,82.21c0.64,0,1.1,0.12,1.36,0.36c0.26,0.24,0.39,0.52,0.39,0.83c0,0.15-0.02,0.28-0.07,0.4
					c-0.15,0.33-0.39,0.84-0.72,1.54s-0.62,1.31-0.87,1.83c-0.25,0.52-0.5,1.08-0.75,1.66c-0.26,0.58-0.45,1.08-0.6,1.48
					c-0.14,0.4-0.21,0.7-0.21,0.88h0.02c0.05,0,0.15-0.05,0.31-0.15c0.16-0.1,0.31-0.2,0.45-0.3l0.2-0.16
					c0.07,0.06,0.07,0.26,0,0.61c-0.03,0.15-0.17,0.36-0.42,0.63c-0.25,0.27-0.48,0.49-0.71,0.67l-0.34,0.29
					c-0.46-0.03-0.87-0.25-1.23-0.65c-0.35-0.4-0.52-0.86-0.51-1.37c0.12-0.4,0.33-0.95,0.62-1.64c0.29-0.69,0.68-1.57,1.16-2.65
					c0.48-1.08,0.9-2.08,1.26-2.99c-0.34,0.45-0.77,1.03-1.28,1.73c-0.51,0.7-1.25,1.83-2.21,3.37c-0.97,1.54-1.57,2.71-1.81,3.51
					c-0.06,0-0.13,0-0.21-0.01c-0.08-0.01-0.24-0.05-0.46-0.12c-0.22-0.07-0.42-0.17-0.6-0.29c-0.17-0.12-0.33-0.3-0.46-0.55
					c-0.13-0.25-0.2-0.54-0.2-0.89c0-0.12,0.01-0.25,0.02-0.38c0.09-0.64,0.4-1.6,0.92-2.88c0.52-1.27,1.03-2.38,1.53-3.33
					l0.72-1.44c0.06,0,0.13,0.01,0.22,0.02c0.09,0.02,0.25,0.05,0.49,0.09c0.24,0.04,0.45,0.1,0.62,0.17
					c0.17,0.07,0.33,0.17,0.47,0.3c0.14,0.13,0.21,0.28,0.19,0.45c-0.24,0.34-0.64,1.16-1.21,2.45c-0.57,1.29-1.06,2.45-1.46,3.48
					c0.09-0.19,0.22-0.45,0.38-0.75c0.16-0.31,0.48-0.86,0.96-1.66c0.47-0.8,0.92-1.51,1.35-2.12c0.43-0.61,0.89-1.17,1.39-1.67
					C122.84,82.46,123.26,82.21,123.61,82.21z"/>
				<path class="st2" d="M129.63,79.92c0.45,0,0.84,0.05,1.17,0.15c0.33,0.1,0.49,0.28,0.47,0.55c-0.11,0.21-0.23,0.48-0.38,0.82
					c-0.15,0.34-0.26,0.6-0.34,0.78l0.76-0.02h0.02c0.1,0,0.21,0.11,0.33,0.34c0.11,0.22,0.16,0.46,0.15,0.7h-1.71
					c-0.11,0.24-0.3,0.64-0.58,1.19c-1.42,2.86-2.24,4.87-2.45,6.02c-0.05,0.27-0.07,0.52-0.07,0.74h0.02
					c0.05,0,0.15-0.05,0.31-0.15c0.16-0.1,0.39-0.25,0.67-0.46c0.06,0.08,0.05,0.28-0.02,0.63c-0.03,0.15-0.17,0.36-0.42,0.63
					c-0.25,0.27-0.48,0.49-0.71,0.67l-0.34,0.29c-0.45-0.03-0.85-0.24-1.2-0.64c-0.35-0.4-0.53-0.84-0.53-1.34
					c0-0.6,0.19-1.4,0.58-2.42c0.39-1.01,1.13-2.73,2.23-5.16c-0.06,0-0.15,0-0.28,0c-0.13,0-0.24,0-0.35,0l-0.16-0.02
					c-0.15-0.04-0.26-0.13-0.31-0.25c-0.06-0.12-0.09-0.26-0.09-0.43c0-0.06,0.01-0.17,0.02-0.34h1.69c0.36-0.84,0.7-1.6,1.01-2.27
					C129.27,79.93,129.44,79.92,129.63,79.92z"/>
				<path class="st2" d="M132.87,82.21c0.06,0.02,0.13,0.03,0.22,0.04c0.09,0.02,0.25,0.05,0.47,0.1c0.22,0.05,0.42,0.12,0.6,0.19
					c0.17,0.08,0.33,0.17,0.48,0.28c0.15,0.11,0.22,0.24,0.22,0.37c0,0.05-0.02,0.1-0.04,0.16c-1.11,2.4-2.02,4.47-2.74,6.2
					l1.57-2.63c1.99-3.12,3.39-4.68,4.2-4.7c0.63,0,1.08,0.12,1.34,0.37c0.26,0.25,0.39,0.53,0.39,0.84c0,0.15-0.02,0.29-0.07,0.43
					c-0.05,0.12-0.23,0.51-0.55,1.18c-0.32,0.67-0.63,1.31-0.93,1.93c-0.3,0.62-0.45,0.96-0.45,1.02h0.02
					c0.04,0,0.15-0.05,0.31-0.15c0.16-0.1,0.32-0.2,0.47-0.3l0.2-0.16c0.06,0.06,0.05,0.26-0.02,0.61
					c-0.03,0.15-0.17,0.36-0.42,0.63c-0.25,0.27-0.48,0.5-0.71,0.7l-0.34,0.29c-0.49-0.03-0.93-0.19-1.3-0.49
					c-0.37-0.3-0.56-0.68-0.56-1.15c0-0.1,0.04-0.27,0.11-0.49c0.07-0.22,0.17-0.47,0.28-0.74c0.11-0.27,0.24-0.56,0.37-0.87
					c0.13-0.31,0.27-0.6,0.42-0.89c0.14-0.28,0.27-0.54,0.38-0.78c0.11-0.23,0.24-0.49,0.39-0.78c-0.4,0.54-0.91,1.23-1.53,2.06
					c-0.61,0.83-1.47,2.09-2.56,3.77c-1.09,1.68-1.72,2.83-1.87,3.46c-0.06,0-0.14-0.01-0.24-0.02c-0.1-0.02-0.27-0.06-0.51-0.13
					c-0.24-0.08-0.45-0.16-0.64-0.26c-0.19-0.1-0.36-0.25-0.51-0.45c-0.15-0.2-0.22-0.43-0.22-0.69c0-0.22,0.05-0.46,0.16-0.72
					L132.87,82.21z"/>
				<path class="st2" d="M144.99,82.69c0.37,0.28,0.62,0.55,0.75,0.82l0.2,0.43h-0.02c-0.57,0-1.12,0.23-1.66,0.69
					c-0.54,0.46-0.99,1-1.34,1.64c-0.35,0.64-0.64,1.28-0.85,1.92c-0.22,0.64-0.33,1.18-0.33,1.6c0,0.39,0.09,0.59,0.27,0.61
					c0.12-0.01,0.58-0.7,1.39-2.05c0.81-1.35,1.64-2.7,2.48-4.05c0.85-1.35,1.37-2.02,1.58-2.02c0.21,0,0.47,0.09,0.78,0.26
					c0.31,0.17,0.56,0.35,0.75,0.53l0.29,0.27c-0.48,0.96-0.82,1.63-1.01,2.02c-0.2,0.39-0.5,1.03-0.91,1.92
					c-0.41,0.89-0.7,1.63-0.88,2.23c-0.17,0.59-0.26,1.08-0.26,1.45c0,0.08,0,0.14,0,0.2c0,0.02,0.01,0.02,0.02,0.02
					c0.04,0,0.15-0.05,0.31-0.15c0.16-0.1,0.31-0.2,0.45-0.3l0.2-0.16c0.07,0.08,0.07,0.28,0,0.63c-0.03,0.15-0.17,0.36-0.42,0.63
					c-0.25,0.27-0.48,0.49-0.71,0.67l-0.34,0.29c-1.12,0-1.69-0.6-1.69-1.8c0-0.64,0.13-1.36,0.4-2.15
					c0.27-0.79,0.56-1.48,0.88-2.08c-1.99,3.55-3.06,5.33-3.21,5.33c-0.88,0-1.53-0.23-1.93-0.7c-0.4-0.46-0.61-1.09-0.61-1.89
					c0-0.93,0.24-1.97,0.72-3.14c0.48-1.16,1.05-2.14,1.7-2.92c0.65-0.79,1.23-1.18,1.72-1.18h0.02
					C144.22,82.28,144.63,82.42,144.99,82.69z"/>
				<path class="st2" d="M154.2,77.22c0.06,0.02,0.13,0.03,0.22,0.04c0.09,0.02,0.25,0.06,0.48,0.13c0.23,0.08,0.43,0.16,0.61,0.25
					c0.17,0.09,0.33,0.21,0.47,0.35c0.14,0.14,0.21,0.3,0.19,0.46c-0.18,0.39-0.57,1.21-1.17,2.47c-3.07,6.4-4.61,9.91-4.61,10.52
					h0.02c0.1,0,0.43-0.2,0.99-0.61c0.07,0.08,0.07,0.28,0,0.63c-0.03,0.15-0.17,0.36-0.42,0.63c-0.25,0.27-0.49,0.49-0.73,0.67
					l-0.34,0.29c-0.46-0.03-0.87-0.25-1.23-0.65c-0.35-0.4-0.52-0.86-0.51-1.37c-0.01-0.75,0.67-2.64,2.06-5.66
					C151.64,82.35,152.96,79.63,154.2,77.22z"/>
				<path class="st2" d="M156.4,88.26c-0.21,0.73-0.31,1.39-0.31,1.96c0,1.05,0.34,1.57,1.03,1.57c0.36,0,0.72-0.09,1.09-0.27
					c0.37-0.18,0.68-0.39,0.94-0.62c0.26-0.23,0.53-0.53,0.81-0.9c0.28-0.37,0.48-0.66,0.61-0.87c0.13-0.21,0.28-0.47,0.46-0.79
					c0.3,0.17,0.45,0.46,0.45,0.88c0,0.27-0.08,0.54-0.22,0.81c-0.37,0.66-0.96,1.29-1.76,1.88c-0.8,0.59-1.69,0.89-2.66,0.89
					c-0.91,0-1.68-0.28-2.3-0.84c-0.62-0.56-0.93-1.31-0.93-2.24c0-0.45,0.09-0.93,0.27-1.44c0.6-1.77,1.42-3.21,2.45-4.34
					c1.03-1.12,2.24-1.69,3.62-1.69c0.85,0,1.44,0.16,1.76,0.48c0.32,0.32,0.48,0.75,0.48,1.27c0,0.64-0.21,1.38-0.62,2.21
					c-0.41,0.83-0.93,1.55-1.54,2.16c-0.61,0.61-1.18,0.91-1.69,0.91C157.66,89.29,157.02,88.95,156.4,88.26z M156.54,87.83
					c0.01,0,0.03,0,0.04,0c0.63,0,1.32-0.26,2.08-0.78c0.76-0.52,1.38-1.11,1.88-1.76c0.49-0.66,0.74-1.19,0.74-1.6
					c0-0.36-0.22-0.54-0.65-0.54h-0.02c-0.79,0.02-1.57,0.49-2.32,1.42C157.54,85.5,156.96,86.59,156.54,87.83z"/>
			</g>
			<g>
				<path class="st2" d="M181.71,74.37c1.32,0,1.98,0.73,1.98,2.2c0,0.78-0.19,1.77-0.57,2.97c-0.38,1.2-0.84,2.38-1.37,3.53
					c-0.53,1.15-1.06,2.25-1.6,3.29c-0.53,1.04-0.97,1.9-1.32,2.56c-0.34,0.67-0.49,1.02-0.45,1.07c0.61-0.79,1.77-2.38,3.46-4.77
					c1.69-2.38,3.11-4.29,4.25-5.72c1.14-1.43,1.88-2.15,2.23-2.15c0.07,0,0.18,0,0.3,0.01c0.13,0.01,0.35,0.03,0.67,0.08
					c0.32,0.04,0.61,0.1,0.85,0.18c0.25,0.08,0.47,0.2,0.67,0.37c0.2,0.17,0.3,0.38,0.3,0.62c-1.69,2.55-3.67,6.65-5.93,12.3
					c0.51-0.78,1.18-1.86,2.02-3.25c0.84-1.39,1.58-2.58,2.21-3.59c0.64-1,1.36-2.09,2.18-3.25c0.82-1.16,1.67-2.21,2.55-3.14
					c0.88-0.93,1.79-1.72,2.72-2.36c0.06,0,0.14,0,0.25,0.01c0.1,0.01,0.29,0.03,0.56,0.08c0.27,0.04,0.51,0.1,0.71,0.18
					c0.2,0.08,0.39,0.2,0.55,0.37c0.16,0.17,0.25,0.38,0.25,0.62c-0.05,0.09-0.3,0.57-0.76,1.43c-0.46,0.86-0.78,1.45-0.96,1.78
					c-0.17,0.32-0.49,0.93-0.94,1.83c-0.46,0.9-0.8,1.59-1.02,2.08c-0.22,0.49-0.52,1.15-0.9,2c-0.37,0.85-0.66,1.56-0.87,2.15
					c-0.2,0.58-0.41,1.23-0.63,1.93c-0.22,0.7-0.37,1.35-0.47,1.94c-0.1,0.59-0.15,1.14-0.15,1.65c0,1.21,0.3,2.12,0.9,2.72
					c-0.48,0.12-1.01,0.18-1.6,0.18c-1.59,0-2.58-0.51-2.99-1.53c-0.05-0.15-0.07-0.33-0.07-0.54c0-0.7,0.25-1.79,0.75-3.25
					c0.5-1.46,1.06-2.88,1.66-4.27c0.61-1.39,1.31-2.9,2.11-4.54c0.8-1.64,1.36-2.76,1.67-3.37c0.31-0.61,0.56-1.08,0.74-1.43
					c-0.28,0.37-0.66,0.87-1.14,1.49c-0.47,0.62-1.31,1.77-2.52,3.45s-2.27,3.22-3.2,4.63c-0.93,1.41-1.78,2.84-2.54,4.28
					c-0.76,1.45-1.15,2.49-1.17,3.14c0.01,0.21-0.39,0.31-1.21,0.31c-0.64,0-1.25-0.1-1.81-0.29c-0.56-0.2-0.88-0.49-0.96-0.88
					c0.06-0.82,0.57-2.33,1.53-4.51c0.96-2.18,1.9-4.15,2.83-5.92l1.39-2.65c-0.26,0.31-0.6,0.74-1.02,1.27
					c-0.43,0.53-1.2,1.53-2.33,2.99c-1.12,1.46-2.14,2.81-3.05,4.06c-0.91,1.24-1.78,2.54-2.63,3.89c-0.85,1.35-1.38,2.37-1.61,3.06
					c-0.05,0.33-0.35,0.49-0.92,0.49c-0.43,0-0.86-0.1-1.27-0.3c-0.41-0.2-0.62-0.44-0.62-0.71c0-2.55,1.59-6.73,4.77-12.54
					c0.33-0.61,0.82-1.49,1.46-2.63c1.35-2.43,2.04-3.81,2.07-4.14c0-0.09-0.04-0.13-0.11-0.13c-0.02,0-0.03,0-0.04,0
					c-0.66,0-1.41,0.23-2.24,0.7c-0.83,0.46-1.61,1.06-2.34,1.79c-0.73,0.73-1.34,1.6-1.83,2.63c-0.49,1.03-0.74,2.04-0.74,3.05
					c0,0.34,0.03,0.68,0.09,1.01c-0.18,0.02-0.4,0.02-0.65,0.02c-0.37,0-0.74-0.01-1.09-0.04c-0.35-0.03-0.74-0.09-1.16-0.17
					c-0.42-0.08-0.76-0.21-1.03-0.39c-0.27-0.18-0.41-0.4-0.43-0.67c0-0.06,0-0.12-0.01-0.18c-0.01-0.06-0.01-0.12-0.01-0.18
					c0-1.09,0.36-2.19,1.09-3.29c0.73-1.1,1.64-2.06,2.75-2.87c1.11-0.81,2.36-1.47,3.74-1.98
					C179.13,74.62,180.45,74.37,181.71,74.37z"/>
				<path class="st2" d="M201.19,82.69c0.37,0.28,0.62,0.55,0.75,0.82l0.2,0.43h-0.02c-0.57,0-1.12,0.23-1.66,0.69
					c-0.54,0.46-0.99,1-1.34,1.64c-0.35,0.64-0.64,1.28-0.85,1.92c-0.22,0.64-0.33,1.18-0.33,1.6c0,0.39,0.09,0.59,0.27,0.61
					c0.12-0.01,0.58-0.7,1.39-2.05c0.81-1.35,1.64-2.7,2.48-4.05c0.85-1.35,1.37-2.02,1.58-2.02c0.21,0,0.47,0.09,0.78,0.26
					c0.31,0.17,0.56,0.35,0.75,0.53l0.29,0.27c-0.48,0.96-0.82,1.63-1.01,2.02c-0.2,0.39-0.5,1.03-0.91,1.92
					c-0.41,0.89-0.7,1.63-0.88,2.23c-0.17,0.59-0.26,1.08-0.26,1.45c0,0.08,0,0.14,0,0.2c0,0.02,0.01,0.02,0.02,0.02
					c0.04,0,0.15-0.05,0.31-0.15c0.16-0.1,0.31-0.2,0.45-0.3l0.2-0.16c0.07,0.08,0.07,0.28,0,0.63c-0.03,0.15-0.17,0.36-0.42,0.63
					c-0.25,0.27-0.48,0.49-0.71,0.67l-0.34,0.29c-1.12,0-1.69-0.6-1.69-1.8c0-0.64,0.13-1.36,0.4-2.15
					c0.27-0.79,0.56-1.48,0.88-2.08c-1.99,3.55-3.06,5.33-3.21,5.33c-0.88,0-1.53-0.23-1.93-0.7c-0.4-0.46-0.61-1.09-0.61-1.89
					c0-0.93,0.24-1.97,0.72-3.14c0.48-1.16,1.05-2.14,1.7-2.92c0.65-0.79,1.23-1.18,1.72-1.18h0.02
					C200.42,82.28,200.82,82.42,201.19,82.69z"/>
				<path class="st2" d="M207.92,82.21c0.06,0.02,0.13,0.03,0.22,0.04c0.09,0.02,0.25,0.05,0.47,0.1c0.22,0.05,0.42,0.12,0.6,0.19
					c0.17,0.08,0.33,0.17,0.48,0.28s0.22,0.24,0.22,0.37c0,0.05-0.02,0.1-0.04,0.16c-1.11,2.4-2.02,4.47-2.74,6.2l1.57-2.63
					c1.99-3.12,3.39-4.68,4.2-4.7c0.63,0,1.07,0.12,1.34,0.37c0.26,0.25,0.39,0.53,0.39,0.84c0,0.15-0.02,0.29-0.07,0.43
					c-0.04,0.12-0.23,0.51-0.55,1.18c-0.32,0.67-0.63,1.31-0.93,1.93s-0.45,0.96-0.45,1.02h0.02c0.04,0,0.15-0.05,0.31-0.15
					c0.16-0.1,0.32-0.2,0.47-0.3l0.2-0.16c0.06,0.06,0.05,0.26-0.02,0.61c-0.03,0.15-0.17,0.36-0.42,0.63
					c-0.25,0.27-0.48,0.5-0.71,0.7l-0.34,0.29c-0.49-0.03-0.93-0.19-1.3-0.49c-0.37-0.3-0.56-0.68-0.56-1.15
					c0-0.1,0.04-0.27,0.11-0.49c0.07-0.22,0.17-0.47,0.28-0.74c0.11-0.27,0.24-0.56,0.37-0.87c0.13-0.31,0.27-0.6,0.42-0.89
					c0.14-0.28,0.27-0.54,0.38-0.78c0.11-0.23,0.24-0.49,0.39-0.78c-0.4,0.54-0.91,1.23-1.53,2.06c-0.61,0.83-1.47,2.09-2.56,3.77
					c-1.09,1.68-1.72,2.83-1.87,3.46c-0.06,0-0.14-0.01-0.24-0.02c-0.1-0.02-0.27-0.06-0.51-0.13c-0.24-0.08-0.45-0.16-0.64-0.26
					c-0.19-0.1-0.36-0.25-0.51-0.45c-0.15-0.2-0.22-0.43-0.22-0.69c0-0.22,0.05-0.46,0.16-0.72L207.92,82.21z"/>
				<path class="st2" d="M218.04,82.28c0.9,0,1.51,0.42,1.84,1.26l0.74-1.26c0.7,0.43,1.06,0.73,1.06,0.88
					c0,0.1-0.39,0.55-1.17,1.34c-0.78,0.79-1.2,1.18-1.26,1.18c-0.03,0-0.08-0.03-0.14-0.09c-0.06-0.06-0.11-0.13-0.16-0.2
					l-0.07-0.09l0.5-0.85c-0.99,0.51-1.48,1.19-1.48,2.05c0,0.42,0.2,1.17,0.61,2.25c0.84-0.37,1.72-0.82,2.65-1.35
					c0.01,0.02,0.03,0.04,0.03,0.08c0.01,0.04,0.02,0.1,0.03,0.19c0.02,0.09,0,0.16-0.04,0.2c-0.81,0.61-1.63,1.12-2.45,1.53
					c0.37,1.05,0.56,1.81,0.56,2.29c0,0.36-0.09,0.64-0.28,0.83s-0.49,0.29-0.91,0.29c-0.55,0-1.08-0.11-1.58-0.31
					c-0.5-0.21-0.93-0.49-1.27-0.83c-0.34-0.34-0.62-0.66-0.83-0.93c-0.21-0.28-0.4-0.57-0.56-0.87c0.08,0,0.15,0,0.22,0
					c0.91,0,2.01-0.22,3.28-0.67c-0.08-0.22-0.4-0.98-0.99-2.27c-0.34-0.78-0.52-1.35-0.52-1.71c0-0.7,0.19-1.37,0.58-1.99
					C216.83,82.59,217.36,82.28,218.04,82.28z M217.5,89.9c-0.67,0.24-1.48,0.43-2.43,0.56c0.33,0.22,0.79,0.34,1.39,0.34
					c0.05,0,0.1,0,0.16,0C217.24,90.78,217.53,90.48,217.5,89.9z"/>
				<path class="st2" d="M224.09,88.26c-0.21,0.73-0.31,1.39-0.31,1.96c0,1.05,0.34,1.57,1.03,1.57c0.36,0,0.72-0.09,1.09-0.27
					c0.37-0.18,0.68-0.39,0.94-0.62c0.26-0.23,0.53-0.53,0.81-0.9c0.28-0.37,0.48-0.66,0.61-0.87c0.13-0.21,0.28-0.47,0.46-0.79
					c0.3,0.17,0.45,0.46,0.45,0.88c0,0.27-0.08,0.54-0.22,0.81c-0.37,0.66-0.96,1.29-1.76,1.88c-0.8,0.59-1.69,0.89-2.66,0.89
					c-0.91,0-1.68-0.28-2.3-0.84c-0.62-0.56-0.93-1.31-0.93-2.24c0-0.45,0.09-0.93,0.27-1.44c0.6-1.77,1.42-3.21,2.45-4.34
					c1.03-1.12,2.24-1.69,3.62-1.69c0.85,0,1.44,0.16,1.77,0.48c0.32,0.32,0.48,0.75,0.48,1.27c0,0.64-0.21,1.38-0.62,2.21
					s-0.93,1.55-1.54,2.16c-0.61,0.61-1.18,0.91-1.69,0.91C225.34,89.29,224.7,88.95,224.09,88.26z M224.22,87.83
					c0.02,0,0.03,0,0.05,0c0.63,0,1.32-0.26,2.08-0.78s1.38-1.11,1.88-1.76c0.49-0.66,0.74-1.19,0.74-1.6
					c0-0.36-0.22-0.54-0.65-0.54h-0.02c-0.79,0.02-1.57,0.49-2.31,1.42C225.22,85.5,224.64,86.59,224.22,87.83z"/>
				<path class="st2" d="M233.3,82.28c0.06,0,0.14,0,0.22,0.01c0.09,0.01,0.25,0.03,0.49,0.08c0.24,0.05,0.45,0.1,0.64,0.16
					c0.19,0.06,0.36,0.15,0.52,0.28c0.16,0.13,0.24,0.27,0.26,0.44c-1.53,2.77-2.5,4.74-2.92,5.91c-0.28,0.82-0.43,1.5-0.43,2.02
					h0.02c0.05,0,0.15-0.05,0.32-0.15c0.16-0.1,0.32-0.2,0.47-0.3l0.2-0.16c0.06,0.08,0.05,0.28-0.02,0.63
					c-0.03,0.15-0.17,0.36-0.42,0.63c-0.25,0.27-0.48,0.49-0.71,0.67l-0.34,0.29c-0.45-0.03-0.85-0.24-1.2-0.64
					c-0.35-0.4-0.53-0.84-0.53-1.34c0-0.16,0.02-0.36,0.07-0.57c0.05-0.22,0.12-0.47,0.21-0.76c0.1-0.29,0.19-0.57,0.28-0.84
					c0.09-0.27,0.22-0.6,0.39-1c0.17-0.4,0.32-0.74,0.44-1.02c0.12-0.28,0.29-0.66,0.51-1.12c0.22-0.46,0.39-0.82,0.51-1.08
					c0.12-0.25,0.3-0.63,0.53-1.11C233.05,82.81,233.21,82.47,233.3,82.28z M235.3,78.64c0.06,0,0.13,0.01,0.22,0.03
					c0.09,0.02,0.25,0.06,0.48,0.12c0.23,0.06,0.43,0.13,0.61,0.21c0.17,0.08,0.33,0.2,0.48,0.35c0.15,0.15,0.23,0.31,0.25,0.47
					c-0.1,0.11-0.24,0.24-0.42,0.42c-0.17,0.17-0.4,0.45-0.67,0.82c-0.28,0.37-0.42,0.67-0.42,0.88c0,0.03,0.01,0.06,0.02,0.09
					c-0.04,0-0.09,0-0.14,0c-0.31,0-0.67-0.1-1.07-0.3c-0.4-0.2-0.62-0.44-0.66-0.71c0-0.04,0-0.1,0-0.16
					c0-0.31,0.11-0.66,0.33-1.02c0.22-0.37,0.43-0.66,0.64-0.89L235.3,78.64z"/>
				<path class="st2" d="M240.45,77.22c0.06,0.02,0.14,0.03,0.22,0.04c0.09,0.02,0.25,0.06,0.48,0.13c0.23,0.08,0.43,0.16,0.61,0.25
					c0.17,0.09,0.33,0.21,0.47,0.35c0.14,0.14,0.21,0.3,0.19,0.46c-0.18,0.39-0.57,1.21-1.17,2.47c-3.07,6.4-4.61,9.91-4.61,10.52
					h0.02c0.1,0,0.43-0.2,0.99-0.61c0.07,0.08,0.07,0.28,0,0.63c-0.03,0.15-0.17,0.36-0.42,0.63c-0.25,0.27-0.49,0.49-0.73,0.67
					l-0.34,0.29c-0.46-0.03-0.87-0.25-1.23-0.65c-0.35-0.4-0.52-0.86-0.51-1.37c-0.01-0.75,0.67-2.64,2.06-5.66
					C237.89,82.35,239.21,79.63,240.45,77.22z"/>
				<path class="st2" d="M245.37,77.22c0.06,0.02,0.14,0.03,0.22,0.04c0.09,0.02,0.25,0.06,0.48,0.13c0.23,0.08,0.43,0.16,0.61,0.25
					c0.17,0.09,0.33,0.21,0.47,0.35c0.14,0.14,0.21,0.3,0.19,0.46c-0.18,0.39-0.57,1.21-1.17,2.47c-3.07,6.4-4.61,9.91-4.61,10.52
					h0.02c0.1,0,0.43-0.2,0.99-0.61c0.07,0.08,0.07,0.28,0,0.63c-0.03,0.15-0.17,0.36-0.42,0.63c-0.25,0.27-0.49,0.49-0.73,0.67
					l-0.34,0.29c-0.46-0.03-0.87-0.25-1.23-0.65c-0.35-0.4-0.52-0.86-0.51-1.37c-0.01-0.75,0.67-2.64,2.06-5.66
					C242.81,82.35,244.13,79.63,245.37,77.22z"/>
				<path class="st2" d="M247.58,88.26c-0.21,0.73-0.31,1.39-0.31,1.96c0,1.05,0.34,1.57,1.03,1.57c0.36,0,0.72-0.09,1.09-0.27
					c0.37-0.18,0.68-0.39,0.94-0.62c0.26-0.23,0.53-0.53,0.81-0.9c0.28-0.37,0.48-0.66,0.61-0.87c0.13-0.21,0.28-0.47,0.46-0.79
					c0.3,0.17,0.45,0.46,0.45,0.88c0,0.27-0.08,0.54-0.22,0.81c-0.37,0.66-0.96,1.29-1.76,1.88c-0.8,0.59-1.69,0.89-2.66,0.89
					c-0.91,0-1.68-0.28-2.3-0.84c-0.62-0.56-0.93-1.31-0.93-2.24c0-0.45,0.09-0.93,0.27-1.44c0.6-1.77,1.42-3.21,2.45-4.34
					c1.03-1.12,2.24-1.69,3.62-1.69c0.85,0,1.44,0.16,1.77,0.48c0.32,0.32,0.48,0.75,0.48,1.27c0,0.64-0.21,1.38-0.62,2.21
					s-0.93,1.55-1.54,2.16c-0.61,0.61-1.18,0.91-1.69,0.91C248.83,89.29,248.19,88.95,247.58,88.26z M247.71,87.83
					c0.02,0,0.03,0,0.05,0c0.63,0,1.32-0.26,2.08-0.78s1.38-1.11,1.88-1.76c0.49-0.66,0.74-1.19,0.74-1.6
					c0-0.36-0.22-0.54-0.65-0.54h-0.02c-0.79,0.02-1.57,0.49-2.31,1.42C248.71,85.5,248.13,86.59,247.71,87.83z"/>
			</g>
		</g>
		<g>
			<path class="st2" d="M227.01,109.59c1.03-0.33,2.08-0.9,3.14-1.7c1.06-0.8,1.98-1.65,2.74-2.54c0.76-0.89,1.38-1.75,1.87-2.58
				c0.49-0.83,0.73-1.46,0.73-1.9c0-0.33-0.15-0.5-0.44-0.5h-0.03c-1.31,0-3.47,1.47-6.49,4.42c-2.2,2.15-3.84,4.01-4.92,5.6
				c-0.35,0.52-0.52,0.88-0.52,1.07c0,0.21,0.27,0.39,0.82,0.54c0.55,0.15,1.21,0.3,1.99,0.45c0.78,0.15,1.55,0.34,2.33,0.58
				c0.78,0.24,1.44,0.62,1.99,1.15c0.55,0.53,0.82,1.17,0.82,1.92c0,1.15-0.61,2.32-1.83,3.51c-1.22,1.19-2.7,2.16-4.45,2.91
				c-1.75,0.75-3.38,1.13-4.89,1.13c-1.43,0-2.44-0.24-3.02-0.72c-0.59-0.48-0.88-1.3-0.88-2.45c0-0.07,0-0.13,0-0.18
				c0.07,0.09,0.17,0.2,0.29,0.33c0.12,0.13,0.38,0.3,0.79,0.51c0.4,0.21,0.82,0.31,1.26,0.31c0.02,0,0.04,0,0.05,0
				c0.31,0,0.84-0.12,1.57-0.35c0.73-0.24,1.56-0.57,2.47-1s1.79-0.9,2.63-1.43c0.84-0.52,1.54-1.12,2.12-1.78
				c0.58-0.66,0.86-1.31,0.86-1.94c0-0.63-0.58-1.08-1.73-1.36c-0.3-0.07-0.79-0.17-1.49-0.29c-1.85-0.31-3.11-0.69-3.77-1.13
				c-0.8-0.56-1.2-1.33-1.2-2.3c0-0.45,0.53-1.29,1.58-2.51c1.06-1.22,2.29-2.46,3.69-3.72c1.41-1.26,2.85-2.37,4.35-3.35
				c1.49-0.98,2.61-1.47,3.36-1.47c1.45,0,2.57,0.33,3.35,0.98s1.18,1.44,1.18,2.34c0,0.05,0,0.11,0,0.16
				c-0.04,0.59-0.45,1.68-1.24,3.26c-0.79,1.58-1.72,3.08-2.79,4.5c-1.06,1.42-1.92,2.13-2.57,2.13h-0.03
				c-0.63-0.02-1.25-0.24-1.86-0.68c-0.61-0.44-1.06-0.87-1.36-1.31L227.01,109.59z"/>
			<path class="st2" d="M237.3,108.05c0.07,0,0.16,0,0.26,0.01c0.11,0.01,0.3,0.04,0.58,0.09c0.28,0.05,0.53,0.11,0.75,0.18
				c0.22,0.07,0.42,0.18,0.6,0.33s0.28,0.32,0.3,0.51c-1.78,3.23-2.91,5.52-3.4,6.88c-0.33,0.96-0.5,1.75-0.5,2.36h0.03
				c0.05,0,0.17-0.06,0.37-0.17c0.19-0.11,0.37-0.23,0.55-0.35l0.23-0.18c0.07,0.09,0.06,0.33-0.03,0.73
				c-0.03,0.18-0.2,0.42-0.48,0.73c-0.29,0.31-0.56,0.58-0.82,0.79l-0.39,0.34c-0.52-0.04-0.99-0.28-1.4-0.75
				c-0.41-0.46-0.61-0.98-0.61-1.56c0-0.19,0.03-0.41,0.08-0.67c0.05-0.25,0.14-0.55,0.25-0.89c0.11-0.34,0.22-0.67,0.33-0.98
				c0.1-0.31,0.26-0.7,0.46-1.16c0.2-0.46,0.37-0.86,0.51-1.19c0.14-0.33,0.34-0.77,0.59-1.31c0.25-0.54,0.45-0.96,0.59-1.26
				c0.14-0.3,0.34-0.73,0.61-1.3C237,108.67,237.19,108.27,237.3,108.05z M239.63,103.81c0.07,0,0.16,0.01,0.26,0.04
				c0.1,0.03,0.29,0.07,0.56,0.14c0.27,0.07,0.51,0.15,0.71,0.25c0.2,0.1,0.39,0.23,0.56,0.41c0.17,0.18,0.27,0.36,0.29,0.55
				c-0.12,0.12-0.28,0.28-0.48,0.48c-0.2,0.2-0.46,0.52-0.78,0.96c-0.32,0.44-0.48,0.78-0.48,1.02c0,0.04,0.01,0.07,0.03,0.1
				c-0.05,0-0.1,0-0.16,0c-0.37,0-0.78-0.12-1.24-0.35c-0.46-0.24-0.72-0.51-0.77-0.82c0-0.05,0-0.11,0-0.18
				c0-0.37,0.13-0.76,0.38-1.19c0.25-0.43,0.5-0.77,0.75-1.03L239.63,103.81z"/>
			<path class="st2" d="M244.76,105.3c0.52,0,0.98,0.06,1.36,0.17c0.38,0.11,0.57,0.33,0.55,0.64c-0.12,0.24-0.27,0.56-0.45,0.96
				c-0.17,0.39-0.31,0.69-0.39,0.9l0.89-0.03h0.03c0.12,0,0.25,0.13,0.38,0.39c0.13,0.26,0.19,0.53,0.17,0.81h-1.99
				c-0.12,0.28-0.35,0.74-0.68,1.39c-1.66,3.33-2.61,5.67-2.85,7.02c-0.05,0.31-0.08,0.6-0.08,0.86h0.03c0.05,0,0.17-0.06,0.37-0.17
				c0.19-0.11,0.45-0.29,0.78-0.54c0.07,0.09,0.06,0.33-0.03,0.73c-0.04,0.18-0.2,0.42-0.48,0.73c-0.29,0.31-0.56,0.58-0.82,0.79
				l-0.39,0.34c-0.52-0.04-0.99-0.28-1.4-0.75c-0.41-0.46-0.61-0.98-0.61-1.56c0-0.7,0.23-1.64,0.68-2.81
				c0.45-1.18,1.32-3.18,2.59-6.01c-0.07,0-0.18,0-0.33,0s-0.28,0-0.41,0l-0.18-0.03c-0.17-0.05-0.3-0.15-0.37-0.29
				c-0.07-0.14-0.1-0.3-0.1-0.5c0-0.07,0.01-0.2,0.03-0.39H243c0.42-0.98,0.81-1.86,1.18-2.64
				C244.34,105.31,244.53,105.3,244.76,105.3z"/>
			<path class="st2" d="M248.24,115.01c-0.24,0.86-0.37,1.61-0.37,2.28c0,1.22,0.4,1.83,1.2,1.83c0.42,0,0.84-0.11,1.27-0.31
				c0.43-0.21,0.79-0.45,1.1-0.72c0.31-0.27,0.62-0.62,0.94-1.05c0.32-0.43,0.56-0.76,0.71-1.01c0.15-0.24,0.33-0.55,0.54-0.92
				c0.35,0.19,0.52,0.53,0.52,1.02c0,0.31-0.09,0.63-0.26,0.94c-0.44,0.77-1.12,1.5-2.05,2.19c-0.93,0.69-1.97,1.03-3.1,1.03
				c-1.06,0-1.96-0.33-2.68-0.98c-0.72-0.65-1.09-1.52-1.09-2.6c0-0.52,0.11-1.08,0.31-1.68c0.7-2.06,1.65-3.74,2.85-5.05
				c1.2-1.31,2.61-1.96,4.21-1.96c1,0,1.68,0.19,2.06,0.56c0.37,0.38,0.56,0.87,0.56,1.48c0,0.75-0.24,1.61-0.72,2.58
				c-0.48,0.97-1.08,1.81-1.79,2.51c-0.72,0.71-1.37,1.06-1.96,1.06C249.7,116.21,248.95,115.81,248.24,115.01z M248.39,114.51
				c0.02,0,0.04,0,0.05,0c0.73,0,1.54-0.3,2.42-0.9c0.88-0.6,1.61-1.29,2.19-2.05c0.58-0.77,0.86-1.39,0.86-1.86
				c0-0.42-0.25-0.63-0.76-0.63h-0.03c-0.93,0.02-1.82,0.57-2.7,1.65C249.56,111.8,248.88,113.06,248.39,114.51z"/>
			<path class="st2" d="M286.14,98.83c0.92,0,2.02,0.19,3.28,0.58c1.27,0.38,1.91,0.89,1.92,1.52c-1.24,2.79-2.36,6.1-3.36,9.92
				c-1,3.82-1.5,6.99-1.5,9.5c0,2.81,0.69,4.22,2.07,4.24c-0.58,0.21-1.22,0.31-1.94,0.31c-1.4,0-2.4-0.52-3.01-1.57
				c-0.28-0.45-0.42-1.21-0.42-2.28c0-1.45,0.38-4.2,1.15-8.25c-0.98,0.04-2,0.08-3.06,0.13c-0.4,0.51-1.03,1.33-1.88,2.46
				c-2.39,3.14-4.21,5.31-5.47,6.52c-1.87,1.78-3.51,2.68-4.92,2.7c-0.04,0-0.07,0-0.11,0c-0.65-0.02-1.25-0.16-1.81-0.42
				c-0.56-0.26-1-0.58-1.34-0.94c-0.33-0.37-0.61-0.73-0.85-1.09c-0.24-0.36-0.4-0.66-0.48-0.9l-0.16-0.37
				c0.37,0.07,0.74,0.1,1.13,0.1c1.26,0,2.59-0.36,3.99-1.07c1.41-0.72,2.69-1.59,3.85-2.62c1.16-1.03,2.3-2.2,3.42-3.51
				c-2.09,0.3-3.4,0.57-3.93,0.81c-0.44-0.07-0.88-0.31-1.32-0.73c-0.44-0.42-0.78-0.82-1.01-1.2l-0.31-0.58
				c2.06-0.58,4.78-0.86,8.17-0.86c0.14,0,0.28,0,0.42,0C282.63,105.8,285.13,101.66,286.14,98.83z M286.64,104.33
				c-1.75,3.35-3.09,5.65-4.03,6.91c0.58,0.05,1.22,0.13,1.94,0.24c0.16-1.03,0.41-2.14,0.76-3.32c0.35-1.19,0.66-2.12,0.94-2.8
				L286.64,104.33z"/>
			<path class="st2" d="M296.11,102.16c0.07,0.02,0.16,0.04,0.26,0.05c0.1,0.02,0.29,0.07,0.56,0.16c0.27,0.09,0.51,0.18,0.71,0.29
				c0.2,0.11,0.38,0.24,0.55,0.41c0.17,0.17,0.24,0.34,0.22,0.54c-0.21,0.45-0.66,1.41-1.36,2.88c-3.58,7.45-5.37,11.54-5.37,12.25
				h0.03c0.12,0,0.51-0.24,1.15-0.71c0.09,0.09,0.09,0.33,0,0.73c-0.04,0.18-0.2,0.42-0.48,0.73c-0.29,0.31-0.57,0.58-0.85,0.79
				l-0.39,0.34c-0.54-0.04-1.02-0.29-1.43-0.76c-0.41-0.47-0.61-1-0.59-1.6c-0.02-0.87,0.78-3.07,2.4-6.6
				C293.13,108.13,294.66,104.97,296.11,102.16z"/>
			<path class="st2" d="M299.04,107.97c0.17,0.02,0.4,0.04,0.67,0.07c0.27,0.03,0.62,0.14,1.06,0.34c0.44,0.2,0.65,0.46,0.63,0.77
				c-1.68,3.26-3.39,7.25-5.16,11.96c0.77-1.92,1.62-3.84,2.57-5.76c0.94-1.92,1.9-3.62,2.87-5.09c0.97-1.47,1.71-2.21,2.21-2.21
				c0.02,0,0.04,0,0.05,0c0.91,0,1.57,0.25,2,0.76c0.43,0.51,0.64,1.2,0.64,2.07c0,1.19-0.33,2.53-0.98,4.02
				c-0.65,1.49-1.46,2.77-2.42,3.82c-0.96,1.06-1.83,1.58-2.62,1.58c-0.45-0.02-0.93-0.2-1.41-0.54c-0.49-0.34-0.8-0.78-0.94-1.32
				c0.19,0.05,0.38,0.08,0.58,0.08c0.72,0,1.4-0.34,2.04-1.01c0.65-0.67,1.17-1.48,1.58-2.42c0.41-0.94,0.74-1.87,0.98-2.79
				c0.24-0.92,0.37-1.65,0.37-2.21c0-0.47-0.09-0.7-0.26-0.68c-0.4-0.02-1.26,1.16-2.57,3.52c-1.31,2.36-2.54,4.83-3.7,7.41
				c-1.16,2.57-1.78,4.18-1.85,4.83c-0.05,0-0.11,0-0.18,0c-0.77,0-1.42-0.19-1.95-0.56c-0.53-0.38-0.8-0.96-0.8-1.74L299.04,107.97
				z"/>
			<path class="st2" d="M312.92,102.42c0.07,0,0.16,0,0.27,0.01c0.11,0.01,0.31,0.04,0.6,0.08c0.29,0.04,0.54,0.1,0.76,0.17
				c0.22,0.07,0.41,0.18,0.59,0.31c0.17,0.14,0.25,0.31,0.24,0.5c-0.91,1.61-2.73,5.6-5.47,11.99c0.12-0.21,0.29-0.48,0.5-0.82
				c0.21-0.34,0.61-0.94,1.19-1.81c0.59-0.86,1.14-1.63,1.66-2.3c0.52-0.67,1.09-1.28,1.7-1.82c0.61-0.54,1.12-0.81,1.52-0.81
				c1.17,0,1.75,0.38,1.75,1.13c0,0.19-0.04,0.43-0.13,0.71c-0.26,0.63-0.74,1.55-1.43,2.76c-0.69,1.21-1.24,2.3-1.65,3.27
				c-0.41,0.97-0.62,1.84-0.62,2.63h0.03c0.05,0,0.17-0.06,0.37-0.17c0.19-0.11,0.37-0.23,0.52-0.35l0.24-0.18
				c0.09,0.09,0.09,0.33,0,0.73c-0.04,0.18-0.2,0.42-0.48,0.73c-0.29,0.31-0.56,0.58-0.82,0.79l-0.39,0.34
				c-0.54-0.04-1.02-0.29-1.44-0.77c-0.42-0.48-0.62-1.01-0.6-1.58c0.14-0.56,0.39-1.25,0.75-2.08c0.36-0.83,0.82-1.88,1.4-3.14
				c0.58-1.27,1.07-2.4,1.49-3.42c-0.17,0.23-0.41,0.54-0.69,0.93c-0.29,0.39-0.81,1.1-1.56,2.13c-0.75,1.03-1.41,1.96-1.98,2.8
				c-0.57,0.84-1.08,1.67-1.54,2.49c-0.46,0.82-0.69,1.37-0.69,1.65h-0.03c-0.14,0-0.3-0.02-0.47-0.05
				c-0.17-0.03-0.41-0.11-0.72-0.22c-0.31-0.11-0.56-0.32-0.76-0.61c-0.2-0.3-0.3-0.67-0.3-1.13c0-0.14,0.01-0.29,0.03-0.44
				c0.11-0.75,0.67-2.33,1.7-4.74c1.03-2.41,2.03-4.62,3.01-6.65L312.92,102.42z"/>
			<path class="st2" d="M324.55,108.53c0.43,0.32,0.72,0.64,0.88,0.96l0.24,0.5h-0.03c-0.66,0-1.31,0.27-1.94,0.8
				c-0.63,0.53-1.15,1.17-1.56,1.91c-0.41,0.74-0.74,1.49-1,2.24c-0.25,0.75-0.38,1.37-0.38,1.86c0,0.45,0.1,0.69,0.31,0.71
				c0.14-0.02,0.68-0.81,1.62-2.38c0.94-1.57,1.91-3.14,2.89-4.71c0.99-1.57,1.6-2.36,1.85-2.36c0.24,0,0.55,0.1,0.9,0.3
				c0.36,0.2,0.65,0.41,0.88,0.62l0.34,0.31c-0.56,1.12-0.95,1.9-1.18,2.36c-0.23,0.45-0.58,1.2-1.06,2.24
				c-0.48,1.04-0.82,1.9-1.02,2.59c-0.2,0.69-0.3,1.25-0.3,1.69c0,0.09,0,0.17,0,0.24c0,0.02,0.01,0.03,0.03,0.03
				c0.05,0,0.17-0.06,0.37-0.17c0.19-0.11,0.37-0.23,0.52-0.35l0.24-0.18c0.09,0.09,0.09,0.33,0,0.73c-0.04,0.18-0.2,0.42-0.48,0.73
				c-0.29,0.31-0.56,0.58-0.82,0.79l-0.39,0.34c-1.31,0-1.96-0.7-1.96-2.09c0-0.75,0.16-1.58,0.47-2.5
				c0.31-0.92,0.65-1.72,1.02-2.42c-2.32,4.14-3.57,6.2-3.74,6.2c-1.03,0-1.78-0.27-2.25-0.81c-0.47-0.54-0.71-1.27-0.71-2.2
				c0-1.08,0.28-2.3,0.84-3.65c0.56-1.35,1.22-2.49,1.98-3.4c0.76-0.92,1.43-1.37,2-1.37h0.03
				C323.65,108.05,324.12,108.21,324.55,108.53z"/>
		</g>
		<g>
			<g>
				<path class="st2" d="M200.5,156.86c-14.27-2.38-17.58,0.32-25.89-0.53c-11.35-1.16-7.48-15.24-1.08-16.05
					c3.07-0.38,2.75-1.91,2.39-2.88c0.2-0.2,0.36-0.43,0.67-0.44c1.77-0.07,6.14,4.49,7.48-0.39c0.16-0.58-0.34-1.17-0.14-1.76
					c0.69-1.36,2.18-1.06,4.05-2.21c1.07-0.65,0.76-2.24,0.51-3.04c4.9-2.24,0.02-7.66-2.53-9.77c-10.49-8.7-25.79-5.36-37.08,2.85
					c-13.65,9.93-20.37,30.39-38.32,27.67c-0.08-0.01-0.12,0.11-0.04,0.13c12.1,3.36,20.84-7.08,27.78-15.31
					c4.02-4.77,8.09-9.29,13.35-12.73c10.23-6.68,23.54-9.32,33.04-1.63c1.85,1.5,6.64,5.75,3.35,7.78
					c-2.49-4.21-8.26-5.63-13.11-6.1c-0.06-0.01-0.07,0.1-0.01,0.11c11.27,1.97,15.36,8.97,11.12,9.76
					c-1.23,0.23-2.15,0.43-2.53,1.65c-0.62-0.98-1.57-1.84-2.34-2.36c-0.06-0.04-0.13,0.04-0.09,0.09c0.93,1.42,3.41,4.28,1.4,5.82
					c-1.63,1.25-5.51-3.49-7.37-1.4c-0.59-0.81-1.44-1.47-2.31-1.87c-0.11-0.05-0.22,0.08-0.13,0.17c0.29,0.3,4.81,4.4,0.73,4.64
					c-0.63,0.04-2.34-0.88-2.34-0.89c-1.22-0.4-2.66,1.1-3.9,1.08c-3.68-0.08-5.78-2.49-5.78-2.49c-0.29,0.38-0.02,1.26,0.07,1.85
					c-3.98,0.78-8.44-3.44-10.81-1.57c0.8-0.08,2,0.52,2.81,0.68c-8.95,2.36-5.57,16.86,0.22,21.01c5.63,4.04,15.3,6.41,29.9,1.56
					c5.18-1.72,10.12-3.9,15.47-2.93C200.78,157.86,201.16,156.98,200.5,156.86z M169.02,139.82c-5.31,4-5.69,11.62-0.72,15.67
					C162.21,152.46,162.61,142.71,169.02,139.82z M163.01,139.82c-4.06,4.97-2.44,12.49,2.61,15.77c1.88,1.25,3.33,1.67,5.04,2.19
					C159.35,156.61,157.37,144.69,163.01,139.82z M153.85,139.54c-4.52,7.68-2.47,16.97,7.26,20.39c1.98,0.64,2.42,0.68,3.47,0.93
					C150.96,159.89,147.56,147.42,153.85,139.54z M157.85,139.82c-4.5,6.4-2.11,17.48,11.63,19.31c1.42,0.14,1.26,0.23,5.2,0.37
					C155.01,161.15,151.99,146.3,157.85,139.82z"/>
				<path class="st2" d="M153.4,124.8c5.2-4.33,12.86-6.27,19.78-5.85c2.41,0.15,4.45,0.25,6.49,1.7c0.27,0.19,0.63-0.16,0.46-0.43
					c-1.1-1.82-3.42-2.08-5.36-2.2c-7.93-0.48-15.77,0.98-21.41,6.74C153.32,124.79,153.36,124.83,153.4,124.8z"/>
			</g>
			<g>
				<defs>
					<path id="SVGID_3_" d="M161.15,116.31l16.59-19.99l24.35,3.46l13.84,24.09l8.46,23.06l-30.5,4.48l-9.61-10.38l0.38-5.89
						l1.63-2.02l2.63-3.14l1.25-3.36c0,0-1.38-4.14-4.2-6.53c-2.82-2.39-7.44-4.9-11.76-5.16S161.15,116.31,161.15,116.31z"/>
				</defs>
				<clipPath id="SVGID_4_">
					<use xlink:href="#SVGID_3_"  style="overflow:visible;"/>
				</clipPath>
				<g class="st3">
					<path class="st2" d="M216.37,140.71c-11.11,3.3-16.14-5.57-15.12-9.13c0.88,2.58,4.77,3.51,6.94,2.84
						c6.96-2.16,5.22-15.63-3.61-18.47c2.11-6.19-1.61-13.75-10.76-16.15c-12.65-3.31-23.27,6.37-30.33,15.65
						c-7.56,9.95-12.55,21.77-27.04,25.7l0.01,0.06c13.96-0.67,22.53-17.96,29.48-26.58c4.6-5.7,10.34-11.07,17.54-13.1
						c6.83-1.93,16.81-0.06,19.67,7.26c2.31,5.91-1.23,13.07-7.22,12.28c-4.48-0.59-6.24-4.77-3.51-6.54
						c2.39-1.54,4.51-0.27,4.16,1.12c-0.17,0.67-1.36,0.51-1.65,0.35c-0.5-0.28-0.84-0.03-0.37,0.28c4.03,2.63,6.44-6-5.79-4.15
						c-15.73,2.38-23.55,31.14-0.14,43.13c0.17,0.09,0.33-0.13,0.2-0.26c-2.52-2.43-5.66-5.43-7.47-8.19
						c-4.16-6.34-2.51-14.73,2.59-20.27c1.92-2.09,4.4-3.63,7.4-4.38c5.56-1.39,10.25,2.67,8.89,7.33c-0.8,2.73-5.04,6.16-7.53,1.84
						c-2-3.47,2.99-4.6,3.82-3.39c0.95,1.37-0.56,2.17-1.94,1.61c1.63,2.18,4.47-0.27,3.12-2.31c-1.19-1.8-6.85-1.56-8.66,3.03
						c-2.53,6.44,4.29,18.87,22.47,16.77c0.35-0.04,0.37-0.57,0-0.56c-2.84,0.06-5.67-1.69-7.86-3.77
						c4.46,1.74,10.29,0.37,14.02-1.63C218.38,140.79,218.63,140.04,216.37,140.71z M198.26,122.13c2.47-0.51,4.6-2.12,5.76-4.9
						c3.43,1.17,5.76,4.65,6.68,8.03c0.8,2.93-0.17,7.15-3.43,8.12c-1.69,0.5-4.37-0.65-4.99-2.33c-0.5-1.33,0.41-2.85,1.47-3.59
						c1.46-1.02,3.4-0.16,3.83,1.49c0.3,1.15-2,1.55-2.18-0.1c-0.58,1.35,0.41,2.28,1.77,2.1c1.9-0.26,2.01-2.75,1.08-3.88
						c-2.01-2.43-5.6-1.61-6.6,1.1C201.75,125.75,200.31,123.49,198.26,122.13z"/>
					<g>
						<path class="st2" d="M200.82,108.35c0.99,2.91,1.7,6.15,0.05,8.74c-1.02,1.6-2.8,1.71-4.49,1.64
							c-0.14-0.01-0.23,0.19-0.12,0.29c2.16,1.81,5.09-0.75,5.83-2.82C203.38,112.58,200.5,107.39,200.82,108.35L200.82,108.35z"/>
					</g>
					<g>
						<path class="st2" d="M200.43,111.03c0.5,1.54,0.7,3.86-0.44,5.11c-0.43,0.47-1.08,0.36-1.53,0.74
							c-0.08,0.07-0.04,0.2,0.03,0.25c1.48,1.02,3.99-2.27,2-6.13C200.47,110.98,200.42,111,200.43,111.03L200.43,111.03z"/>
					</g>
					<g>
						<path class="st2" d="M206.01,119.51c2.92,3.54,3.04,5.89,3.49,7.77c0.04,0.15,0.23,0.1,0.25-0.03
							c0.27-2.66-1.59-6.24-3.69-7.8C206.02,119.43,205.98,119.48,206.01,119.51L206.01,119.51z"/>
					</g>
					<g>
						<path class="st2" d="M205.6,121.69c2.19,2.93,1.46,2.73,2.21,3.83c0.07,0.1,0.23,0.07,0.23-0.06
							c0.03-0.69-0.42-1.39-0.75-1.96C206.52,122.19,205.38,121.39,205.6,121.69L205.6,121.69z"/>
					</g>
					<g>
						<path class="st2" d="M189.12,124.68c2.71-1.73,5.59-1.55,7.88-0.25c0.86,0.49,1.24,1.32,1.91,1.98
							c0.41,0.41,0.21-2.56-4.22-3.36c-1.77-0.32-4.45,0.09-5.59,1.6C189.09,124.67,189.11,124.69,189.12,124.68L189.12,124.68z"/>
					</g>
					<g>
						<path class="st2" d="M188.25,127.29c1.84-1.97,5.12-3.24,7.89-1.89c0.1,0.05,0.27-0.12,0.16-0.21
							c-2.53-2.24-6.79,0.12-8.13,2.04C188.14,127.27,188.22,127.33,188.25,127.29L188.25,127.29z"/>
					</g>
					<g>
						<path class="st2" d="M189.09,140.7c1.82,3.49,4.54,5.1,8.21,6.41c1.06,0.38,2.33,0.93,3.47,0.82
							c0.17-0.02,0.24-0.23,0.09-0.33c-1.15-0.77-8.09-1.65-11.71-6.93C189.12,140.63,189.07,140.66,189.09,140.7L189.09,140.7z"/>
					</g>
					<g>
						<path class="st2" d="M185.6,136.01c-0.51,4.11,2.62,7.74,5.84,10.34c0.93,0.75,2.1,1.84,3.31,2.06
							c0.12,0.02,0.28-0.11,0.18-0.24c-0.86-1.12-9.32-5.54-9.27-12.16C185.66,135.97,185.61,135.97,185.6,136.01L185.6,136.01z"/>
					</g>
					<g>
						<path class="st2" d="M170.94,131.91c-1.87,11.1,7.34,22.47,13.12,25.13c0.15,0.07,0.3-0.1,0.18-0.23
							c-3.18-3.49-13.79-10.37-13.19-24.88C171.06,131.86,170.96,131.85,170.94,131.91L170.94,131.91z"/>
					</g>
					<g>
						<path class="st2" d="M169.07,140.09c-0.68,7.05,5.76,15.32,8.34,16.32c0.17,0.06,0.33-0.16,0.23-0.3
							c-0.68-0.97-1.67-1.73-2.45-2.62c-2.59-2.93-5.91-8.44-6.05-13.4C169.14,140.04,169.07,140.04,169.07,140.09L169.07,140.09z"
							/>
					</g>
					<g>
						<path class="st2" d="M185.53,103.07c-6.49-0.41-18.68,10.14-19.75,14.58c-0.04,0.17,0.17,0.25,0.27,0.12
							c8.17-10.83,13.83-13.05,19.5-14.52C185.65,103.22,185.63,103.08,185.53,103.07L185.53,103.07z"/>
					</g>
					<g>
						<path class="st2" d="M180.5,106.65c-3.32,1.71-9.7,6.25-10.54,9.81c-0.03,0.14,0.14,0.25,0.24,0.14
							c1.41-1.45,2.22-4.34,10.4-9.76C180.72,106.76,180.62,106.59,180.5,106.65L180.5,106.65z"/>
					</g>
				</g>
			</g>
		</g>
		<g>
			<path class="st2" d="M246.85,141.38c-0.1,0-0.2,0-0.29,0c-1.04,0-1.84-0.13-2.38-0.4c-0.54-0.27-0.82-0.76-0.82-1.49
				c0-1.24,0.67-2.63,2.02-4.16c1.35-1.54,2.97-2.85,4.87-3.93c1.9-1.08,3.61-1.62,5.11-1.62c0.02,0,0.05,0,0.07,0
				c0.73,0,1.36,0.12,1.89,0.35c0.53,0.23,0.95,0.51,1.25,0.83c0.3,0.33,0.54,0.75,0.71,1.26c0.17,0.51,0.28,0.99,0.33,1.44
				c0.05,0.45,0.07,0.95,0.07,1.51c0,0.66-0.56,1.69-1.69,3.09c-1.13,1.41-2.38,2.79-3.77,4.16s-2.98,2.86-4.78,4.47
				c-1.81,1.61-3.07,2.72-3.78,3.33s-1.28,1.08-1.69,1.42c0.82-0.51,2.1-0.76,3.82-0.76c1.21,0,2.37,0.13,3.48,0.4
				c1.1,0.27,2.04,0.69,2.82,1.27c0.78,0.58,1.14,1.27,1.09,2.07c-2.33-0.85-4.42-1.27-6.26-1.27c-3.01,0-5.52,1.12-7.53,3.35
				l-3.09-1.75c0.51-1.5,1.08-2.26,1.71-2.26c0.29-0.9,1.09-2.09,2.38-3.58s2.76-3.01,4.4-4.56c1.64-1.55,3.25-3.1,4.84-4.64
				c1.59-1.54,2.93-2.98,4.02-4.31c1.09-1.34,1.64-2.35,1.64-3.05c0-0.36-0.13-0.66-0.4-0.87c-0.32-0.27-0.74-0.4-1.27-0.4
				c-1.04,0-2.26,0.46-3.66,1.38c-1.39,0.92-2.61,2.11-3.64,3.58s-1.55,2.88-1.55,4.24C246.77,140.78,246.8,141.08,246.85,141.38z"
				/>
			<path class="st2" d="M273.4,131.55c0.63,1.07,0.94,2.44,0.94,4.11c0,1.46-0.2,2.98-0.62,4.59c-0.29,1.14-0.77,2.47-1.44,4
				c-0.67,1.53-1.48,3.11-2.44,4.75c-0.96,1.64-2.08,3.01-3.37,4.13c-1.28,1.11-2.56,1.67-3.82,1.67c-1.48,0-2.58-0.57-3.31-1.71
				c-0.73-1.14-1.09-2.67-1.09-4.58c0-1.84,0.32-3.84,0.96-6c0.64-2.16,1.49-4.16,2.55-6.02c1.05-1.86,2.33-3.41,3.84-4.66
				c1.5-1.25,3.03-1.87,4.59-1.87h0.07C271.73,129.95,272.77,130.49,273.4,131.55z M271.84,132.28c-0.56,0-1.8,1.14-3.71,3.42
				c-1.92,2.28-3.43,4.64-4.55,7.09c-0.7,1.57-1.26,3.14-1.67,4.69c-0.41,1.55-0.62,2.85-0.62,3.89c0,1.36,0.33,2.04,0.98,2.04
				c1.16,0,2.44-0.79,3.84-2.38c1.39-1.59,2.81-3.73,4.24-6.42c0.82-1.55,1.45-3.2,1.89-4.95c0.44-1.75,0.65-3.3,0.65-4.66
				C272.89,133.24,272.54,132.33,271.84,132.28z"/>
			<path class="st2" d="M279.73,141.38c-0.1,0-0.2,0-0.29,0c-1.04,0-1.84-0.13-2.38-0.4c-0.54-0.27-0.82-0.76-0.82-1.49
				c0-1.24,0.67-2.63,2.02-4.16c1.35-1.54,2.97-2.85,4.87-3.93c1.9-1.08,3.61-1.62,5.11-1.62c0.02,0,0.05,0,0.07,0
				c0.73,0,1.36,0.12,1.89,0.35c0.53,0.23,0.95,0.51,1.25,0.83c0.3,0.33,0.54,0.75,0.71,1.26s0.28,0.99,0.33,1.44
				c0.05,0.45,0.07,0.95,0.07,1.51c0,0.66-0.56,1.69-1.69,3.09s-2.38,2.79-3.77,4.16s-2.98,2.86-4.78,4.47
				c-1.81,1.61-3.07,2.72-3.78,3.33c-0.72,0.61-1.28,1.08-1.69,1.42c0.82-0.51,2.1-0.76,3.82-0.76c1.21,0,2.37,0.13,3.48,0.4
				c1.1,0.27,2.04,0.69,2.82,1.27c0.78,0.58,1.14,1.27,1.09,2.07c-2.33-0.85-4.42-1.27-6.26-1.27c-3.01,0-5.52,1.12-7.53,3.35
				l-3.09-1.75c0.51-1.5,1.08-2.26,1.71-2.26c0.29-0.9,1.09-2.09,2.38-3.58s2.76-3.01,4.4-4.56c1.64-1.55,3.25-3.1,4.84-4.64
				c1.59-1.54,2.93-2.98,4.02-4.31c1.09-1.34,1.64-2.35,1.64-3.05c0-0.36-0.13-0.66-0.4-0.87c-0.32-0.27-0.74-0.4-1.27-0.4
				c-1.04,0-2.26,0.46-3.66,1.38c-1.39,0.92-2.61,2.11-3.64,3.58c-1.03,1.47-1.55,2.88-1.55,4.24
				C279.66,140.78,279.68,141.08,279.73,141.38z"/>
			<path class="st2" d="M306.28,131.55c0.63,1.07,0.94,2.44,0.94,4.11c0,1.46-0.2,2.98-0.62,4.59c-0.29,1.14-0.77,2.47-1.44,4
				c-0.67,1.53-1.48,3.11-2.44,4.75c-0.96,1.64-2.08,3.01-3.37,4.13c-1.28,1.11-2.56,1.67-3.82,1.67c-1.48,0-2.58-0.57-3.31-1.71
				c-0.73-1.14-1.09-2.67-1.09-4.58c0-1.84,0.32-3.84,0.96-6c0.64-2.16,1.49-4.16,2.55-6.02c1.05-1.86,2.33-3.41,3.84-4.66
				s3.03-1.87,4.59-1.87h0.07C304.61,129.95,305.65,130.49,306.28,131.55z M304.72,132.28c-0.56,0-1.8,1.14-3.71,3.42
				c-1.92,2.28-3.43,4.64-4.55,7.09c-0.7,1.57-1.26,3.14-1.67,4.69c-0.41,1.55-0.62,2.85-0.62,3.89c0,1.36,0.33,2.04,0.98,2.04
				c1.16,0,2.44-0.79,3.84-2.38c1.39-1.59,2.81-3.73,4.24-6.42c0.82-1.55,1.45-3.2,1.89-4.95c0.44-1.75,0.65-3.3,0.65-4.66
				C305.77,133.24,305.42,132.33,304.72,132.28z"/>
		</g>
		<g>
			<g>
				<path class="st2" d="M96.73,42.09c0.62-0.13,1.3-0.07,1.99,0.03c0.69,0.1,1.39,0.24,2.06,0.25c-0.64,0.15-1.33,0.1-2.02,0
					S97.38,42.12,96.73,42.09z"/>
				<path class="st2" d="M84.14,52.21c0,0.54-0.23,0.76-0.53,0.83c-0.3,0.07-0.67,0-0.94-0.06c0.03-0.36,0.25-0.61,0.54-0.74
					C83.51,52.12,83.86,52.11,84.14,52.21z"/>
			</g>
		</g>
		<path class="st2" d="M127.29,37.52c-0.89-0.04-1.86,0.01-2.79-0.05c-1.94-0.12-3.77-0.26-5.59-0.36c-1.82-0.1-3.62-0.15-5.5-0.09
			c-1.1,0.04-2.12,0.2-3.12,0.41c-1,0.21-1.99,0.46-3.02,0.66c-1.1,0.22-2.29,0.35-3.54,0.46c-1.25,0.11-2.56,0.2-3.89,0.31
			c-1.22,0.11-2.62,0.28-3.81,0.58c-1.19,0.3-2.19,0.72-2.59,1.31c-0.67,0.98-0.56,2.22-0.38,3.5c0.18,1.28,0.44,2.61,0.09,3.77
			c-0.13,0.43-0.42,0.97-0.8,1.44c-0.38,0.48-0.84,0.9-1.33,1.1c-1.49,0.62-3.61,0.31-5.58,0.18c-1.96-0.14-3.77-0.1-4.63,1.21
			c-0.02,0.81-0.51,1.11-1,1.4c-0.49,0.3-0.99,0.59-1.02,1.38c0.56,0.04,1.49,0.03,2.26,0.19c0.78,0.16,1.41,0.47,1.39,1.15
			c-1.7-0.14-3.38-0.24-4.99-0.23c-1.61,0.01-3.15,0.13-4.57,0.44c-0.73,0.56-1.24,1.74-1.61,3.07c-0.36,1.32-0.57,2.78-0.7,3.89
			c-0.32,2.78,0.01,5.66,0.66,8.27c0.65,2.6,1.61,5.07,2.56,6.55c0.21,0.33,0.78,0.95,1.05,1.15c0.27,0.2,0.74,0.14,0.93,0.01
			c0.64-0.47,1.11-1.73,1.12-2.96c0.01-1.24-0.17-2.61-0.02-3.8c0.1-0.79,0.4-1.5,0.65-2.2c0.25-0.71,0.45-1.41,0.36-2.18
			c0.89-1.81,2.66-2.68,4.64-3.3c1.98-0.63,4.19-1.02,5.95-1.88c1.62,1.31,3.96,2.02,6.54,2.4c2.57,0.38,5.38,0.44,7.92,0.45
			c0.29,0.3,0.84,0.5,1.47,0.68c0.63,0.18,1.34,0.33,1.94,0.54c0.33,0.11,0.58,0.28,0.83,0.4c0.25,0.12,0.5,0.2,0.82,0.14
			c0.52-0.09,0.96-0.51,1.2-1.09c0.24-0.58,0.28-1.33,0.01-2.08c-0.61-0.33-1.36-0.67-2.14-1.07c-0.78-0.39-1.59-0.84-2.3-1.38
			c-0.41-0.31-0.98-0.86-1.46-1.46c-0.48-0.6-0.87-1.24-0.92-1.74c-0.04-0.39,0.09-0.91,0.26-1.47c0.17-0.55,0.37-1.13,0.46-1.61
			c0.11-0.58,0.18-1.23,0.25-1.84c0.07-0.61,0.14-1.18,0.25-1.6c0.25-0.93,0.68-1.89,1.18-2.77c0.49-0.88,1.05-1.67,1.53-2.26
			c1.69-2.06,4.45-3.04,7.34-3.84c2.89-0.8,5.9-1.4,8.09-2.71c1.02-0.16,2.05-0.39,3.04-0.66c0.99-0.27,1.96-0.58,2.87-0.89
			c0.33-0.11,0.74-0.14,1.1-0.23c0.36-0.09,0.69-0.26,0.84-0.65C128.99,37.71,128.18,37.56,127.29,37.52z M76.57,71.39
			c-0.16,0.31-0.34,0.64-0.4,1.04c-0.15,1,0.1,2.28,0.16,3.45c0.07,1.17-0.04,2.22-0.89,2.73c-0.49-1.14-0.93-2.32-1.35-3.52
			c-0.42-1.2-0.82-2.42-1.23-3.63c-0.15,1.17,0.14,2.34,0.51,3.43c0.37,1.09,0.83,2.1,1.03,2.96c-1.53-2.1-2.64-5.79-2.97-9.71
			c-0.33-3.92,0.1-8.08,1.66-11.12c1.5-0.18,3.06-0.3,4.68-0.34c1.63-0.04,3.33,0,5.12,0.13c0.3,0.89,0.68,1.71,1.15,2.44
			c0.47,0.74,1.02,1.39,1.66,1.97c-0.51,0.22-1.12,0.32-1.75,0.4c-0.63,0.08-1.28,0.15-1.86,0.29c-0.25-0.02-0.34-0.18-0.43-0.35
			c-0.09-0.17-0.16-0.35-0.38-0.4c-0.08,0.2,0.03,0.36,0.11,0.5c0.09,0.14,0.15,0.25-0.03,0.34c-0.42,0.17-0.62,0.03-0.8-0.18
			c-0.17-0.21-0.32-0.49-0.6-0.6c-0.05,0.25,0.05,0.38,0.14,0.5c0.1,0.12,0.2,0.24,0.18,0.47c-0.62,0.28-1.41,0.38-2.14,0.55
			s-1.38,0.41-1.75,0.97c-0.04-0.13-0.1-0.25-0.14-0.38c-0.04-0.13-0.08-0.28-0.06-0.46c-0.19,0.14-0.17,0.33-0.12,0.55
			c0.05,0.21,0.13,0.44,0.08,0.65c-0.16,0.11-0.33,0.23-0.51,0.32c-0.18,0.1-0.37,0.18-0.59,0.23c0.06-0.2,0.02-0.32-0.03-0.43
			c-0.02-0.05-0.04-0.1-0.05-0.16c-0.01,0.71-0.27,1.2-0.57,1.69c-0.34,0.54-0.73,1.06-0.89,1.83c-0.16-0.03-0.22-0.3-0.27-0.46
			c-0.05-0.16-0.09-0.21-0.2,0.2c-0.3-0.2-0.53-0.47-0.73-0.76c-0.21-0.29-0.4-0.59-0.64-0.85c-0.27,0.41-0.15,0.89,0.15,1.31
			c0.3,0.42,0.77,0.76,1.2,0.9c0.2,1.64,0.42,3.25,0.75,4.76s0.77,2.93,1.4,4.16c-0.1-1.34-0.48-2.67-0.83-4.09
			c-0.34-1.41-0.65-2.91-0.62-4.57c0.34,0.79,0.52,1.74,0.71,2.68c0.19,0.94,0.38,1.87,0.75,2.64c0.12-1.21-0.34-2.57-0.62-3.89
			c-0.28-1.32-0.38-2.6,0.45-3.64c0.38,0.68,0.64,1.48,0.9,2.27c0.26,0.79,0.53,1.57,0.95,2.22C76.87,70.78,76.73,71.08,76.57,71.39
			z M76.98,69.96c-0.05-0.71-0.75-1.91-1.18-3s-0.58-2.09,0.44-2.4c0.33,0.85,0.73,1.63,0.94,2.49S77.41,68.83,76.98,69.96z
			 M79.3,65.25c-0.65,0.62-1.17,1.39-1.74,2.1c-0.12-0.52-0.3-0.99-0.48-1.45c-0.18-0.47-0.36-0.93-0.48-1.45
			c0.5-0.45,1.17-0.72,1.88-0.95c0.71-0.23,1.46-0.41,2.13-0.68c0.3,0.12,0.44,0.4,0.59,0.66c0.15,0.26,0.32,0.51,0.67,0.59
			C80.74,64.16,79.95,64.63,79.3,65.25z M82.02,63.63c-0.32-0.29-0.6-0.7-0.81-0.91c0.54-0.27,0.82-0.05,1.06,0.26
			c0.24,0.31,0.43,0.7,0.81,0.77C82.7,64.07,82.34,63.92,82.02,63.63z M85.41,63.05c-0.63,0.23-1.28,0.44-1.86,0.73
			c-0.23-0.11-0.38-0.3-0.52-0.49c-0.14-0.19-0.29-0.39-0.51-0.5c0.84-0.02,1.67-0.43,2.46-0.7c0.79-0.27,1.54-0.39,2.22,0.17
			C86.67,62.58,86.05,62.82,85.41,63.05z M107.16,66.75c0,0-4.29-1.63-4.5-1.84c-0.21-0.21,0.39-0.12,0.39-0.12s4.36,1.64,4.57,1.82
			C107.83,66.79,107.16,66.75,107.16,66.75z M115.46,38.04c0.66,0.02,1.34,0.1,1.84,0.21c-1.17,0.78-2.57,1.24-4,1.67
			c-1.43,0.43-2.91,0.82-4.24,1.46c-0.55,0.26-1.05,0.66-1.54,1.04c-0.5,0.37-0.99,0.72-1.52,0.87c-1.22,0.34-2.54,0.3-3.88,0.13
			c-1.34-0.16-2.7-0.44-3.99-0.57c0.53,0.7,1.66,0.99,2.94,1.1c1.28,0.11,2.71,0.03,3.82,0c-0.67,0.78-1.08,1.65-1.42,2.6
			c-0.34,0.95-0.59,1.97-0.96,3.04c-0.7-0.39-1.35-0.82-1.97-1.28c-0.62-0.46-1.19-0.96-1.74-1.49c0.29,0.82,0.84,1.41,1.48,1.9
			c0.65,0.49,1.4,0.89,2.09,1.35c-0.07,0.07-0.11,0.17-0.13,0.3c-0.02,0.12-0.02,0.27-0.02,0.42c-0.73-0.51-1.55-1.19-2.38-1.91
			s-1.68-1.46-2.47-2.11c0.28,0.54,0.65,1,1.06,1.42s0.87,0.8,1.34,1.19c0.41,0.34,0.97,0.65,1.42,1.05
			c0.45,0.41,0.78,0.91,0.74,1.66c-0.51-0.01-1.04-0.25-1.61-0.5c-0.56-0.25-1.16-0.52-1.81-0.59c0.2,0.35,0.73,0.64,1.36,0.9
			s1.35,0.47,1.92,0.67c-0.07,0.28-0.12,0.58-0.17,0.87c-0.06,0.29-0.13,0.56-0.25,0.79c-0.58-0.4-1.13-0.84-1.72-1.22
			c-0.6-0.39-1.24-0.73-2.01-0.96c0.07,0.53,0.91,0.95,1.75,1.41c0.84,0.46,1.67,0.94,1.71,1.59c0.03,0.41-0.21,0.71-0.55,0.98
			c-0.33,0.26-0.75,0.49-1.08,0.75c-0.6-0.21-1.07-0.54-1.56-0.85c-0.5-0.31-1.02-0.59-1.72-0.71c0.63,0.62,1.32,1.1,2.04,1.58
			c0.71,0.48,1.44,0.96,2.14,1.57c0.33,0.29,0.67,0.6,0.99,0.91c0.33,0.31,0.65,0.63,0.96,0.96c0.3,0.31,0.57,0.67,0.84,1.02
			c0.27,0.35,0.55,0.69,0.87,0.96c0.65,0.54,1.41,0.94,2.18,1.32c0.77,0.38,1.56,0.75,2.26,1.25c-0.08,0.14-0.1,0.34-0.13,0.54
			c-0.02,0.2-0.05,0.4-0.15,0.52c-0.93-0.29-1.78-0.65-2.65-1c-0.87-0.35-1.75-0.68-2.75-0.91c-0.16-0.04-0.33-0.02-0.48,0.04
			s-0.29,0.16-0.38,0.3c-0.05,0.07-0.1,0.14-0.14,0.22c-0.05,0.08-0.09,0.16-0.12,0.25c-1.3,0.08-2.61,0.17-3.92,0.15
			c-1.3-0.01-2.59-0.13-3.83-0.47c0.56-0.31,1.28-0.44,1.95-0.62c0.68-0.18,1.31-0.41,1.69-0.9c-0.6-0.01-1.08,0.12-1.54,0.27
			c-0.46,0.15-0.88,0.3-1.35,0.33c-3.41,0.21-5.93-0.88-7.84-2.57s-3.22-3.98-4.23-6.15c-0.14-0.04-0.28-0.09-0.43-0.12
			c-0.15-0.03-0.32-0.05-0.52-0.03c0.24-0.13,0.5-0.27,0.79-0.33c0.28-0.07,0.59-0.07,0.9,0.04c-0.18-0.58-0.66-0.57-1.28-0.45
			c-0.61,0.12-1.36,0.35-2.06,0.2c0.27-0.28,0.56-0.36,0.9-0.37c0.35,0,0.75,0.07,1.26,0.1c-0.05-0.21-0.23-0.29-0.46-0.32
			s-0.5-0.04-0.72-0.08c0.59-2.19,2.8-2.11,5.16-1.83c2.36,0.29,4.86,0.78,6.05-0.59c-0.26,0.34-0.59,1.04-0.67,1.72
			c-0.07,0.68,0.12,1.35,0.89,1.63c0.06-0.22-0.04-0.45-0.16-0.69C92.13,53.4,92,53.15,92,52.89c-0.01-0.77,0.49-1.46,1.03-2.19
			c0.55-0.73,1.14-1.48,1.3-2.38c0.23-1.22,0.05-2.18-0.15-3.17c-0.2-0.99-0.67-2.64-0.3-3.42c0.33-0.68,1.53-1.14,2.66-1.46
			c1.12-0.31,2.45-0.49,3.88-0.67c1.11-0.14,2.18-0.24,3.22-0.31c1.04-0.07,2.04-0.12,3.01-0.16c1.19-0.04,2.35-0.32,3.5-0.57
			C111.29,38.33,114.8,38.02,115.46,38.04z M113.32,38.29c-0.49,0.04-0.96,0.21-1.39,0.37c-0.52,0.19-0.96,0.45-1.25,0.88
			c0.07,0.24,0.24,0.34,0.46,0.36c0.22,0.02,0.48-0.02,0.72-0.07c-0.01-0.11-0.06-0.18-0.14-0.22c-0.08-0.04-0.19-0.05-0.33-0.04
			c0.24-0.3,0.88-0.5,1.42-0.7c0.49-0.17,1.07-0.4,0.91-0.57C113.67,38.23,113.43,38.28,113.32,38.29z M101.71,55.35
			c0.09,0.09,0.18,0.18,0.33,0.21c0,0.52-0.12,0.91-0.25,1.28c-0.13,0.37-0.28,0.73-0.33,1.2c-0.19-0.15-0.4-0.28-0.62-0.41
			c-0.22-0.12-0.45-0.24-0.66-0.36c0.19-0.35,0.47-0.61,0.71-0.91c0.24-0.3,0.43-0.65,0.45-1.19
			C101.52,55.18,101.61,55.26,101.71,55.35z M102.52,53.84c-0.11,0.34-0.21,0.68-0.22,1.13c-0.16-0.05-0.27-0.14-0.37-0.23
			c-0.1-0.1-0.2-0.2-0.33-0.27c0.12-0.29,0.22-0.6,0.32-0.9c0.1-0.3,0.21-0.6,0.35-0.87c0.08,0,0.16,0.01,0.24,0.01
			c0.08,0,0.16,0.01,0.24,0.01C102.74,53.16,102.63,53.5,102.52,53.84z M103.2,51.65c-0.1,0.37-0.25,0.68-0.56,0.82
			c0-0.06-0.03-0.08-0.08-0.1c-0.05-0.01-0.11-0.02-0.15-0.03c0.13-0.26,0.17-0.6,0.23-0.96s0.13-0.73,0.33-1.05
			c0.05,0.05,0.12,0.08,0.2,0.11c0.08,0.02,0.17,0.03,0.28,0.03C103.35,50.86,103.3,51.28,103.2,51.65z M105.8,46.5
			c-0.33,0.36-0.66,0.73-0.93,1.16c-0.17-0.06-0.13-0.13-0.06-0.23c0.07-0.1,0.16-0.22,0.09-0.37c-0.39,0.36-0.58,0.95-0.77,1.53
			c-0.19,0.58-0.38,1.17-0.79,1.51c0-0.06-0.03-0.08-0.08-0.1c-0.05-0.01-0.11-0.02-0.15-0.03c0.35-0.97,0.77-1.86,1.23-2.71
			c0.46-0.85,0.96-1.65,1.48-2.44c0.27-0.02,0.4,0.09,0.51,0.22c0.11,0.12,0.21,0.26,0.42,0.3C106.47,45.78,106.13,46.14,105.8,46.5
			z M107.45,45c-0.04,0.03-0.08,0.08-0.1,0.15c-0.23-0.05-0.39-0.18-0.54-0.3c-0.15-0.13-0.3-0.26-0.51-0.33
			c0.15-0.31,0.47-0.36,0.76-0.26c0.28,0.1,0.53,0.36,0.54,0.67C107.55,44.94,107.49,44.96,107.45,45z M108.52,44.23
			c-0.17,0.09-0.36,0.15-0.54,0.22c-0.04-0.13-0.14-0.21-0.26-0.28c-0.11-0.07-0.24-0.13-0.32-0.22c0.1-0.46,0.33-0.48,0.62-0.38
			s0.62,0.32,0.94,0.32C108.84,44.04,108.69,44.15,108.52,44.23z M109.91,43.55c-0.54,0.05-1.08-0.06-1.64-0.4
			c0.35-0.41,0.9-0.52,1.5-0.49c0.59,0.03,1.23,0.21,1.73,0.38C110.97,43.3,110.44,43.5,109.91,43.55z M112.02,42.7
			c-0.37-0.13-0.76-0.32-1.21-0.29c0.32-0.32,0.72-0.34,1.13-0.24c0.41,0.1,0.81,0.31,1.13,0.45
			C112.73,42.91,112.39,42.84,112.02,42.7z M114.99,42.22c-0.75,0.08-1.52,0.03-2.25-0.21c0.72-0.24,1.43-0.53,2.15-0.65
			c0.72-0.12,1.44-0.08,2.17,0.34C116.45,41.95,115.73,42.15,114.99,42.22z M119.02,41.07c-0.76,0.24-1.65,0.3-2.67,0.01
			c0.71-0.22,1.4-0.6,2.15-0.87c0.74-0.28,1.53-0.45,2.44-0.26C120.42,40.41,119.79,40.83,119.02,41.07z M120.03,38.62
			c-0.64-0.02-1.3-0.04-1.9,0.03c0.14,0.1,0.32,0.17,0.5,0.22c0.19,0.06,0.38,0.11,0.56,0.18c-1.31,0.82-2.84,1.4-4.48,1.86
			c-1.64,0.46-3.4,0.79-5.19,1.09c1.29-0.8,2.94-1.21,4.54-1.67c1.6-0.46,3.14-0.99,4.2-2.04c0.68-0.08,1.45-0.04,2.23-0.01
			c0.77,0.03,1.54,0.05,2.19-0.05c0.12,0.1,0,0.17-0.2,0.22c-0.2,0.05-0.47,0.08-0.65,0.11C121.29,38.65,120.67,38.63,120.03,38.62z
			 M122.69,39.49c-0.45,0.02-0.89-0.03-1.24-0.23c0.35-0.06,0.8-0.14,1.25-0.16c0.45-0.02,0.9,0,1.26,0.14
			C123.58,39.36,123.13,39.47,122.69,39.49z M125.52,38.83c-0.07,0.09-0.14,0.18-0.13,0.35c-0.14-0.08-0.33-0.11-0.5-0.17
			c-0.16-0.06-0.3-0.15-0.32-0.34c0.24,0.03,0.39-0.03,0.54-0.1c0.15-0.06,0.3-0.13,0.54-0.1
			C125.66,38.65,125.59,38.74,125.52,38.83z"/>
	</g>
	<g>
		<g>
			<g>
				<defs>
					<path id="SVGID_5_" d="M161.15,116.31l16.59-19.99l24.35,3.46l13.84,24.09l8.46,23.06l-30.5,4.48l-9.61-10.38l0.38-5.89
						l1.63-2.02l2.63-3.14l1.25-3.36c0,0-1.38-4.14-4.2-6.53c-2.82-2.39-7.44-4.9-11.76-5.16S161.15,116.31,161.15,116.31z"/>
				</defs>
				<clipPath id="SVGID_6_">
					<use xlink:href="#SVGID_5_"  style="overflow:visible;"/>
				</clipPath>
			</g>
		</g>
	</g>
</g>
</svg>
