<?xml version="1.0" encoding="utf-8"?>
<!-- Generator: Adobe Illustrator 23.0.5, SVG Export Plug-In . SVG Version: 6.00 Build 0)  -->
<svg version="1.1" id="Calque_1" xmlns="http://www.w3.org/2000/svg" xmlns:xlink="http://www.w3.org/1999/xlink" x="0px" y="0px"
	 viewBox="0 0 1024 927" style="enable-background:new 0 0 1024 927;" xml:space="preserve">
<style type="text/css">
	.st0{fill:url(#SVGID_1_);}
	.st1{opacity:0.8;}
	.st2{clip-path:url(#SVGID_3_);}
	.st3{opacity:0.4608;}
	.st4{fill:#191E38;}
	.st5{opacity:0.4269;}
	.st6{opacity:0.1706;}
	.st7{opacity:0.1195;}
	.st8{opacity:3.346513e-02;}
	.st9{opacity:7.420787e-03;}
	.st10{opacity:0.1144;}
	.st11{opacity:6.543384e-02;}
	.st12{opacity:0.1642;}
	.st13{opacity:0.2054;}
	.st14{opacity:0.2302;}
	.st15{opacity:9.257451e-02;}
	.st16{opacity:0.2162;}
	.st17{opacity:0.192;}
	.st18{opacity:8.728410e-02;}
	.st19{opacity:0.2272;}
	.st20{opacity:0.1002;}
	.st21{opacity:4.425968e-04;}
	.st22{opacity:5.562328e-03;}
	.st23{opacity:0.8799;}
	.st24{opacity:0.6527;}
	.st25{opacity:0.4654;}
	.st26{opacity:0.4553;}
	.st27{opacity:9.448563e-02;}
	.st28{opacity:0.3146;}
	.st29{opacity:7.474595e-02;}
	.st30{opacity:0.1991;}
	.st31{opacity:0.2494;}
	.st32{opacity:0.2223;}
	.st33{opacity:0.1726;}
	.st34{opacity:0.1404;}
	.st35{opacity:9.877136e-03;}
	.st36{opacity:0.1303;}
	.st37{opacity:0.4187;}
	.st38{opacity:0.2861;}
	.st39{opacity:0.2802;}
	.st40{opacity:8.656751e-02;}
	.st41{opacity:0.181;}
	.st42{opacity:0.2041;}
	.st43{opacity:0.2938;}
	.st44{opacity:0.279;}
	.st45{opacity:0.2521;}
	.st46{opacity:0.111;}
	.st47{opacity:6.952296e-02;}
	.st48{opacity:0.1164;}
	.st49{opacity:0.5412;}
	.st50{opacity:0.3185;}
	.st51{opacity:0.1975;}
	.st52{opacity:0.1127;}
	.st53{opacity:0.161;}
	.st54{opacity:0.2991;}
	.st55{opacity:0.1853;}
	.st56{opacity:0.1393;}
	.st57{opacity:0.1609;}
	.st58{opacity:0.2919;}
	.st59{opacity:0.2413;}
	.st60{opacity:0.6994;}
	.st61{opacity:0.1931;}
	.st62{opacity:1.883855e-03;}
	.st63{opacity:0.2387;}
	.st64{opacity:0.1059;}
	.st65{opacity:0.5802;}
	.st66{opacity:4.909929e-02;}
	.st67{opacity:4.583165e-02;}
	.st68{opacity:2.120947e-03;}
	.st69{opacity:9.813196e-03;}
	.st70{opacity:8.522101e-02;}
	.st71{opacity:0.1069;}
	.st72{opacity:0.8018;}
	.st73{opacity:0.1968;}
	.st74{opacity:0.7559;}
	.st75{opacity:0.7578;}
	.st76{opacity:8.991690e-02;}
	.st77{opacity:9.121879e-02;}
	.st78{opacity:0.1245;}
	.st79{opacity:0.1449;}
	.st80{opacity:0.2001;}
	.st81{opacity:0.3287;}
	.st82{opacity:0.5447;}
	.st83{opacity:0.1591;}
	.st84{opacity:0.4135;}
	.st85{opacity:4.465252e-03;}
	.st86{opacity:0.1124;}
	.st87{opacity:6.558179e-02;}
	.st88{opacity:0.198;}
	.st89{opacity:0.3113;}
	.st90{opacity:0.5025;}
	.st91{opacity:0.1574;}
	.st92{opacity:0.2237;}
	.st93{opacity:0.3384;}
	.st94{opacity:0.359;}
	.st95{opacity:0.2093;}
	.st96{opacity:0.3802;}
	.st97{opacity:0.2664;}
	.st98{opacity:0.2294;}
	.st99{opacity:0.1538;}
	.st100{opacity:0.1504;}
	.st101{opacity:0.1848;}
	.st102{opacity:7.375503e-02;}
	.st103{opacity:0.1868;}
	.st104{opacity:0.2171;}
	.st105{opacity:0.8465;}
	.st106{opacity:0.1313;}
	.st107{opacity:0.165;}
	.st108{opacity:7.135014e-02;}
	.st109{opacity:0.1274;}
	.st110{opacity:6.429306e-02;}
	.st111{opacity:0.1331;}
	.st112{opacity:0.1136;}
	.st113{opacity:0.1639;}
</style>
<linearGradient id="SVGID_1_" gradientUnits="userSpaceOnUse" x1="0" y1="464.5" x2="1024" y2="464.5" gradientTransform="matrix(1 0 0 -1 0 928)">
	<stop  offset="0" style="stop-color:#2278A3"/>
	<stop  offset="6.879580e-02" style="stop-color:#1E6A90"/>
	<stop  offset="0.1796" style="stop-color:#185777"/>
	<stop  offset="0.3049" style="stop-color:#144964"/>
	<stop  offset="0.4511" style="stop-color:#113F57"/>
	<stop  offset="0.6374" style="stop-color:#103A4F"/>
	<stop  offset="1" style="stop-color:#0F384D"/>
</linearGradient>
<rect class="st0" width="1024" height="927"/>
<g class="st1">
	<g>
		<defs>
			<rect id="SVGID_2_" width="1024" height="927"/>
		</defs>
		<clipPath id="SVGID_3_">
			<use xlink:href="#SVGID_2_"  style="overflow:visible;"/>
		</clipPath>
		<g class="st2">
			<g>
				<g class="st3">
					<polygon class="st4" points="1251.9,889.4 1243.6,982 1347.9,989.4 1356.1,896.8 					"/>
				</g>
				<g class="st5">
					<polygon class="st4" points="1270.3,833.5 1260.5,932 1371.4,940.7 1381.2,842.2 					"/>
				</g>
				<g class="st6">
					<polygon class="st4" points="1233.5,750 1175.2,841.7 1278.5,893.5 1336.8,801.8 					"/>
				</g>
				<g class="st7">
					<polygon class="st4" points="1164.3,826 1058.1,897 1138,991.3 1244.2,920.3 					"/>
				</g>
				<g class="st8">
					<polygon class="st4" points="1166.6,665.3 931.6,670.3 937.2,879 1172.3,874 					"/>
				</g>
				<g class="st9">
					<polygon class="st4" points="799,673.8 813.5,880.9 1046.7,868.1 1032.2,660.9 					"/>
				</g>
				<g class="st10">
					<polygon class="st4" points="732.7,808.5 692.3,1000.1 908.1,1036 948.5,844.3 					"/>
				</g>
				<g class="st11">
					<polygon class="st4" points="681.6,659 645.8,796 800,827.8 835.9,690.8 					"/>
				</g>
				<g class="st12">
					<polygon class="st4" points="544.4,696.6 578.9,867.3 771,836.7 736.6,666 					"/>
				</g>
				<g class="st13">
					<polygon class="st4" points="758.9,904.4 689.5,1075.9 882.5,1137.6 952,966.1 					"/>
				</g>
				<g class="st14">
					<polygon class="st4" points="876,908.6 859.5,1099.8 1074.8,1114.5 1091.3,923.2 					"/>
				</g>
				<g class="st15">
					<polygon class="st4" points="544.5,734.5 510.2,994.6 802.9,1025.1 837.3,765 					"/>
				</g>
				<g class="st16">
					<polygon class="st4" points="462.5,827.5 240.7,959.6 389.4,1156.6 611.2,1024.5 					"/>
				</g>
				<g class="st17">
					<polygon class="st4" points="74.9,577.6 -154.6,932.1 244.5,1135.9 474,781.5 					"/>
				</g>
				<g class="st18">
					<polygon class="st4" points="4.1,589.5 -115.7,765.5 82.6,871.9 202.3,695.8 					"/>
				</g>
				<g class="st19">
					<polygon class="st4" points="-158.2,718.2 -118.6,916.1 104.2,881 64.6,683.1 					"/>
				</g>
				<g class="st20">
					<polygon class="st4" points="-217.3,890.7 -102.1,1063.6 92.6,961.3 -22.6,788.4 					"/>
				</g>
				<g class="st21">
					<polygon class="st4" points="-165,1052 -145.2,1233.4 59,1215.9 39.2,1034.5 					"/>
				</g>
				<g class="st22">
					<polygon class="st4" points="-316.3,942.5 -314.7,1124.7 -109.6,1123.4 -111.1,941.1 					"/>
				</g>
				<g class="st23">
					<polygon class="st4" points="-496.4,622.1 -404.6,785.1 -221.1,703.5 -312.9,540.5 					"/>
				</g>
				<g class="st24">
					<polygon class="st4" points="-323.9,83.2 -394.2,258.9 -196.4,321.4 -126.1,145.7 					"/>
				</g>
				<g class="st25">
					<polygon class="st4" points="-330.4,-112.3 -342.9,96.5 -107.8,107.7 -95.2,-101.2 					"/>
				</g>
				<g class="st26">
					<polygon class="st4" points="-267.8,-159.5 -133.9,134.6 197.1,15.7 63.3,-278.4 					"/>
				</g>
				<g class="st27">
					<polygon class="st4" points="-341.8,195.7 -118.1,519.4 246.3,320.7 22.6,-3 					"/>
				</g>
				<g class="st28">
					<polygon class="st4" points="-344.3,416.5 -283.1,590.4 -87.3,536 -148.5,362 					"/>
				</g>
				<g class="st29">
					<polygon class="st4" points="-220,447 -255.6,626.5 -53.5,658.1 -18,478.6 					"/>
				</g>
				<g class="st30">
					<polygon class="st4" points="-23.3,325.9 16.9,494.4 206.6,458.7 166.4,290.2 					"/>
				</g>
				<g class="st31">
					<polygon class="st4" points="7.9,-6.7 -53.4,352.5 351,406.9 412.3,47.8 					"/>
				</g>
				<g class="st32">
					<polygon class="st4" points="468.9,496.7 339.1,517.7 362.7,633 492.5,612 					"/>
				</g>
				<g class="st33">
					<polygon class="st4" points="362.6,582.9 377.6,716.6 528.2,703.3 513.2,569.5 					"/>
				</g>
				<g class="st34">
					<polygon class="st4" points="87.5,462.5 28.8,637.3 225.7,689.5 284.4,514.6 					"/>
				</g>
				<g class="st35">
					<polygon class="st4" points="184.8,470.8 -53.4,898.7 428.3,1110.3 666.6,682.4 					"/>
				</g>
				<g class="st36">
					<polygon class="st4" points="575.3,388 446,366 421.3,480.8 550.5,502.8 					"/>
				</g>
				<g class="st37">
					<polygon class="st4" points="468.2,-175.8 443.5,12 655,34 679.7,-153.9 					"/>
				</g>
				<g class="st38">
					<polygon class="st4" points="826.8,111.2 944.3,244.7 1094.6,140.3 977,6.8 					"/>
				</g>
				<g class="st39">
					<polygon class="st4" points="1112.2,386.2 1067.2,587.8 1294.1,627.7 1339.1,426.1 					"/>
				</g>
				<g class="st40">
					<rect x="1056.4" y="241.3" class="st4" width="301.2" height="267.5"/>
				</g>
				<g class="st41">
					<rect x="1146.5" y="180.2" class="st4" width="258.6" height="229.7"/>
				</g>
				<g class="st42">
					<polygon class="st4" points="1210.3,598.8 1164.4,764.4 1350.9,805.2 1396.8,639.6 					"/>
				</g>
				<g class="st43">
					<polygon class="st4" points="844.7,211 886.2,526 1240.8,489.1 1199.3,174.1 					"/>
				</g>
				<g class="st44">
					<polygon class="st4" points="717.5,380.6 843.9,438.7 909.3,326.4 782.9,268.4 					"/>
				</g>
				<g class="st45">
					<polygon class="st4" points="557.8,216.7 534.7,362.1 698.5,382.6 721.5,237.2 					"/>
				</g>
				<g class="st46">
					<polygon class="st4" points="510.3,-48 488.5,133.3 692.5,152.6 714.3,-28.6 					"/>
				</g>
				<g class="st47">
					<polygon class="st4" points="858.1,498.4 890,656.3 1067.8,628 1035.9,470.1 					"/>
				</g>
				<g class="st48">
					<rect x="972.2" y="123" class="st4" width="338.9" height="301"/>
				</g>
				<g class="st49">
					<rect x="1178.4" y="-50.7" class="st4" width="150.6" height="133.7"/>
				</g>
				<g class="st50">
					<polygon class="st4" points="668.1,48.7 687.1,213.2 872.3,196.4 853.3,31.8 					"/>
				</g>
				<g class="st51">
					<polygon class="st4" points="258.9,-174.5 213.1,95 516.5,135.7 562.3,-133.9 					"/>
				</g>
				<g class="st52">
					<polygon class="st4" points="-24.8,-147.9 -16.8,167 337.8,159.9 329.7,-155 					"/>
				</g>
				<g class="st53">
					<polygon class="st4" points="384.6,140.3 337.8,254.7 466.5,296.3 513.3,181.9 					"/>
				</g>
				<g class="st54">
					<polygon class="st4" points="698.8,501.3 808.5,668.9 997.2,571.4 887.5,403.8 					"/>
				</g>
				<g class="st55">
					<polygon class="st4" points="558.3,576.9 560.4,655.1 648.5,653.2 646.3,575 					"/>
				</g>
				<g class="st56">
					<polygon class="st4" points="511.6,425.5 391.6,409.8 374,516.4 494,532.1 					"/>
				</g>
				<g class="st57">
					<polygon class="st4" points="506.9,249.4 380.6,314.8 454.3,427 580.6,361.6 					"/>
				</g>
				<g class="st58">
					<polygon class="st4" points="619,508 599,614.2 718.5,631.9 738.5,525.7 					"/>
				</g>
				<g class="st59">
					<polygon class="st4" points="551.3,353.8 566,536.6 771.8,523.5 757.2,340.7 					"/>
				</g>
			</g>
			<g>
				<g class="st60">
					<polygon class="st4" points="1243.9,589.8 1225,715 1365.9,731.7 1384.8,606.6 					"/>
				</g>
				<g class="st61">
					<polygon class="st4" points="1157.2,864 1066,1042.8 1267.2,1123.8 1358.4,945 					"/>
				</g>
				<g class="st62">
					<polygon class="st4" points="899,1096.9 812.8,1196.9 925.4,1273.5 1011.6,1173.5 					"/>
				</g>
				<g class="st63">
					<polygon class="st4" points="296.3,861.5 566.8,856.3 560.9,616.1 290.5,621.3 					"/>
				</g>
				<g class="st64">
					<polygon class="st4" points="203.3,628.8 145.7,783.8 320.3,835 377.9,679.9 					"/>
				</g>
				<g class="st65">
					<polygon class="st4" points="0.2,1022.5 156.1,1096.6 239.6,958.2 83.7,884 					"/>
				</g>
				<g class="st66">
					<polygon class="st4" points="386.9,1001.6 230.9,1120 364.1,1258.6 520.1,1140.2 					"/>
				</g>
				<g class="st67">
					<polygon class="st4" points="445.8,978.4 506.6,1154.3 704.7,1100.3 643.9,924.3 					"/>
				</g>
				<g class="st68">
					<polygon class="st4" points="581.6,681.2 948.6,569.7 823.1,243.7 456.1,355.2 					"/>
				</g>
				<g class="st69">
					<polygon class="st4" points="364.8,721.7 634.9,647.7 551.5,407.8 281.5,481.8 					"/>
				</g>
				<g class="st46">
					<polygon class="st4" points="1044,967.6 785.7,909.9 720.7,1139.3 979,1197 					"/>
				</g>
				<g class="st70">
					<polygon class="st4" points="744.8,589.5 886.2,571.2 865.5,445.6 724.1,463.9 					"/>
				</g>
				<g class="st71">
					<polygon class="st4" points="216.4,816.6 333.6,949.4 483.1,845.4 365.9,712.5 					"/>
				</g>
				<g class="st72">
					<polygon class="st4" points="-194.6,939.8 -31.5,1080.7 127.2,935.8 -36,794.9 					"/>
				</g>
				<g class="st73">
					<polygon class="st4" points="-392,619.2 -327.7,741.4 -190.1,684.3 -254.4,562.1 					"/>
				</g>
				<g class="st74">
					<polygon class="st4" points="-408.8,252.6 -327.6,371.8 -193.3,299.7 -274.5,180.4 					"/>
				</g>
				<g class="st75">
					<polygon class="st4" points="90,-33.4 271.8,29.5 342.6,-132 160.8,-194.9 					"/>
				</g>
				<g class="st76">
					<polygon class="st4" points="658.6,226.5 794.7,343.1 925.9,222.3 789.9,105.7 					"/>
				</g>
				<g class="st77">
					<polygon class="st4" points="818.8,35.6 933.1,210.4 1130,108.9 1015.7,-65.9 					"/>
				</g>
				<g class="st78">
					<polygon class="st4" points="968.2,195.2 1112.8,305.3 1236.8,176.9 1092.2,66.7 					"/>
				</g>
				<g class="st79">
					<polygon class="st4" points="230.3,345.8 -40.1,496.2 129.3,736.4 399.7,586 					"/>
				</g>
				<g class="st80">
					<polygon class="st4" points="-21.6,9 -55.4,210.9 171.9,240.9 205.7,39.1 					"/>
				</g>
				<g class="st81">
					<polygon class="st4" points="-242.1,694.4 44.2,688.4 37.5,434.1 -248.8,440.1 					"/>
				</g>
				<g class="st82">
					<polygon class="st4" points="-202.4,526 32.9,512.2 17.4,303.3 -217.8,317 					"/>
				</g>
				<g class="st83">
					<polygon class="st4" points="-297.2,163.2 -240,316.6 -67.3,265.8 -124.5,112.4 					"/>
				</g>
				<g class="st84">
					<polygon class="st4" points="116.7,120.8 147.6,253.5 297,226 266.1,93.3 					"/>
				</g>
				<g class="st85">
					<polygon class="st4" points="446.1,426.7 644.8,465.2 688.2,288.7 489.5,250.2 					"/>
				</g>
				<g class="st86">
					<polygon class="st4" points="215.6,98.6 303.8,363.6 602.1,285.3 513.9,20.3 					"/>
				</g>
				<g class="st87">
					<polygon class="st4" points="295.6,73.7 478.7,283.7 715.1,121.1 532,-88.9 					"/>
				</g>
				<g class="st88">
					<polygon class="st4" points="250.5,-37.8 471.8,189.6 727.8,-7 506.4,-234.4 					"/>
				</g>
				<g class="st89">
					<polygon class="st4" points="519.3,14.3 850.1,228.8 1091.5,-65 760.8,-279.5 					"/>
				</g>
				<g class="st90">
					<polygon class="st4" points="1181,187.1 1291.4,340.7 1464.3,242.7 1353.9,89.1 					"/>
				</g>
				<g class="st91">
					<polygon class="st4" points="913.4,116.7 1102.8,250.3 1253.2,82.1 1063.8,-51.6 					"/>
				</g>
				<g class="st92">
					<polygon class="st4" points="438,-231.2 610.7,-92.9 766.4,-246.3 593.6,-384.6 					"/>
				</g>
				<g class="st93">
					<polygon class="st4" points="-3.6,-17.5 127.3,85.4 243.2,-30.8 112.3,-133.7 					"/>
				</g>
				<g class="st94">
					<polygon class="st4" points="-285.4,-58.1 -148.3,29 -50.2,-92.7 -187.3,-179.9 					"/>
				</g>
				<g class="st95">
					<polygon class="st4" points="-524.4,50.2 -423.5,133.2 -330,43.5 -431,-39.5 					"/>
				</g>
				<g class="st96">
					<polygon class="st4" points="-326.4,140.2 -180.7,205 -107.8,75.6 -253.5,10.8 					"/>
				</g>
				<g class="st97">
					<polygon class="st4" points="-70.9,763.6 58.6,986.4 309.4,871.4 179.9,648.6 					"/>
				</g>
				<g class="st98">
					<polygon class="st4" points="198.6,411.5 149,594.2 354.7,638.3 404.3,455.6 					"/>
				</g>
				<g class="st99">
					<polygon class="st4" points="144.9,289 73.7,466.7 273.8,530 345,352.3 					"/>
				</g>
				<g class="st100">
					<polygon class="st4" points="203.3,306.5 235.5,460.9 409.3,432.3 377.1,277.9 					"/>
				</g>
				<g class="st101">
					<polygon class="st4" points="7.2,156.1 -136.8,327.4 56.2,455.3 200.1,283.9 					"/>
				</g>
				<g class="st102">
					<polygon class="st4" points="-81.8,-3.8 -214.3,232.3 51.5,350 184,113.9 					"/>
				</g>
				<g class="st103">
					<polygon class="st4" points="815.3,717 518.7,866.2 686.6,1129.6 983.2,980.5 					"/>
				</g>
				<g class="st104">
					<polygon class="st4" points="1129.7,372.9 1127.9,560 1338.5,561.7 1340.4,374.6 					"/>
				</g>
				<g class="st105">
					<polygon class="st4" points="1265.6,762.4 1248.6,869 1368.6,884.1 1385.6,777.6 					"/>
				</g>
				<g class="st48">
					<polygon class="st4" points="1270.6,822 964.3,774.7 911,1046.7 1217.3,1094 					"/>
				</g>
				<g class="st106">
					<polygon class="st4" points="686.7,591.2 801.1,879.1 1125.1,777.4 1010.7,489.6 					"/>
				</g>
				<g class="st107">
					<polygon class="st4" points="818.6,405.6 825.5,706.5 1164.3,700.3 1157.3,399.5 					"/>
				</g>
				<g class="st108">
					<polygon class="st4" points="1254.2,567.4 942.9,631.8 1015.4,908.4 1326.7,843.9 					"/>
				</g>
				<g class="st109">
					<polygon class="st4" points="1160.3,449.9 948,636.7 1158.2,825.3 1370.6,638.5 					"/>
				</g>
				<g class="st110">
					<polygon class="st4" points="812.4,159 905.5,311.5 1077.2,228.8 984.1,76.3 					"/>
				</g>
				<g class="st111">
					<polygon class="st4" points="650.5,357.1 817.5,386 850,237.7 683,208.8 					"/>
				</g>
				<g class="st112">
					<polygon class="st4" points="553.4,357.2 783.2,373.5 801.5,169.3 571.7,153 					"/>
				</g>
				<g class="st113">
					<polygon class="st4" points="698.5,427.4 887.3,467.8 932.7,300.2 744,259.8 					"/>
				</g>
			</g>
		</g>
	</g>
</g>
</svg>
