<?xml version="1.0" encoding="utf-8"?>
<!-- Generator: Adobe Illustrator 23.0.5, SVG Export Plug-In . SVG Version: 6.00 Build 0)  -->
<svg version="1.1" id="Calque_1" xmlns="http://www.w3.org/2000/svg" xmlns:xlink="http://www.w3.org/1999/xlink" x="0px" y="0px"
	 viewBox="0 0 512 512" style="enable-background:new 0 0 512 512;" xml:space="preserve">
<style type="text/css">
	.st0{fill:url(#SVGID_1_);}
	.st1{fill:url(#SVGID_2_);}
	.st2{fill:url(#SVGID_3_);}
	.st3{clip-path:url(#SVGID_5_);}
	.st4{opacity:0.4608;}
	.st5{fill:#191E38;}
	.st6{opacity:0.4269;}
	.st7{opacity:0.1706;}
	.st8{opacity:0.1195;}
	.st9{opacity:3.346513e-02;}
	.st10{opacity:7.420787e-03;}
	.st11{opacity:0.1144;}
	.st12{opacity:6.543384e-02;}
	.st13{opacity:0.1642;}
	.st14{opacity:0.2054;}
	.st15{opacity:0.2302;}
	.st16{opacity:9.257451e-02;}
	.st17{opacity:0.2162;}
	.st18{opacity:0.192;}
	.st19{opacity:8.728410e-02;}
	.st20{opacity:0.2272;}
	.st21{opacity:0.1002;}
	.st22{opacity:4.425968e-04;}
	.st23{opacity:5.562328e-03;}
	.st24{opacity:0.8799;}
	.st25{opacity:0.6527;}
	.st26{opacity:0.4654;}
	.st27{opacity:0.4553;}
	.st28{opacity:9.448563e-02;}
	.st29{opacity:0.3146;}
	.st30{opacity:7.474595e-02;}
	.st31{opacity:0.1991;}
	.st32{opacity:0.2494;}
	.st33{opacity:0.2223;}
	.st34{opacity:0.1726;}
	.st35{opacity:0.1404;}
	.st36{opacity:9.877136e-03;}
	.st37{opacity:0.1303;}
	.st38{opacity:0.4187;}
	.st39{opacity:0.2861;}
	.st40{opacity:0.2802;}
	.st41{opacity:8.656751e-02;}
	.st42{opacity:0.181;}
	.st43{opacity:0.2041;}
	.st44{opacity:0.2938;}
	.st45{opacity:0.279;}
	.st46{opacity:0.2521;}
	.st47{opacity:0.111;}
	.st48{opacity:6.952296e-02;}
	.st49{opacity:0.1164;}
	.st50{opacity:0.5412;}
	.st51{opacity:0.3185;}
	.st52{opacity:0.1975;}
	.st53{opacity:0.1127;}
	.st54{opacity:0.161;}
	.st55{opacity:0.2991;}
	.st56{opacity:0.1853;}
	.st57{opacity:0.1393;}
	.st58{opacity:0.1609;}
	.st59{opacity:0.2919;}
	.st60{opacity:0.2413;}
	.st61{opacity:0.6994;}
	.st62{opacity:0.1931;}
	.st63{opacity:1.883855e-03;}
	.st64{opacity:0.2387;}
	.st65{opacity:0.1059;}
	.st66{opacity:0.5802;}
	.st67{opacity:4.909929e-02;}
	.st68{opacity:4.583165e-02;}
	.st69{opacity:2.120947e-03;}
	.st70{opacity:9.813196e-03;}
	.st71{opacity:8.522101e-02;}
	.st72{opacity:0.1069;}
	.st73{opacity:0.8018;}
	.st74{opacity:0.1968;}
	.st75{opacity:0.7559;}
	.st76{opacity:0.7578;}
	.st77{opacity:8.991690e-02;}
	.st78{opacity:9.121879e-02;}
	.st79{opacity:0.1245;}
	.st80{opacity:0.1449;}
	.st81{opacity:0.2001;}
	.st82{opacity:0.3287;}
	.st83{opacity:0.5447;}
	.st84{opacity:0.1591;}
	.st85{opacity:0.4135;}
	.st86{opacity:4.465252e-03;}
	.st87{opacity:0.1124;}
	.st88{opacity:6.558179e-02;}
	.st89{opacity:0.198;}
	.st90{opacity:0.3113;}
	.st91{opacity:0.5025;}
	.st92{opacity:0.1574;}
	.st93{opacity:0.2237;}
	.st94{opacity:0.3384;}
	.st95{opacity:0.359;}
	.st96{opacity:0.2093;}
	.st97{opacity:0.3802;}
	.st98{opacity:0.2664;}
	.st99{opacity:0.2294;}
	.st100{opacity:0.1538;}
	.st101{opacity:0.1504;}
	.st102{opacity:0.1848;}
	.st103{opacity:7.375503e-02;}
	.st104{opacity:0.1868;}
	.st105{opacity:0.2171;}
	.st106{opacity:0.8465;}
	.st107{opacity:0.1313;}
	.st108{opacity:0.165;}
	.st109{opacity:7.135014e-02;}
	.st110{opacity:0.1274;}
	.st111{opacity:6.429306e-02;}
	.st112{opacity:0.1331;}
	.st113{opacity:0.1136;}
	.st114{opacity:0.1639;}
	.st115{clip-path:url(#SVGID_7_);}
	.st116{clip-path:url(#SVGID_9_);}
</style>
<g>
	<linearGradient id="SVGID_1_" gradientUnits="userSpaceOnUse" x1="16.2363" y1="353.0273" x2="16.2363" y2="158.1953">
		<stop  offset="0" style="stop-color:#081C26"/>
		<stop  offset="0.5" style="stop-color:#2278A3"/>
		<stop  offset="1" style="stop-color:#081B26"/>
	</linearGradient>
	<path class="st0" d="M16.2,158.2c-9,0-16.2,7.3-16.2,16.2v162.4c0,9,7.3,16.2,16.2,16.2c9,0,16.2-7.3,16.2-16.2V174.4
		C32.5,165.5,25.2,158.2,16.2,158.2z"/>
	<linearGradient id="SVGID_2_" gradientUnits="userSpaceOnUse" x1="81.1797" y1="353.0273" x2="81.1797" y2="158.1953">
		<stop  offset="0" style="stop-color:#081C26"/>
		<stop  offset="0.5" style="stop-color:#2278A3"/>
		<stop  offset="1" style="stop-color:#081B26"/>
	</linearGradient>
	<path class="st1" d="M81.2,158.2c-9,0-16.2,7.3-16.2,16.2v162.4c0,9,7.3,16.2,16.2,16.2s16.2-7.3,16.2-16.2V174.4
		C97.4,165.5,90.1,158.2,81.2,158.2z"/>
	<linearGradient id="SVGID_3_" gradientUnits="userSpaceOnUse" x1="320.5293" y1="434.2227" x2="320.5293" y2="77">
		<stop  offset="0" style="stop-color:#081C26"/>
		<stop  offset="0.5" style="stop-color:#2278A3"/>
		<stop  offset="1" style="stop-color:#081B26"/>
	</linearGradient>
	<polygon class="st2" points="512,255.6 292.2,77 292.2,158.2 129.1,158.2 129.1,255.6 129.1,353 292.2,353 292.2,434.2 	"/>
</g>
<g>
	<g>
		<defs>
			<path id="SVGID_4_" d="M16.2,158.2c-9,0-16.2,7.3-16.2,16.2v162.4c0,9,7.3,16.2,16.2,16.2c9,0,16.2-7.3,16.2-16.2V174.4
				C32.5,165.5,25.2,158.2,16.2,158.2z"/>
		</defs>
		<clipPath id="SVGID_5_">
			<use xlink:href="#SVGID_4_"  style="overflow:visible;"/>
		</clipPath>
		<g class="st3">
			<g>
				<g class="st4">
					<polygon class="st5" points="520.1,107.3 517,77.4 556.3,75.1 559.4,104.9 					"/>
				</g>
				<g class="st6">
					<polygon class="st5" points="527.1,125.4 523.4,93.6 565.1,90.8 568.8,122.6 					"/>
				</g>
				<g class="st7">
					<polygon class="st5" points="513.2,152.4 491.2,122.7 530.1,106 552.1,135.6 					"/>
				</g>
				<g class="st8">
					<polygon class="st5" points="487.1,127.8 447.1,104.9 477.2,74.4 517.2,97.3 					"/>
				</g>
				<g class="st9">
					<polygon class="st5" points="488,179.7 399.5,178.1 401.6,110.7 490.1,112.3 					"/>
				</g>
				<g class="st10">
					<polygon class="st5" points="349.5,177 355,110.1 442.8,114.2 437.4,181.1 					"/>
				</g>
				<g class="st11">
					<polygon class="st5" points="324.6,133.5 309.3,71.6 390.6,60 405.8,121.9 					"/>
				</g>
				<g class="st12">
					<polygon class="st5" points="305.3,181.7 291.8,137.5 349.9,127.2 363.4,171.4 					"/>
				</g>
				<g class="st13">
					<polygon class="st5" points="253.6,169.6 266.6,114.5 339,124.4 326,179.5 					"/>
				</g>
				<g class="st14">
					<polygon class="st5" points="334.4,102.5 308.3,47.1 381,27.2 407.1,82.6 					"/>
				</g>
				<g class="st15">
					<polygon class="st5" points="378.5,101.2 372.3,39.4 453.4,34.7 459.6,96.4 					"/>
				</g>
				<g class="st16">
					<polygon class="st5" points="253.6,157.3 240.7,73.4 351,63.5 363.9,147.5 					"/>
				</g>
				<g class="st17">
					<polygon class="st5" points="222.7,127.3 139.2,84.7 195.2,21.1 278.8,63.7 					"/>
				</g>
				<g class="st18">
					<polygon class="st5" points="76.8,208 -9.7,93.6 140.6,27.7 227.1,142.2 					"/>
				</g>
				<g class="st19">
					<polygon class="st5" points="50.1,204.2 5,147.3 79.6,113 124.7,169.8 					"/>
				</g>
				<g class="st20">
					<polygon class="st5" points="-11.1,162.6 3.8,98.7 87.8,110 72.9,173.9 					"/>
				</g>
				<g class="st21">
					<polygon class="st5" points="-33.3,106.9 10.1,51.1 83.4,84.1 40,140 					"/>
				</g>
				<g class="st22">
					<polygon class="st5" points="-13.6,54.8 -6.2,-3.7 70.8,1.9 63.3,60.5 					"/>
				</g>
				<g class="st23">
					<polygon class="st5" points="-70.6,90.2 -70,31.4 7.3,31.8 6.7,90.6 					"/>
				</g>
				<g class="st24">
					<polygon class="st5" points="-138.5,193.6 -103.9,141 -34.8,167.4 -69.4,220 					"/>
				</g>
				<g class="st25">
					<polygon class="st5" points="-73.5,367.6 -100,310.9 -25.5,290.7 1,347.5 					"/>
				</g>
				<g class="st26">
					<polygon class="st5" points="-75.9,430.7 -80.6,363.3 7.9,359.7 12.7,427.1 					"/>
				</g>
				<g class="st27">
					<polygon class="st5" points="-52.4,446 -1.9,351 122.8,389.4 72.4,484.4 					"/>
				</g>
				<g class="st28">
					<polygon class="st5" points="-80.2,331.3 4,226.8 141.3,291 57,395.5 					"/>
				</g>
				<g class="st29">
					<polygon class="st5" points="-81.2,260 -58.1,203.9 15.7,221.4 -7.4,277.6 					"/>
				</g>
				<g class="st30">
					<polygon class="st5" points="-34.4,250.2 -47.8,192.2 28.4,182 41.8,240 					"/>
				</g>
				<g class="st31">
					<polygon class="st5" points="39.8,289.3 54.9,234.9 126.4,246.4 111.2,300.8 					"/>
				</g>
				<g class="st32">
					<polygon class="st5" points="51.5,396.6 28.4,280.7 180.8,263.1 203.8,379.1 					"/>
				</g>
				<g class="st33">
					<polygon class="st5" points="225.2,234.1 176.3,227.3 185.2,190.1 234.1,196.9 					"/>
				</g>
				<g class="st34">
					<polygon class="st5" points="185.1,206.3 190.8,163.1 247.5,167.4 241.8,210.6 					"/>
				</g>
				<g class="st35">
					<polygon class="st5" points="81.5,245.2 59.4,188.7 133.5,171.9 155.6,228.3 					"/>
				</g>
				<g class="st36">
					<polygon class="st5" points="118.1,242.5 28.4,104.3 209.9,36 299.6,174.2 					"/>
				</g>
				<g class="st37">
					<polygon class="st5" points="265.2,269.2 216.5,276.3 207.2,239.3 255.9,232.2 					"/>
				</g>
				<g class="st38">
					<polygon class="st5" points="224.9,451.2 215.6,390.6 295.3,383.5 304.6,444.2 					"/>
				</g>
				<g class="st39">
					<polygon class="st5" points="360,358.6 404.3,315.5 460.9,349.2 416.6,392.3 					"/>
				</g>
				<g class="st40">
					<polygon class="st5" points="467.5,269.8 450.6,204.7 536,191.8 553,256.9 					"/>
				</g>
				<g class="st41">
					
						<rect x="460" y="216.7" transform="matrix(-4.490560e-11 1 -1 -4.490560e-11 776.6047 -229.8519)" class="st5" width="86.4" height="113.4"/>
				</g>
				<g class="st42">
					
						<rect x="492" y="250.5" transform="matrix(-4.490471e-11 1 -1 -4.490471e-11 828.3237 -229.8895)" class="st5" width="74.2" height="97.4"/>
				</g>
				<g class="st43">
					<polygon class="st5" points="504.5,201.1 487.2,147.7 557.4,134.5 574.7,188 					"/>
				</g>
				<g class="st44">
					<polygon class="st5" points="366.7,326.4 382.4,224.7 516,236.6 500.3,338.3 					"/>
				</g>
				<g class="st45">
					<polygon class="st5" points="318.8,271.6 366.4,252.9 391.1,289.1 343.5,307.8 					"/>
				</g>
				<g class="st46">
					<polygon class="st5" points="258.7,324.5 250,277.6 311.6,271 320.3,317.9 					"/>
				</g>
				<g class="st47">
					<polygon class="st5" points="240.8,410 232.6,351.5 309.4,345.2 317.6,403.7 					"/>
				</g>
				<g class="st48">
					<polygon class="st5" points="371.8,233.6 383.8,182.6 450.8,191.7 438.8,242.7 					"/>
				</g>
				<g class="st49">
					
						<rect x="430" y="242.4" transform="matrix(-4.492247e-11 1 -1 -4.492247e-11 784.7762 -172.4156)" class="st5" width="97.2" height="127.7"/>
				</g>
				<g class="st50">
					
						<rect x="499.2" y="360.9" transform="matrix(-4.490560e-11 1 -1 -4.490560e-11 910.0964 -131.5287)" class="st5" width="43.2" height="56.7"/>
				</g>
				<g class="st51">
					<polygon class="st5" points="300.2,378.8 307.4,325.7 377.1,331.1 370,384.2 					"/>
				</g>
				<g class="st52">
					<polygon class="st5" points="146.1,450.8 128.8,363.8 243.1,350.7 260.4,437.7 					"/>
				</g>
				<g class="st53">
					<polygon class="st5" points="39.2,442.2 42.2,340.6 175.8,342.9 172.7,444.5 					"/>
				</g>
				<g class="st54">
					<polygon class="st5" points="193.4,349.2 175.8,312.3 224.3,298.8 241.9,335.7 					"/>
				</g>
				<g class="st55">
					<polygon class="st5" points="311.8,232.6 353.1,178.5 424.2,210 382.9,264.1 					"/>
				</g>
				<g class="st56">
					<polygon class="st5" points="258.8,208.2 259.6,183 292.8,183.6 292,208.8 					"/>
				</g>
				<g class="st57">
					<polygon class="st5" points="241.3,257.1 196.1,262.2 189.4,227.8 234.6,222.7 					"/>
				</g>
				<g class="st58">
					<polygon class="st5" points="239.5,314 191.9,292.8 219.7,256.6 267.3,277.8 					"/>
				</g>
				<g class="st59">
					<polygon class="st5" points="281.7,230.5 274.2,196.2 319.2,190.5 326.7,224.7 					"/>
				</g>
				<g class="st60">
					<polygon class="st5" points="256.2,280.3 261.8,221.2 339.3,225.5 333.8,284.5 					"/>
				</g>
			</g>
			<g>
				<g class="st61">
					<polygon class="st5" points="517.1,204.1 510,163.7 563.1,158.2 570.2,198.6 					"/>
				</g>
				<g class="st62">
					<polygon class="st5" points="484.4,115.5 450.1,57.8 525.9,31.7 560.3,89.4 					"/>
				</g>
				<g class="st63">
					<polygon class="st5" points="387.2,40.3 354.7,8 397.1,-16.7 429.6,15.6 					"/>
				</g>
				<g class="st64">
					<polygon class="st5" points="160.2,116.3 262,118 259.8,195.6 157.9,193.9 					"/>
				</g>
				<g class="st65">
					<polygon class="st5" points="125.1,191.5 103.4,141.4 169.2,124.9 190.9,175 					"/>
				</g>
				<g class="st66">
					<polygon class="st5" points="48.6,64.4 107.3,40.4 138.8,85.1 80.1,109.1 					"/>
				</g>
				<g class="st67">
					<polygon class="st5" points="194.3,71.1 135.5,32.9 185.7,-11.8 244.5,26.4 					"/>
				</g>
				<g class="st68">
					<polygon class="st5" points="216.5,78.6 239.4,21.8 314,39.3 291.1,96.1 					"/>
				</g>
				<g class="st69">
					<polygon class="st5" points="267.6,174.6 405.9,210.5 358.6,315.8 220.3,279.8 					"/>
				</g>
				<g class="st70">
					<polygon class="st5" points="186,161.5 287.7,185.4 256.3,262.8 154.6,238.9 					"/>
				</g>
				<g class="st47">
					<polygon class="st5" points="441.8,82.1 344.5,100.7 320,26.7 417.3,8 					"/>
				</g>
				<g class="st71">
					<polygon class="st5" points="329.1,204.2 382.4,210.1 374.6,250.6 321.3,244.7 					"/>
				</g>
				<g class="st72">
					<polygon class="st5" points="130,130.8 174.2,87.9 230.5,121.6 186.4,164.4 					"/>
				</g>
				<g class="st73">
					<polygon class="st5" points="-24.8,91.1 36.7,45.6 96.4,92.3 35,137.9 					"/>
				</g>
				<g class="st74">
					<polygon class="st5" points="-99.1,194.6 -74.9,155.1 -23.1,173.5 -47.3,213 					"/>
				</g>
				<g class="st75">
					<polygon class="st5" points="-105.5,312.9 -74.9,274.4 -24.3,297.7 -54.9,336.2 					"/>
				</g>
				<g class="st76">
					<polygon class="st5" points="82.4,405.3 150.9,385 177.6,437.1 109.1,457.4 					"/>
				</g>
				<g class="st77">
					<polygon class="st5" points="296.6,321.3 347.9,283.7 397.3,322.7 346.1,360.4 					"/>
				</g>
				<g class="st78">
					<polygon class="st5" points="357,383 400,326.5 474.2,359.3 431.1,415.8 					"/>
				</g>
				<g class="st79">
					<polygon class="st5" points="413.3,331.5 467.7,295.9 514.4,337.4 460,372.9 					"/>
				</g>
				<g class="st80">
					<polygon class="st5" points="135.3,282.8 33.4,234.3 97.2,156.7 199.1,205.3 					"/>
				</g>
				<g class="st81">
					<polygon class="st5" points="40.4,391.6 27.7,326.4 113.3,316.7 126,381.9 					"/>
				</g>
				<g class="st82">
					<polygon class="st5" points="-42.7,170.3 65.2,172.2 62.7,254.3 -45.2,252.4 					"/>
				</g>
				<g class="st83">
					<polygon class="st5" points="-27.7,224.7 60.9,229.1 55.1,296.6 -33.5,292.1 					"/>
				</g>
				<g class="st84">
					<polygon class="st5" points="-63.4,341.8 -41.9,292.3 23.2,308.7 1.6,358.2 					"/>
				</g>
				<g class="st85">
					<polygon class="st5" points="92.5,355.5 104.1,312.6 160.4,321.5 148.8,364.3 					"/>
				</g>
				<g class="st86">
					<polygon class="st5" points="216.6,256.7 291.4,244.3 307.8,301.3 232.9,313.7 					"/>
				</g>
				<g class="st87">
					<polygon class="st5" points="129.7,362.6 163,277.1 275.4,302.4 242.1,387.9 					"/>
				</g>
				<g class="st88">
					<polygon class="st5" points="159.9,370.7 228.8,302.9 317.9,355.4 248.9,423.2 					"/>
				</g>
				<g class="st89">
					<polygon class="st5" points="142.9,406.7 226.3,333.3 322.7,396.7 239.3,470.1 					"/>
				</g>
				<g class="st90">
					<polygon class="st5" points="244.2,389.9 368.8,320.6 459.7,415.5 335.1,484.7 					"/>
				</g>
				<g class="st91">
					<polygon class="st5" points="493.4,334.1 535,284.5 600.1,316.1 558.6,365.7 					"/>
				</g>
				<g class="st92">
					<polygon class="st5" points="392.6,356.8 464,313.7 520.6,368 449.3,411.1 					"/>
				</g>
				<g class="st93">
					<polygon class="st5" points="213.5,469.1 278.6,424.5 337.2,474 272.2,518.6 					"/>
				</g>
				<g class="st94">
					<polygon class="st5" points="47.2,400.1 96.5,366.9 140.1,404.4 90.8,437.7 					"/>
				</g>
				<g class="st95">
					<polygon class="st5" points="-59,413.2 -7.3,385.1 29.6,424.4 -22,452.6 					"/>
				</g>
				<g class="st96">
					<polygon class="st5" points="-149,378.3 -111,351.5 -75.8,380.4 -113.8,407.2 					"/>
				</g>
				<g class="st97">
					<polygon class="st5" points="-74.4,349.2 -19.5,328.3 7.9,370.1 -47,391 					"/>
				</g>
				<g class="st98">
					<polygon class="st5" points="21.8,147.9 70.6,76 165.1,113.2 116.3,185.1 					"/>
				</g>
				<g class="st99">
					<polygon class="st5" points="123.4,261.6 104.7,202.6 182.1,188.4 200.8,247.4 					"/>
				</g>
				<g class="st100">
					<polygon class="st5" points="103.1,301.2 76.3,243.8 151.7,223.4 178.5,280.8 					"/>
				</g>
				<g class="st101">
					<polygon class="st5" points="125.1,295.5 137.2,245.7 202.7,254.9 190.6,304.8 					"/>
				</g>
				<g class="st102">
					<polygon class="st5" points="51.2,344.1 -3,288.8 69.7,247.5 123.9,302.8 					"/>
				</g>
				<g class="st103">
					<polygon class="st5" points="17.7,395.7 -32.2,319.5 67.9,281.5 117.8,357.7 					"/>
				</g>
				<g class="st104">
					<polygon class="st5" points="355.7,163 243.9,114.8 307.2,29.8 418.9,77.9 					"/>
				</g>
				<g class="st105">
					<polygon class="st5" points="474.1,274.1 473.4,213.7 552.8,213.2 553.5,273.6 					"/>
				</g>
				<g class="st106">
					<polygon class="st5" points="525.3,148.3 518.9,113.9 564.1,109 570.5,143.4 					"/>
				</g>
				<g class="st49">
					<polygon class="st5" points="527.2,129.1 411.8,144.4 391.7,56.6 507.1,41.3 					"/>
				</g>
				<g class="st107">
					<polygon class="st5" points="307.2,203.6 350.3,110.7 472.4,143.5 429.3,236.4 					"/>
				</g>
				<g class="st108">
					<polygon class="st5" points="356.9,263.5 359.5,166.4 487.1,168.4 484.5,265.5 					"/>
				</g>
				<g class="st109">
					<polygon class="st5" points="521,211.3 403.7,190.5 431,101.2 548.3,122 					"/>
				</g>
				<g class="st110">
					<polygon class="st5" points="485.6,249.2 405.6,188.9 484.8,128 564.8,188.3 					"/>
				</g>
				<g class="st111">
					<polygon class="st5" points="354.6,343.1 389.6,293.9 454.3,320.6 419.3,369.8 					"/>
				</g>
				<g class="st112">
					<polygon class="st5" points="293.6,279.2 356.5,269.9 368.7,317.8 305.8,327.1 					"/>
				</g>
				<g class="st113">
					<polygon class="st5" points="257,279.2 343.6,273.9 350.5,339.8 263.9,345.1 					"/>
				</g>
				<g class="st114">
					<polygon class="st5" points="311.7,256.5 382.8,243.5 399.9,297.6 328.8,310.6 					"/>
				</g>
			</g>
		</g>
	</g>
	<g>
		<defs>
			<path id="SVGID_6_" d="M81.2,158.2c-9,0-16.2,7.3-16.2,16.2v162.4c0,9,7.3,16.2,16.2,16.2s16.2-7.3,16.2-16.2V174.4
				C97.4,165.5,90.1,158.2,81.2,158.2z"/>
		</defs>
		<clipPath id="SVGID_7_">
			<use xlink:href="#SVGID_6_"  style="overflow:visible;"/>
		</clipPath>
		<g class="st115">
			<g>
				<g class="st4">
					<polygon class="st5" points="520.1,107.3 517,77.4 556.3,75.1 559.4,104.9 					"/>
				</g>
				<g class="st6">
					<polygon class="st5" points="527.1,125.4 523.4,93.6 565.1,90.8 568.8,122.6 					"/>
				</g>
				<g class="st7">
					<polygon class="st5" points="513.2,152.4 491.2,122.7 530.1,106 552.1,135.6 					"/>
				</g>
				<g class="st8">
					<polygon class="st5" points="487.1,127.8 447.1,104.9 477.2,74.4 517.2,97.3 					"/>
				</g>
				<g class="st9">
					<polygon class="st5" points="488,179.7 399.5,178.1 401.6,110.7 490.1,112.3 					"/>
				</g>
				<g class="st10">
					<polygon class="st5" points="349.5,177 355,110.1 442.8,114.2 437.4,181.1 					"/>
				</g>
				<g class="st11">
					<polygon class="st5" points="324.6,133.5 309.3,71.6 390.6,60 405.8,121.9 					"/>
				</g>
				<g class="st12">
					<polygon class="st5" points="305.3,181.7 291.8,137.5 349.9,127.2 363.4,171.4 					"/>
				</g>
				<g class="st13">
					<polygon class="st5" points="253.6,169.6 266.6,114.5 339,124.4 326,179.5 					"/>
				</g>
				<g class="st14">
					<polygon class="st5" points="334.4,102.5 308.3,47.1 381,27.2 407.1,82.6 					"/>
				</g>
				<g class="st15">
					<polygon class="st5" points="378.5,101.2 372.3,39.4 453.4,34.7 459.6,96.4 					"/>
				</g>
				<g class="st16">
					<polygon class="st5" points="253.6,157.3 240.7,73.4 351,63.5 363.9,147.5 					"/>
				</g>
				<g class="st17">
					<polygon class="st5" points="222.7,127.3 139.2,84.7 195.2,21.1 278.8,63.7 					"/>
				</g>
				<g class="st18">
					<polygon class="st5" points="76.8,208 -9.7,93.6 140.6,27.7 227.1,142.2 					"/>
				</g>
				<g class="st19">
					<polygon class="st5" points="50.1,204.2 5,147.3 79.6,113 124.7,169.8 					"/>
				</g>
				<g class="st20">
					<polygon class="st5" points="-11.1,162.6 3.8,98.7 87.8,110 72.9,173.9 					"/>
				</g>
				<g class="st21">
					<polygon class="st5" points="-33.3,106.9 10.1,51.1 83.4,84.1 40,140 					"/>
				</g>
				<g class="st22">
					<polygon class="st5" points="-13.6,54.8 -6.2,-3.7 70.8,1.9 63.3,60.5 					"/>
				</g>
				<g class="st23">
					<polygon class="st5" points="-70.6,90.2 -70,31.4 7.3,31.8 6.7,90.6 					"/>
				</g>
				<g class="st24">
					<polygon class="st5" points="-138.5,193.6 -103.9,141 -34.8,167.4 -69.4,220 					"/>
				</g>
				<g class="st25">
					<polygon class="st5" points="-73.5,367.6 -100,310.9 -25.5,290.7 1,347.5 					"/>
				</g>
				<g class="st26">
					<polygon class="st5" points="-75.9,430.7 -80.6,363.3 7.9,359.7 12.7,427.1 					"/>
				</g>
				<g class="st27">
					<polygon class="st5" points="-52.4,446 -1.9,351 122.8,389.4 72.4,484.4 					"/>
				</g>
				<g class="st28">
					<polygon class="st5" points="-80.2,331.3 4,226.8 141.3,291 57,395.5 					"/>
				</g>
				<g class="st29">
					<polygon class="st5" points="-81.2,260 -58.1,203.9 15.7,221.4 -7.4,277.6 					"/>
				</g>
				<g class="st30">
					<polygon class="st5" points="-34.4,250.2 -47.8,192.2 28.4,182 41.8,240 					"/>
				</g>
				<g class="st31">
					<polygon class="st5" points="39.8,289.3 54.9,234.9 126.4,246.4 111.2,300.8 					"/>
				</g>
				<g class="st32">
					<polygon class="st5" points="51.5,396.6 28.4,280.7 180.8,263.1 203.8,379.1 					"/>
				</g>
				<g class="st33">
					<polygon class="st5" points="225.2,234.1 176.3,227.3 185.2,190.1 234.1,196.9 					"/>
				</g>
				<g class="st34">
					<polygon class="st5" points="185.1,206.3 190.8,163.1 247.5,167.4 241.8,210.6 					"/>
				</g>
				<g class="st35">
					<polygon class="st5" points="81.5,245.2 59.4,188.7 133.5,171.9 155.6,228.3 					"/>
				</g>
				<g class="st36">
					<polygon class="st5" points="118.1,242.5 28.4,104.3 209.9,36 299.6,174.2 					"/>
				</g>
				<g class="st37">
					<polygon class="st5" points="265.2,269.2 216.5,276.3 207.2,239.3 255.9,232.2 					"/>
				</g>
				<g class="st38">
					<polygon class="st5" points="224.9,451.2 215.6,390.6 295.3,383.5 304.6,444.2 					"/>
				</g>
				<g class="st39">
					<polygon class="st5" points="360,358.6 404.3,315.5 460.9,349.2 416.6,392.3 					"/>
				</g>
				<g class="st40">
					<polygon class="st5" points="467.5,269.8 450.6,204.7 536,191.8 553,256.9 					"/>
				</g>
				<g class="st41">
					
						<rect x="460" y="216.7" transform="matrix(-4.490560e-11 1 -1 -4.490560e-11 776.6047 -229.8519)" class="st5" width="86.4" height="113.4"/>
				</g>
				<g class="st42">
					
						<rect x="492" y="250.5" transform="matrix(-4.490471e-11 1 -1 -4.490471e-11 828.3237 -229.8895)" class="st5" width="74.2" height="97.4"/>
				</g>
				<g class="st43">
					<polygon class="st5" points="504.5,201.1 487.2,147.7 557.4,134.5 574.7,188 					"/>
				</g>
				<g class="st44">
					<polygon class="st5" points="366.7,326.4 382.4,224.7 516,236.6 500.3,338.3 					"/>
				</g>
				<g class="st45">
					<polygon class="st5" points="318.8,271.6 366.4,252.9 391.1,289.1 343.5,307.8 					"/>
				</g>
				<g class="st46">
					<polygon class="st5" points="258.7,324.5 250,277.6 311.6,271 320.3,317.9 					"/>
				</g>
				<g class="st47">
					<polygon class="st5" points="240.8,410 232.6,351.5 309.4,345.2 317.6,403.7 					"/>
				</g>
				<g class="st48">
					<polygon class="st5" points="371.8,233.6 383.8,182.6 450.8,191.7 438.8,242.7 					"/>
				</g>
				<g class="st49">
					
						<rect x="430" y="242.4" transform="matrix(-4.492247e-11 1 -1 -4.492247e-11 784.7762 -172.4156)" class="st5" width="97.2" height="127.7"/>
				</g>
				<g class="st50">
					
						<rect x="499.2" y="360.9" transform="matrix(-4.490560e-11 1 -1 -4.490560e-11 910.0964 -131.5287)" class="st5" width="43.2" height="56.7"/>
				</g>
				<g class="st51">
					<polygon class="st5" points="300.2,378.8 307.4,325.7 377.1,331.1 370,384.2 					"/>
				</g>
				<g class="st52">
					<polygon class="st5" points="146.1,450.8 128.8,363.8 243.1,350.7 260.4,437.7 					"/>
				</g>
				<g class="st53">
					<polygon class="st5" points="39.2,442.2 42.2,340.6 175.8,342.9 172.7,444.5 					"/>
				</g>
				<g class="st54">
					<polygon class="st5" points="193.4,349.2 175.8,312.3 224.3,298.8 241.9,335.7 					"/>
				</g>
				<g class="st55">
					<polygon class="st5" points="311.8,232.6 353.1,178.5 424.2,210 382.9,264.1 					"/>
				</g>
				<g class="st56">
					<polygon class="st5" points="258.8,208.2 259.6,183 292.8,183.6 292,208.8 					"/>
				</g>
				<g class="st57">
					<polygon class="st5" points="241.3,257.1 196.1,262.2 189.4,227.8 234.6,222.7 					"/>
				</g>
				<g class="st58">
					<polygon class="st5" points="239.5,314 191.9,292.8 219.7,256.6 267.3,277.8 					"/>
				</g>
				<g class="st59">
					<polygon class="st5" points="281.7,230.5 274.2,196.2 319.2,190.5 326.7,224.7 					"/>
				</g>
				<g class="st60">
					<polygon class="st5" points="256.2,280.3 261.8,221.2 339.3,225.5 333.8,284.5 					"/>
				</g>
			</g>
			<g>
				<g class="st61">
					<polygon class="st5" points="517.1,204.1 510,163.7 563.1,158.2 570.2,198.6 					"/>
				</g>
				<g class="st62">
					<polygon class="st5" points="484.4,115.5 450.1,57.8 525.9,31.7 560.3,89.4 					"/>
				</g>
				<g class="st63">
					<polygon class="st5" points="387.2,40.3 354.7,8 397.1,-16.7 429.6,15.6 					"/>
				</g>
				<g class="st64">
					<polygon class="st5" points="160.2,116.3 262,118 259.8,195.6 157.9,193.9 					"/>
				</g>
				<g class="st65">
					<polygon class="st5" points="125.1,191.5 103.4,141.4 169.2,124.9 190.9,175 					"/>
				</g>
				<g class="st66">
					<polygon class="st5" points="48.6,64.4 107.3,40.4 138.8,85.1 80.1,109.1 					"/>
				</g>
				<g class="st67">
					<polygon class="st5" points="194.3,71.1 135.5,32.9 185.7,-11.8 244.5,26.4 					"/>
				</g>
				<g class="st68">
					<polygon class="st5" points="216.5,78.6 239.4,21.8 314,39.3 291.1,96.1 					"/>
				</g>
				<g class="st69">
					<polygon class="st5" points="267.6,174.6 405.9,210.5 358.6,315.8 220.3,279.8 					"/>
				</g>
				<g class="st70">
					<polygon class="st5" points="186,161.5 287.7,185.4 256.3,262.8 154.6,238.9 					"/>
				</g>
				<g class="st47">
					<polygon class="st5" points="441.8,82.1 344.5,100.7 320,26.7 417.3,8 					"/>
				</g>
				<g class="st71">
					<polygon class="st5" points="329.1,204.2 382.4,210.1 374.6,250.6 321.3,244.7 					"/>
				</g>
				<g class="st72">
					<polygon class="st5" points="130,130.8 174.2,87.9 230.5,121.6 186.4,164.4 					"/>
				</g>
				<g class="st73">
					<polygon class="st5" points="-24.8,91.1 36.7,45.6 96.4,92.3 35,137.9 					"/>
				</g>
				<g class="st74">
					<polygon class="st5" points="-99.1,194.6 -74.9,155.1 -23.1,173.5 -47.3,213 					"/>
				</g>
				<g class="st75">
					<polygon class="st5" points="-105.5,312.9 -74.9,274.4 -24.3,297.7 -54.9,336.2 					"/>
				</g>
				<g class="st76">
					<polygon class="st5" points="82.4,405.3 150.9,385 177.6,437.1 109.1,457.4 					"/>
				</g>
				<g class="st77">
					<polygon class="st5" points="296.6,321.3 347.9,283.7 397.3,322.7 346.1,360.4 					"/>
				</g>
				<g class="st78">
					<polygon class="st5" points="357,383 400,326.5 474.2,359.3 431.1,415.8 					"/>
				</g>
				<g class="st79">
					<polygon class="st5" points="413.3,331.5 467.7,295.9 514.4,337.4 460,372.9 					"/>
				</g>
				<g class="st80">
					<polygon class="st5" points="135.3,282.8 33.4,234.3 97.2,156.7 199.1,205.3 					"/>
				</g>
				<g class="st81">
					<polygon class="st5" points="40.4,391.6 27.7,326.4 113.3,316.7 126,381.9 					"/>
				</g>
				<g class="st82">
					<polygon class="st5" points="-42.7,170.3 65.2,172.2 62.7,254.3 -45.2,252.4 					"/>
				</g>
				<g class="st83">
					<polygon class="st5" points="-27.7,224.7 60.9,229.1 55.1,296.6 -33.5,292.1 					"/>
				</g>
				<g class="st84">
					<polygon class="st5" points="-63.4,341.8 -41.9,292.3 23.2,308.7 1.6,358.2 					"/>
				</g>
				<g class="st85">
					<polygon class="st5" points="92.5,355.5 104.1,312.6 160.4,321.5 148.8,364.3 					"/>
				</g>
				<g class="st86">
					<polygon class="st5" points="216.6,256.7 291.4,244.3 307.8,301.3 232.9,313.7 					"/>
				</g>
				<g class="st87">
					<polygon class="st5" points="129.7,362.6 163,277.1 275.4,302.4 242.1,387.9 					"/>
				</g>
				<g class="st88">
					<polygon class="st5" points="159.9,370.7 228.8,302.9 317.9,355.4 248.9,423.2 					"/>
				</g>
				<g class="st89">
					<polygon class="st5" points="142.9,406.7 226.3,333.3 322.7,396.7 239.3,470.1 					"/>
				</g>
				<g class="st90">
					<polygon class="st5" points="244.2,389.9 368.8,320.6 459.7,415.5 335.1,484.7 					"/>
				</g>
				<g class="st91">
					<polygon class="st5" points="493.4,334.1 535,284.5 600.1,316.1 558.6,365.7 					"/>
				</g>
				<g class="st92">
					<polygon class="st5" points="392.6,356.8 464,313.7 520.6,368 449.3,411.1 					"/>
				</g>
				<g class="st93">
					<polygon class="st5" points="213.5,469.1 278.6,424.5 337.2,474 272.2,518.6 					"/>
				</g>
				<g class="st94">
					<polygon class="st5" points="47.2,400.1 96.5,366.9 140.1,404.4 90.8,437.7 					"/>
				</g>
				<g class="st95">
					<polygon class="st5" points="-59,413.2 -7.3,385.1 29.6,424.4 -22,452.6 					"/>
				</g>
				<g class="st96">
					<polygon class="st5" points="-149,378.3 -111,351.5 -75.8,380.4 -113.8,407.2 					"/>
				</g>
				<g class="st97">
					<polygon class="st5" points="-74.4,349.2 -19.5,328.3 7.9,370.1 -47,391 					"/>
				</g>
				<g class="st98">
					<polygon class="st5" points="21.8,147.9 70.6,76 165.1,113.2 116.3,185.1 					"/>
				</g>
				<g class="st99">
					<polygon class="st5" points="123.4,261.6 104.7,202.6 182.1,188.4 200.8,247.4 					"/>
				</g>
				<g class="st100">
					<polygon class="st5" points="103.1,301.2 76.3,243.8 151.7,223.4 178.5,280.8 					"/>
				</g>
				<g class="st101">
					<polygon class="st5" points="125.1,295.5 137.2,245.7 202.7,254.9 190.6,304.8 					"/>
				</g>
				<g class="st102">
					<polygon class="st5" points="51.2,344.1 -3,288.8 69.7,247.5 123.9,302.8 					"/>
				</g>
				<g class="st103">
					<polygon class="st5" points="17.7,395.7 -32.2,319.5 67.9,281.5 117.8,357.7 					"/>
				</g>
				<g class="st104">
					<polygon class="st5" points="355.7,163 243.9,114.8 307.2,29.8 418.9,77.9 					"/>
				</g>
				<g class="st105">
					<polygon class="st5" points="474.1,274.1 473.4,213.7 552.8,213.2 553.5,273.6 					"/>
				</g>
				<g class="st106">
					<polygon class="st5" points="525.3,148.3 518.9,113.9 564.1,109 570.5,143.4 					"/>
				</g>
				<g class="st49">
					<polygon class="st5" points="527.2,129.1 411.8,144.4 391.7,56.6 507.1,41.3 					"/>
				</g>
				<g class="st107">
					<polygon class="st5" points="307.2,203.6 350.3,110.7 472.4,143.5 429.3,236.4 					"/>
				</g>
				<g class="st108">
					<polygon class="st5" points="356.9,263.5 359.5,166.4 487.1,168.4 484.5,265.5 					"/>
				</g>
				<g class="st109">
					<polygon class="st5" points="521,211.3 403.7,190.5 431,101.2 548.3,122 					"/>
				</g>
				<g class="st110">
					<polygon class="st5" points="485.6,249.2 405.6,188.9 484.8,128 564.8,188.3 					"/>
				</g>
				<g class="st111">
					<polygon class="st5" points="354.6,343.1 389.6,293.9 454.3,320.6 419.3,369.8 					"/>
				</g>
				<g class="st112">
					<polygon class="st5" points="293.6,279.2 356.5,269.9 368.7,317.8 305.8,327.1 					"/>
				</g>
				<g class="st113">
					<polygon class="st5" points="257,279.2 343.6,273.9 350.5,339.8 263.9,345.1 					"/>
				</g>
				<g class="st114">
					<polygon class="st5" points="311.7,256.5 382.8,243.5 399.9,297.6 328.8,310.6 					"/>
				</g>
			</g>
		</g>
	</g>
	<g>
		<defs>
			<polygon id="SVGID_8_" points="512,255.6 292.2,77 292.2,158.2 129.1,158.2 129.1,255.6 129.1,353 292.2,353 292.2,434.2 			"/>
		</defs>
		<clipPath id="SVGID_9_">
			<use xlink:href="#SVGID_8_"  style="overflow:visible;"/>
		</clipPath>
		<g class="st116">
			<g>
				<g>
					
						<rect x="467.5" y="-202.1" transform="matrix(-4.492070e-11 1 -1 -4.492070e-11 333.4889 -660.3237)" class="st5" width="58.8" height="77.3"/>
				</g>
				<g class="st4">
					<polygon class="st5" points="520.1,107.3 517,77.4 556.3,75.1 559.4,104.9 					"/>
				</g>
				<g class="st6">
					<polygon class="st5" points="527.1,125.4 523.4,93.6 565.1,90.8 568.8,122.6 					"/>
				</g>
				<g class="st7">
					<polygon class="st5" points="513.2,152.4 491.2,122.7 530.1,106 552.1,135.6 					"/>
				</g>
				<g class="st8">
					<polygon class="st5" points="487.1,127.8 447.1,104.9 477.2,74.4 517.2,97.3 					"/>
				</g>
				<g class="st9">
					<polygon class="st5" points="488,179.7 399.5,178.1 401.6,110.7 490.1,112.3 					"/>
				</g>
				<g class="st10">
					<polygon class="st5" points="349.5,177 355,110.1 442.8,114.2 437.4,181.1 					"/>
				</g>
				<g class="st11">
					<polygon class="st5" points="324.6,133.5 309.3,71.6 390.6,60 405.8,121.9 					"/>
				</g>
				<g class="st12">
					<polygon class="st5" points="305.3,181.7 291.8,137.5 349.9,127.2 363.4,171.4 					"/>
				</g>
				<g class="st13">
					<polygon class="st5" points="253.6,169.6 266.6,114.5 339,124.4 326,179.5 					"/>
				</g>
				<g class="st14">
					<polygon class="st5" points="334.4,102.5 308.3,47.1 381,27.2 407.1,82.6 					"/>
				</g>
				<g class="st15">
					<polygon class="st5" points="378.5,101.2 372.3,39.4 453.4,34.7 459.6,96.4 					"/>
				</g>
				<g class="st16">
					<polygon class="st5" points="253.6,157.3 240.7,73.4 351,63.5 363.9,147.5 					"/>
				</g>
				<g class="st17">
					<polygon class="st5" points="222.7,127.3 139.2,84.7 195.2,21.1 278.8,63.7 					"/>
				</g>
				<g class="st18">
					<polygon class="st5" points="76.8,208 -9.7,93.6 140.6,27.7 227.1,142.2 					"/>
				</g>
				<g class="st19">
					<polygon class="st5" points="50.1,204.2 5,147.3 79.6,113 124.7,169.8 					"/>
				</g>
				<g class="st20">
					<polygon class="st5" points="-11.1,162.6 3.8,98.7 87.8,110 72.9,173.9 					"/>
				</g>
				<g class="st21">
					<polygon class="st5" points="-33.3,106.9 10.1,51.1 83.4,84.1 40,140 					"/>
				</g>
				<g class="st22">
					<polygon class="st5" points="-13.6,54.8 -6.2,-3.7 70.8,1.9 63.3,60.5 					"/>
				</g>
				<g class="st23">
					<polygon class="st5" points="-70.6,90.2 -70,31.4 7.3,31.8 6.7,90.6 					"/>
				</g>
				<g class="st24">
					<polygon class="st5" points="-138.5,193.6 -103.9,141 -34.8,167.4 -69.4,220 					"/>
				</g>
				<g class="st25">
					<polygon class="st5" points="-73.5,367.6 -100,310.9 -25.5,290.7 1,347.5 					"/>
				</g>
				<g class="st26">
					<polygon class="st5" points="-75.9,430.7 -80.6,363.3 7.9,359.7 12.7,427.1 					"/>
				</g>
				<g class="st27">
					<polygon class="st5" points="-52.4,446 -1.9,351 122.8,389.4 72.4,484.4 					"/>
				</g>
				<g class="st28">
					<polygon class="st5" points="-80.2,331.3 4,226.8 141.3,291 57,395.5 					"/>
				</g>
				<g class="st29">
					<polygon class="st5" points="-81.2,260 -58.1,203.9 15.7,221.4 -7.4,277.6 					"/>
				</g>
				<g class="st30">
					<polygon class="st5" points="-34.4,250.2 -47.8,192.2 28.4,182 41.8,240 					"/>
				</g>
				<g class="st31">
					<polygon class="st5" points="39.8,289.3 54.9,234.9 126.4,246.4 111.2,300.8 					"/>
				</g>
				<g class="st32">
					<polygon class="st5" points="51.5,396.6 28.4,280.7 180.8,263.1 203.8,379.1 					"/>
				</g>
				<g class="st33">
					<polygon class="st5" points="225.2,234.1 176.3,227.3 185.2,190.1 234.1,196.9 					"/>
				</g>
				<g class="st34">
					<polygon class="st5" points="185.1,206.3 190.8,163.1 247.5,167.4 241.8,210.6 					"/>
				</g>
				<g class="st35">
					<polygon class="st5" points="81.5,245.2 59.4,188.7 133.5,171.9 155.6,228.3 					"/>
				</g>
				<g class="st36">
					<polygon class="st5" points="118.1,242.5 28.4,104.3 209.9,36 299.6,174.2 					"/>
				</g>
				<g class="st37">
					<polygon class="st5" points="265.2,269.2 216.5,276.3 207.2,239.3 255.9,232.2 					"/>
				</g>
				<g class="st38">
					<polygon class="st5" points="224.9,451.2 215.6,390.6 295.3,383.5 304.6,444.2 					"/>
				</g>
				<g class="st39">
					<polygon class="st5" points="360,358.6 404.3,315.5 460.9,349.2 416.6,392.3 					"/>
				</g>
				<g class="st40">
					<polygon class="st5" points="467.5,269.8 450.6,204.7 536,191.8 553,256.9 					"/>
				</g>
				<g class="st41">
					
						<rect x="460" y="216.7" transform="matrix(-4.490560e-11 1 -1 -4.490560e-11 776.6047 -229.8519)" class="st5" width="86.4" height="113.4"/>
				</g>
				<g class="st42">
					
						<rect x="492" y="250.5" transform="matrix(-4.490471e-11 1 -1 -4.490471e-11 828.3237 -229.8895)" class="st5" width="74.2" height="97.4"/>
				</g>
				<g class="st43">
					<polygon class="st5" points="504.5,201.1 487.2,147.7 557.4,134.5 574.7,188 					"/>
				</g>
				<g class="st44">
					<polygon class="st5" points="366.7,326.4 382.4,224.7 516,236.6 500.3,338.3 					"/>
				</g>
				<g class="st45">
					<polygon class="st5" points="318.8,271.6 366.4,252.9 391.1,289.1 343.5,307.8 					"/>
				</g>
				<g class="st46">
					<polygon class="st5" points="258.7,324.5 250,277.6 311.6,271 320.3,317.9 					"/>
				</g>
				<g class="st47">
					<polygon class="st5" points="240.8,410 232.6,351.5 309.4,345.2 317.6,403.7 					"/>
				</g>
				<g class="st48">
					<polygon class="st5" points="371.8,233.6 383.8,182.6 450.8,191.7 438.8,242.7 					"/>
				</g>
				<g class="st49">
					
						<rect x="430" y="242.4" transform="matrix(-4.492247e-11 1 -1 -4.492247e-11 784.7762 -172.4156)" class="st5" width="97.2" height="127.7"/>
				</g>
				<g class="st50">
					
						<rect x="499.2" y="360.9" transform="matrix(-4.490560e-11 1 -1 -4.490560e-11 910.0964 -131.5287)" class="st5" width="43.2" height="56.7"/>
				</g>
				<g class="st51">
					<polygon class="st5" points="300.2,378.8 307.4,325.7 377.1,331.1 370,384.2 					"/>
				</g>
				<g class="st52">
					<polygon class="st5" points="146.1,450.8 128.8,363.8 243.1,350.7 260.4,437.7 					"/>
				</g>
				<g class="st53">
					<polygon class="st5" points="39.2,442.2 42.2,340.6 175.8,342.9 172.7,444.5 					"/>
				</g>
				<g class="st54">
					<polygon class="st5" points="193.4,349.2 175.8,312.3 224.3,298.8 241.9,335.7 					"/>
				</g>
				<g class="st55">
					<polygon class="st5" points="311.8,232.6 353.1,178.5 424.2,210 382.9,264.1 					"/>
				</g>
				<g class="st56">
					<polygon class="st5" points="258.8,208.2 259.6,183 292.8,183.6 292,208.8 					"/>
				</g>
				<g class="st57">
					<polygon class="st5" points="241.3,257.1 196.1,262.2 189.4,227.8 234.6,222.7 					"/>
				</g>
				<g class="st58">
					<polygon class="st5" points="239.5,314 191.9,292.8 219.7,256.6 267.3,277.8 					"/>
				</g>
				<g class="st59">
					<polygon class="st5" points="281.7,230.5 274.2,196.2 319.2,190.5 326.7,224.7 					"/>
				</g>
				<g class="st60">
					<polygon class="st5" points="256.2,280.3 261.8,221.2 339.3,225.5 333.8,284.5 					"/>
				</g>
			</g>
			<g>
				<g class="st61">
					<polygon class="st5" points="517.1,204.1 510,163.7 563.1,158.2 570.2,198.6 					"/>
				</g>
				<g class="st62">
					<polygon class="st5" points="484.4,115.5 450.1,57.8 525.9,31.7 560.3,89.4 					"/>
				</g>
				<g class="st63">
					<polygon class="st5" points="387.2,40.3 354.7,8 397.1,-16.7 429.6,15.6 					"/>
				</g>
				<g class="st64">
					<polygon class="st5" points="160.2,116.3 262,118 259.8,195.6 157.9,193.9 					"/>
				</g>
				<g class="st65">
					<polygon class="st5" points="125.1,191.5 103.4,141.4 169.2,124.9 190.9,175 					"/>
				</g>
				<g class="st66">
					<polygon class="st5" points="48.6,64.4 107.3,40.4 138.8,85.1 80.1,109.1 					"/>
				</g>
				<g class="st67">
					<polygon class="st5" points="194.3,71.1 135.5,32.9 185.7,-11.8 244.5,26.4 					"/>
				</g>
				<g class="st68">
					<polygon class="st5" points="216.5,78.6 239.4,21.8 314,39.3 291.1,96.1 					"/>
				</g>
				<g class="st69">
					<polygon class="st5" points="267.6,174.6 405.9,210.5 358.6,315.8 220.3,279.8 					"/>
				</g>
				<g class="st70">
					<polygon class="st5" points="186,161.5 287.7,185.4 256.3,262.8 154.6,238.9 					"/>
				</g>
				<g class="st47">
					<polygon class="st5" points="441.8,82.1 344.5,100.7 320,26.7 417.3,8 					"/>
				</g>
				<g class="st71">
					<polygon class="st5" points="329.1,204.2 382.4,210.1 374.6,250.6 321.3,244.7 					"/>
				</g>
				<g class="st72">
					<polygon class="st5" points="130,130.8 174.2,87.9 230.5,121.6 186.4,164.4 					"/>
				</g>
				<g class="st73">
					<polygon class="st5" points="-24.8,91.1 36.7,45.6 96.4,92.3 35,137.9 					"/>
				</g>
				<g class="st74">
					<polygon class="st5" points="-99.1,194.6 -74.9,155.1 -23.1,173.5 -47.3,213 					"/>
				</g>
				<g class="st75">
					<polygon class="st5" points="-105.5,312.9 -74.9,274.4 -24.3,297.7 -54.9,336.2 					"/>
				</g>
				<g class="st76">
					<polygon class="st5" points="82.4,405.3 150.9,385 177.6,437.1 109.1,457.4 					"/>
				</g>
				<g class="st77">
					<polygon class="st5" points="296.6,321.3 347.9,283.7 397.3,322.7 346.1,360.4 					"/>
				</g>
				<g class="st78">
					<polygon class="st5" points="357,383 400,326.5 474.2,359.3 431.1,415.8 					"/>
				</g>
				<g class="st79">
					<polygon class="st5" points="413.3,331.5 467.7,295.9 514.4,337.4 460,372.9 					"/>
				</g>
				<g class="st80">
					<polygon class="st5" points="135.3,282.8 33.4,234.3 97.2,156.7 199.1,205.3 					"/>
				</g>
				<g class="st81">
					<polygon class="st5" points="40.4,391.6 27.7,326.4 113.3,316.7 126,381.9 					"/>
				</g>
				<g class="st82">
					<polygon class="st5" points="-42.7,170.3 65.2,172.2 62.7,254.3 -45.2,252.4 					"/>
				</g>
				<g class="st83">
					<polygon class="st5" points="-27.7,224.7 60.9,229.1 55.1,296.6 -33.5,292.1 					"/>
				</g>
				<g class="st84">
					<polygon class="st5" points="-63.4,341.8 -41.9,292.3 23.2,308.7 1.6,358.2 					"/>
				</g>
				<g class="st85">
					<polygon class="st5" points="92.5,355.5 104.1,312.6 160.4,321.5 148.8,364.3 					"/>
				</g>
				<g class="st86">
					<polygon class="st5" points="216.6,256.7 291.4,244.3 307.8,301.3 232.9,313.7 					"/>
				</g>
				<g class="st87">
					<polygon class="st5" points="129.7,362.6 163,277.1 275.4,302.4 242.1,387.9 					"/>
				</g>
				<g class="st88">
					<polygon class="st5" points="159.9,370.7 228.8,302.9 317.9,355.4 248.9,423.2 					"/>
				</g>
				<g class="st89">
					<polygon class="st5" points="142.9,406.7 226.3,333.3 322.7,396.7 239.3,470.1 					"/>
				</g>
				<g class="st90">
					<polygon class="st5" points="244.2,389.9 368.8,320.6 459.7,415.5 335.1,484.7 					"/>
				</g>
				<g class="st91">
					<polygon class="st5" points="493.4,334.1 535,284.5 600.1,316.1 558.6,365.7 					"/>
				</g>
				<g class="st92">
					<polygon class="st5" points="392.6,356.8 464,313.7 520.6,368 449.3,411.1 					"/>
				</g>
				<g class="st93">
					<polygon class="st5" points="213.5,469.1 278.6,424.5 337.2,474 272.2,518.6 					"/>
				</g>
				<g class="st94">
					<polygon class="st5" points="47.2,400.1 96.5,366.9 140.1,404.4 90.8,437.7 					"/>
				</g>
				<g class="st95">
					<polygon class="st5" points="-59,413.2 -7.3,385.1 29.6,424.4 -22,452.6 					"/>
				</g>
				<g class="st96">
					<polygon class="st5" points="-149,378.3 -111,351.5 -75.8,380.4 -113.8,407.2 					"/>
				</g>
				<g class="st97">
					<polygon class="st5" points="-74.4,349.2 -19.5,328.3 7.9,370.1 -47,391 					"/>
				</g>
				<g class="st98">
					<polygon class="st5" points="21.8,147.9 70.6,76 165.1,113.2 116.3,185.1 					"/>
				</g>
				<g class="st99">
					<polygon class="st5" points="123.4,261.6 104.7,202.6 182.1,188.4 200.8,247.4 					"/>
				</g>
				<g class="st100">
					<polygon class="st5" points="103.1,301.2 76.3,243.8 151.7,223.4 178.5,280.8 					"/>
				</g>
				<g class="st101">
					<polygon class="st5" points="125.1,295.5 137.2,245.7 202.7,254.9 190.6,304.8 					"/>
				</g>
				<g class="st102">
					<polygon class="st5" points="51.2,344.1 -3,288.8 69.7,247.5 123.9,302.8 					"/>
				</g>
				<g class="st103">
					<polygon class="st5" points="17.7,395.7 -32.2,319.5 67.9,281.5 117.8,357.7 					"/>
				</g>
				<g class="st104">
					<polygon class="st5" points="355.7,163 243.9,114.8 307.2,29.8 418.9,77.9 					"/>
				</g>
				<g class="st105">
					<polygon class="st5" points="474.1,274.1 473.4,213.7 552.8,213.2 553.5,273.6 					"/>
				</g>
				<g class="st106">
					<polygon class="st5" points="525.3,148.3 518.9,113.9 564.1,109 570.5,143.4 					"/>
				</g>
				<g class="st49">
					<polygon class="st5" points="527.2,129.1 411.8,144.4 391.7,56.6 507.1,41.3 					"/>
				</g>
				<g class="st107">
					<polygon class="st5" points="307.2,203.6 350.3,110.7 472.4,143.5 429.3,236.4 					"/>
				</g>
				<g class="st108">
					<polygon class="st5" points="356.9,263.5 359.5,166.4 487.1,168.4 484.5,265.5 					"/>
				</g>
				<g class="st109">
					<polygon class="st5" points="521,211.3 403.7,190.5 431,101.2 548.3,122 					"/>
				</g>
				<g class="st110">
					<polygon class="st5" points="485.6,249.2 405.6,188.9 484.8,128 564.8,188.3 					"/>
				</g>
				<g class="st111">
					<polygon class="st5" points="354.6,343.1 389.6,293.9 454.3,320.6 419.3,369.8 					"/>
				</g>
				<g class="st112">
					<polygon class="st5" points="293.6,279.2 356.5,269.9 368.7,317.8 305.8,327.1 					"/>
				</g>
				<g class="st113">
					<polygon class="st5" points="257,279.2 343.6,273.9 350.5,339.8 263.9,345.1 					"/>
				</g>
				<g class="st114">
					<polygon class="st5" points="311.7,256.5 382.8,243.5 399.9,297.6 328.8,310.6 					"/>
				</g>
			</g>
		</g>
	</g>
</g>
</svg>
